{"glyphs":{"0":{"ha":778,"x_min":24,"x_max":756,"o":"m 390 -17 q 176 50 257 -17 q 60 231 96 117 q 24 486 24 344 q 60 742 24 628 q 176 922 96 856 q 390 989 257 989 q 603 924 524 989 q 719 744 683 858 q 756 486 756 631 q 719 228 756 342 q 603 49 683 114 q 390 -17 524 -17 m 390 178 q 500 260 465 178 q 535 486 535 343 q 500 712 535 629 q 390 794 465 794 q 280 712 315 794 q 244 486 244 629 q 280 260 244 343 q 390 178 315 178 z "},"1":{"ha":778,"x_min":96,"x_max":754,"o":"m 96 0 l 96 189 l 332 189 l 332 731 l 107 688 l 107 860 l 422 972 l 538 972 l 538 189 l 754 189 l 754 0 l 96 0 z "},"2":{"ha":778,"x_min":49,"x_max":739,"o":"m 50 0 l 50 146 q 58 155 50 146 q 83 181 67 164 q 124 224 100 199 q 181 283 149 250 q 253 358 214 317 q 379 489 321 431 q 474 598 438 547 q 510 694 510 649 q 473 776 510 747 q 389 806 436 806 q 315 784 343 806 q 273 729 286 763 q 260 658 260 696 l 49 658 q 97 844 53 771 q 218 953 142 917 q 394 989 294 989 q 585 945 514 989 q 689 834 657 901 q 721 696 721 767 q 692 568 721 626 q 609 449 664 510 q 475 310 554 389 q 463 297 475 310 q 432 267 450 285 q 396 231 414 249 q 365 200 378 213 q 353 188 353 188 l 739 188 l 739 0 l 50 0 z "},"3":{"ha":778,"x_min":33,"x_max":744,"o":"m 390 -17 q 203 22 283 -17 q 78 135 122 60 q 36 324 33 211 l 249 324 q 279 213 239 257 q 390 169 319 169 q 492 201 450 169 q 535 313 535 233 q 492 415 535 379 q 392 450 450 450 q 335 442 361 450 q 290 422 310 433 l 174 558 l 444 783 l 58 783 l 58 972 l 714 972 l 714 788 l 504 614 q 626 568 579 600 q 699 493 674 536 q 735 403 725 450 q 744 314 744 357 q 699 135 744 210 q 574 22 654 61 q 390 -17 494 -17 z "},"4":{"ha":778,"x_min":31,"x_max":765,"o":"m 453 0 l 453 163 l 31 163 l 31 338 l 350 972 l 564 972 l 261 350 l 468 350 l 468 588 l 672 588 l 672 350 l 765 350 l 765 163 l 672 163 l 672 0 l 453 0 z "},"5":{"ha":778,"x_min":35,"x_max":751,"o":"m 397 -17 q 213 19 293 -17 q 86 123 133 56 q 35 281 39 190 l 247 281 q 299 203 258 236 q 396 169 339 169 q 470 192 438 169 q 522 252 503 214 q 542 338 542 290 q 501 452 542 411 q 399 493 460 493 q 309 466 347 493 q 256 401 271 439 l 46 401 l 129 972 l 688 972 l 688 781 l 290 781 l 254 603 q 331 649 282 631 q 439 668 379 668 q 616 620 549 668 q 718 499 683 572 q 742 420 733 460 q 751 339 751 381 q 708 159 751 240 q 585 31 665 78 q 397 -17 506 -17 z "},"6":{"ha":778,"x_min":35,"x_max":749,"o":"m 421 -17 q 240 24 314 -17 q 119 133 165 65 q 56 287 76 203 q 35 458 35 371 q 80 741 35 622 q 208 924 125 860 q 301 973 250 957 q 413 989 353 989 q 585 947 515 989 q 693 839 654 904 q 723 770 713 806 q 735 699 733 735 l 536 699 q 497 781 525 751 q 411 811 468 811 q 322 776 357 811 q 269 675 286 742 q 251 511 253 608 q 338 597 283 563 q 465 632 393 632 q 602 593 535 632 q 708 483 669 554 q 749 314 749 413 q 707 149 749 224 q 592 28 665 74 q 421 -17 515 -17 m 410 169 q 476 186 446 169 q 524 233 506 203 q 543 307 543 264 q 504 410 543 371 q 404 449 465 449 q 339 431 369 449 q 289 383 308 414 q 269 313 269 353 q 288 238 269 269 q 339 188 307 206 q 410 169 371 169 z "},"7":{"ha":778,"x_min":25,"x_max":756,"o":"m 154 0 l 522 786 l 25 786 l 25 972 l 756 972 l 756 819 l 379 0 l 154 0 z "},"8":{"ha":778,"x_min":42,"x_max":739,"o":"m 392 -17 q 217 19 297 -17 q 90 119 138 54 q 42 275 42 185 q 76 424 42 358 q 188 525 111 489 q 98 610 132 558 q 64 728 64 663 q 109 871 64 813 q 228 959 154 929 q 392 989 303 989 q 551 960 478 989 q 670 874 625 932 q 715 728 715 815 q 681 606 715 660 q 593 525 646 553 q 704 424 669 490 q 739 275 739 357 q 709 147 739 201 q 629 56 679 92 q 517 1 579 19 q 392 -17 456 -17 m 393 163 q 489 195 451 163 q 526 296 526 228 q 494 395 526 360 q 393 431 461 431 q 290 395 325 431 q 256 296 256 360 q 288 201 256 239 q 393 163 321 163 m 392 585 q 473 614 444 585 q 501 699 501 643 q 475 783 501 751 q 392 815 449 815 q 306 784 332 815 q 279 699 279 753 q 310 614 279 643 q 392 585 340 585 z "},"9":{"ha":778,"x_min":28,"x_max":742,"o":"m 364 -17 q 192 26 263 -17 q 83 133 122 68 q 42 274 44 200 l 240 274 q 281 191 251 221 q 365 161 310 161 q 456 196 421 161 q 507 298 490 231 q 525 461 524 365 q 439 375 494 410 q 311 340 383 340 q 174 379 242 340 q 68 489 107 418 q 28 658 28 560 q 70 824 28 749 q 185 944 113 899 q 356 989 261 989 q 537 948 463 989 q 657 839 611 907 q 722 686 701 771 q 742 514 742 601 q 697 231 742 350 q 568 49 651 113 q 475 -1 526 15 q 364 -17 424 -17 m 372 524 q 438 541 407 524 q 488 589 468 558 q 507 660 507 619 q 488 735 507 703 q 438 785 469 767 q 367 803 406 803 q 301 786 332 803 q 252 739 271 769 q 233 665 233 708 q 272 563 233 601 q 372 524 311 524 z "},"A":{"ha":961,"x_min":3,"x_max":961,"o":"m 3 0 l 356 972 l 607 972 l 961 0 l 729 0 l 661 201 l 300 201 l 231 0 l 3 0 m 361 376 l 601 376 l 479 731 l 361 376 z "},"Á":{"ha":961,"x_min":3,"x_max":961,"o":"m 3 0 l 356 972 l 607 972 l 961 0 l 729 0 l 661 201 l 300 201 l 231 0 l 3 0 m 361 376 l 601 376 l 479 731 l 361 376 m 315 1026 l 315 1176 l 644 1342 l 644 1168 l 315 1026 z "},"Ă":{"ha":961,"x_min":3,"x_max":961,"o":"m 3 0 l 356 972 l 607 972 l 961 0 l 729 0 l 661 201 l 300 201 l 231 0 l 3 0 m 361 376 l 601 376 l 479 731 l 361 376 m 479 1036 q 313 1095 376 1036 q 250 1264 250 1154 l 250 1289 l 361 1289 q 387 1219 361 1244 q 479 1194 413 1194 q 574 1219 549 1194 q 600 1289 600 1244 l 710 1289 l 710 1263 q 646 1094 710 1153 q 479 1036 582 1036 z "},"Ǎ":{"ha":961,"x_min":3,"x_max":961,"o":"m 3 0 l 356 972 l 607 972 l 961 0 l 729 0 l 661 201 l 300 201 l 231 0 l 3 0 m 361 376 l 601 376 l 479 731 l 361 376 m 481 1029 l 269 1138 l 269 1290 l 481 1172 l 692 1290 l 692 1138 l 481 1029 z "},"Â":{"ha":961,"x_min":3,"x_max":961,"o":"m 3 0 l 356 972 l 607 972 l 961 0 l 729 0 l 661 201 l 300 201 l 231 0 l 3 0 m 361 376 l 601 376 l 479 731 l 361 376 m 269 1031 l 269 1182 l 481 1292 l 692 1182 l 692 1031 l 481 1142 l 269 1031 z "},"Ä":{"ha":961,"x_min":3,"x_max":961,"o":"m 3 0 l 356 972 l 607 972 l 961 0 l 729 0 l 661 201 l 300 201 l 231 0 l 3 0 m 361 376 l 601 376 l 479 731 l 361 376 m 315 1054 q 222 1092 260 1054 q 183 1186 183 1131 q 222 1281 183 1243 q 315 1318 260 1318 q 410 1281 372 1318 q 447 1186 447 1243 q 410 1092 447 1131 q 315 1054 372 1054 m 646 1054 q 552 1092 590 1054 q 514 1186 514 1131 q 552 1281 514 1243 q 646 1318 590 1318 q 740 1281 703 1318 q 778 1186 778 1243 q 740 1092 778 1131 q 646 1054 703 1054 z "},"À":{"ha":961,"x_min":3,"x_max":961,"o":"m 3 0 l 356 972 l 607 972 l 961 0 l 729 0 l 661 201 l 300 201 l 231 0 l 3 0 m 361 376 l 601 376 l 479 731 l 361 376 m 646 1026 l 317 1168 l 317 1342 l 646 1176 l 646 1026 z "},"Ā":{"ha":961,"x_min":3,"x_max":961,"o":"m 3 0 l 356 972 l 607 972 l 961 0 l 729 0 l 661 201 l 300 201 l 231 0 l 3 0 m 361 376 l 601 376 l 479 731 l 361 376 m 222 1075 l 222 1228 l 739 1228 l 739 1075 l 222 1075 z "},"Ą":{"ha":961,"x_min":3,"x_max":969,"o":"m 3 0 l 356 972 l 607 972 l 961 0 l 729 0 l 661 201 l 300 201 l 231 0 l 3 0 m 361 376 l 601 376 l 479 731 l 361 376 m 838 -299 q 697 -262 756 -299 q 639 -146 639 -225 q 685 -33 639 -86 q 856 74 732 19 l 913 99 l 961 0 l 894 -35 q 822 -81 844 -61 q 800 -125 800 -101 q 817 -161 800 -147 q 865 -175 835 -175 q 969 -154 911 -175 l 969 -278 q 908 -292 943 -285 q 838 -299 874 -299 z "},"Å":{"ha":961,"x_min":3,"x_max":961,"o":"m 3 0 l 356 972 l 607 972 l 961 0 l 729 0 l 661 201 l 300 201 l 231 0 l 3 0 m 361 376 l 601 376 l 479 731 l 361 376 m 478 1033 q 363 1078 413 1033 q 314 1197 314 1122 q 363 1317 314 1274 q 478 1361 413 1361 q 598 1317 549 1361 q 647 1197 647 1274 q 598 1078 647 1122 q 478 1033 549 1033 m 478 1128 q 529 1147 510 1128 q 549 1197 549 1167 q 529 1249 549 1229 q 478 1268 510 1268 q 432 1249 451 1268 q 413 1197 413 1229 q 432 1147 413 1167 q 478 1128 451 1128 z "},"Ã":{"ha":961,"x_min":3,"x_max":961,"o":"m 3 0 l 356 972 l 607 972 l 961 0 l 729 0 l 661 201 l 300 201 l 231 0 l 3 0 m 361 376 l 601 376 l 479 731 l 361 376 m 564 1040 q 499 1056 525 1040 q 449 1088 472 1072 q 392 1104 425 1104 q 335 1042 346 1104 l 228 1042 q 288 1188 243 1142 q 399 1235 332 1235 q 465 1219 439 1235 q 514 1188 490 1203 q 569 1172 538 1172 q 608 1188 593 1172 q 626 1235 622 1203 l 733 1235 q 674 1086 719 1132 q 564 1040 629 1040 z "},"Æ":{"ha":1283,"x_min":3,"x_max":1235,"o":"m 3 0 l 510 972 l 1235 972 l 1235 783 l 875 783 l 875 607 l 1169 607 l 1169 418 l 875 418 l 875 189 l 1235 189 l 1235 0 l 657 0 l 657 168 l 326 168 l 239 0 l 3 0 m 417 339 l 657 339 l 657 810 l 417 339 z "},"Ǽ":{"ha":1283,"x_min":3,"x_max":1235,"o":"m 3 0 l 510 972 l 1235 972 l 1235 783 l 875 783 l 875 607 l 1169 607 l 1169 418 l 875 418 l 875 189 l 1235 189 l 1235 0 l 657 0 l 657 168 l 326 168 l 239 0 l 3 0 m 417 339 l 657 339 l 657 810 l 417 339 m 610 1026 l 610 1176 l 939 1342 l 939 1168 l 610 1026 z "},"B":{"ha":857,"x_min":65,"x_max":821,"o":"m 65 0 l 65 972 l 456 972 q 697 903 617 972 q 776 724 776 835 q 741 596 776 643 q 650 519 706 549 q 728 466 689 503 q 794 379 767 429 q 821 272 821 329 q 781 135 821 197 q 668 37 742 74 q 494 0 594 0 l 65 0 m 285 188 l 492 188 q 576 217 553 188 q 599 297 599 247 q 576 376 599 346 q 489 406 553 406 l 285 406 l 285 188 m 285 596 l 436 596 q 526 617 501 596 q 551 692 551 639 q 528 762 551 739 q 435 785 504 785 l 285 785 l 285 596 z "},"C":{"ha":993,"x_min":38,"x_max":956,"o":"m 515 -17 q 257 48 364 -17 q 94 225 150 113 q 38 483 38 338 q 92 744 38 629 q 254 924 147 858 q 515 989 361 989 q 813 898 696 989 q 956 640 929 807 l 715 640 q 648 750 701 711 q 511 789 594 789 q 382 755 439 789 q 293 653 325 721 q 261 483 261 586 q 292 316 261 383 q 381 215 324 249 q 511 181 438 181 q 648 216 594 181 q 715 317 701 251 l 956 317 q 813 72 929 161 q 515 -17 696 -17 z "},"Ć":{"ha":993,"x_min":38,"x_max":956,"o":"m 515 -17 q 257 48 364 -17 q 94 225 150 113 q 38 483 38 338 q 92 744 38 629 q 254 924 147 858 q 515 989 361 989 q 813 898 696 989 q 956 640 929 807 l 715 640 q 648 750 701 711 q 511 789 594 789 q 382 755 439 789 q 293 653 325 721 q 261 483 261 586 q 292 316 261 383 q 381 215 324 249 q 511 181 438 181 q 648 216 594 181 q 715 317 701 251 l 956 317 q 813 72 929 161 q 515 -17 696 -17 m 347 1026 l 347 1176 l 676 1342 l 676 1168 l 347 1026 z "},"Č":{"ha":993,"x_min":38,"x_max":956,"o":"m 515 -17 q 257 48 364 -17 q 94 225 150 113 q 38 483 38 338 q 92 744 38 629 q 254 924 147 858 q 515 989 361 989 q 813 898 696 989 q 956 640 929 807 l 715 640 q 648 750 701 711 q 511 789 594 789 q 382 755 439 789 q 293 653 325 721 q 261 483 261 586 q 292 316 261 383 q 381 215 324 249 q 511 181 438 181 q 648 216 594 181 q 715 317 701 251 l 956 317 q 813 72 929 161 q 515 -17 696 -17 m 513 1029 l 301 1138 l 301 1290 l 513 1172 l 724 1290 l 724 1138 l 513 1029 z "},"Ç":{"ha":993,"x_min":38,"x_max":956,"o":"m 515 -17 q 257 48 364 -17 q 94 225 150 113 q 38 483 38 338 q 92 744 38 629 q 254 924 147 858 q 515 989 361 989 q 813 898 696 989 q 956 640 929 807 l 715 640 q 648 750 701 711 q 511 789 594 789 q 382 755 439 789 q 293 653 325 721 q 261 483 261 586 q 292 316 261 383 q 381 215 324 249 q 511 181 438 181 q 648 216 594 181 q 715 317 701 251 l 956 317 q 813 72 929 161 q 515 -17 696 -17 m 369 -369 l 369 -247 l 543 -247 q 603 -208 603 -247 q 543 -168 603 -168 l 447 -168 l 447 24 l 581 24 l 581 -57 q 668 -72 626 -56 q 736 -124 710 -89 q 763 -211 763 -158 q 735 -300 763 -265 q 664 -352 707 -335 q 574 -369 621 -369 l 369 -369 z "},"Ċ":{"ha":993,"x_min":38,"x_max":956,"o":"m 515 -17 q 257 48 364 -17 q 94 225 150 113 q 38 483 38 338 q 92 744 38 629 q 254 924 147 858 q 515 989 361 989 q 813 898 696 989 q 956 640 929 807 l 715 640 q 648 750 701 711 q 511 789 594 789 q 382 755 439 789 q 293 653 325 721 q 261 483 261 586 q 292 316 261 383 q 381 215 324 249 q 511 181 438 181 q 648 216 594 181 q 715 317 701 251 l 956 317 q 813 72 929 161 q 515 -17 696 -17 m 513 1054 q 422 1092 461 1054 q 382 1186 382 1131 q 422 1281 382 1243 q 513 1318 461 1318 q 608 1281 569 1318 q 647 1186 647 1243 q 608 1092 647 1131 q 513 1054 569 1054 z "},"D":{"ha":956,"x_min":65,"x_max":918,"o":"m 65 0 l 65 972 l 419 972 q 705 909 594 972 q 867 737 815 846 q 918 488 918 628 q 858 219 918 328 q 685 55 797 110 q 419 0 574 0 l 65 0 m 285 190 l 408 190 q 584 228 522 190 q 670 332 646 265 q 694 488 694 399 q 623 715 694 644 q 408 785 551 785 l 285 785 l 285 190 z "},"Ď":{"ha":956,"x_min":65,"x_max":918,"o":"m 65 0 l 65 972 l 419 972 q 705 909 594 972 q 867 737 815 846 q 918 488 918 628 q 858 219 918 328 q 685 55 797 110 q 419 0 574 0 l 65 0 m 285 190 l 408 190 q 584 228 522 190 q 670 332 646 265 q 694 488 694 399 q 623 715 694 644 q 408 785 551 785 l 285 785 l 285 190 m 464 1029 l 253 1138 l 253 1290 l 464 1172 l 675 1290 l 675 1138 l 464 1029 z "},"Đ":{"ha":965,"x_min":-17,"x_max":928,"o":"m 76 0 l 76 394 l -17 394 l -17 579 l 76 579 l 76 972 l 431 972 q 715 909 606 972 q 876 737 825 846 q 928 488 928 628 q 868 219 928 328 q 697 55 808 110 q 431 0 585 0 l 76 0 m 294 190 l 418 190 q 589 225 526 190 q 678 326 651 260 q 704 488 704 393 q 633 715 704 646 q 418 785 563 785 l 294 785 l 294 579 l 518 579 l 518 394 l 294 394 l 294 190 z "},"Ð":{"ha":965,"x_min":-17,"x_max":928,"o":"m 76 0 l 76 394 l -17 394 l -17 579 l 76 579 l 76 972 l 431 972 q 715 909 606 972 q 876 737 825 846 q 928 488 928 628 q 868 219 928 328 q 697 55 808 110 q 431 0 585 0 l 76 0 m 294 190 l 418 190 q 589 225 526 190 q 678 326 651 260 q 704 488 704 393 q 633 715 704 646 q 418 785 563 785 l 294 785 l 294 579 l 518 579 l 518 394 l 294 394 l 294 190 z "},"E":{"ha":751,"x_min":65,"x_max":704,"o":"m 65 0 l 65 972 l 704 972 l 704 783 l 285 783 l 285 607 l 639 607 l 639 418 l 285 418 l 285 189 l 704 189 l 704 0 l 65 0 z "},"É":{"ha":751,"x_min":65,"x_max":704,"o":"m 65 0 l 65 972 l 704 972 l 704 783 l 285 783 l 285 607 l 639 607 l 639 418 l 285 418 l 285 189 l 704 189 l 704 0 l 65 0 m 211 1026 l 211 1176 l 540 1342 l 540 1168 l 211 1026 z "},"Ĕ":{"ha":751,"x_min":65,"x_max":704,"o":"m 65 0 l 65 972 l 704 972 l 704 783 l 285 783 l 285 607 l 639 607 l 639 418 l 285 418 l 285 189 l 704 189 l 704 0 l 65 0 m 375 1036 q 209 1095 272 1036 q 146 1264 146 1154 l 146 1289 l 257 1289 q 283 1219 257 1244 q 375 1194 308 1194 q 470 1219 444 1194 q 496 1289 496 1244 l 606 1289 l 606 1263 q 542 1094 606 1153 q 375 1036 478 1036 z "},"Ě":{"ha":751,"x_min":65,"x_max":704,"o":"m 65 0 l 65 972 l 704 972 l 704 783 l 285 783 l 285 607 l 639 607 l 639 418 l 285 418 l 285 189 l 704 189 l 704 0 l 65 0 m 376 1029 l 165 1138 l 165 1290 l 376 1172 l 588 1290 l 588 1138 l 376 1029 z "},"Ê":{"ha":751,"x_min":65,"x_max":704,"o":"m 65 0 l 65 972 l 704 972 l 704 783 l 285 783 l 285 607 l 639 607 l 639 418 l 285 418 l 285 189 l 704 189 l 704 0 l 65 0 m 165 1031 l 165 1182 l 376 1292 l 588 1182 l 588 1031 l 376 1142 l 165 1031 z "},"Ë":{"ha":751,"x_min":65,"x_max":704,"o":"m 65 0 l 65 972 l 704 972 l 704 783 l 285 783 l 285 607 l 639 607 l 639 418 l 285 418 l 285 189 l 704 189 l 704 0 l 65 0 m 211 1054 q 117 1092 156 1054 q 79 1186 79 1131 q 117 1281 79 1243 q 211 1318 156 1318 q 306 1281 268 1318 q 343 1186 343 1243 q 306 1092 343 1131 q 211 1054 268 1054 m 542 1054 q 448 1092 486 1054 q 410 1186 410 1131 q 448 1281 410 1243 q 542 1318 486 1318 q 636 1281 599 1318 q 674 1186 674 1243 q 636 1092 674 1131 q 542 1054 599 1054 z "},"Ė":{"ha":751,"x_min":65,"x_max":704,"o":"m 65 0 l 65 972 l 704 972 l 704 783 l 285 783 l 285 607 l 639 607 l 639 418 l 285 418 l 285 189 l 704 189 l 704 0 l 65 0 m 376 1054 q 285 1092 325 1054 q 246 1186 246 1131 q 285 1281 246 1243 q 376 1318 325 1318 q 472 1281 433 1318 q 511 1186 511 1243 q 472 1092 511 1131 q 376 1054 433 1054 z "},"È":{"ha":751,"x_min":65,"x_max":704,"o":"m 65 0 l 65 972 l 704 972 l 704 783 l 285 783 l 285 607 l 639 607 l 639 418 l 285 418 l 285 189 l 704 189 l 704 0 l 65 0 m 542 1026 l 213 1168 l 213 1342 l 542 1176 l 542 1026 z "},"Ē":{"ha":751,"x_min":65,"x_max":704,"o":"m 65 0 l 65 972 l 704 972 l 704 783 l 285 783 l 285 607 l 639 607 l 639 418 l 285 418 l 285 189 l 704 189 l 704 0 l 65 0 m 118 1075 l 118 1228 l 635 1228 l 635 1075 l 118 1075 z "},"Ę":{"ha":751,"x_min":65,"x_max":713,"o":"m 65 0 l 65 972 l 704 972 l 704 783 l 285 783 l 285 607 l 639 607 l 639 418 l 285 418 l 285 189 l 704 189 l 704 0 l 65 0 m 581 -299 q 440 -262 499 -299 q 382 -146 382 -225 q 428 -33 382 -86 q 599 74 475 19 l 656 99 l 704 0 l 638 -35 q 565 -81 588 -61 q 543 -125 543 -101 q 560 -161 543 -147 q 608 -175 578 -175 q 713 -154 654 -175 l 713 -278 q 651 -292 686 -285 q 581 -299 617 -299 z "},"Ǝ":{"ha":750,"x_min":47,"x_max":685,"o":"m 47 0 l 47 189 l 467 189 l 467 418 l 113 418 l 113 607 l 467 607 l 467 783 l 47 783 l 47 972 l 685 972 l 685 0 l 47 0 z "},"ǝ":{"ha":750,"x_min":47,"x_max":685,"o":"m 47 0 l 47 189 l 467 189 l 467 418 l 113 418 l 113 607 l 467 607 l 467 783 l 47 783 l 47 972 l 685 972 l 685 0 l 47 0 z "},"Ẽ":{"ha":751,"x_min":65,"x_max":704,"o":"m 65 0 l 65 972 l 704 972 l 704 783 l 285 783 l 285 607 l 639 607 l 639 418 l 285 418 l 285 189 l 704 189 l 704 0 l 65 0 m 460 1040 q 394 1056 421 1040 q 344 1088 368 1072 q 288 1104 321 1104 q 231 1042 242 1104 l 124 1042 q 183 1188 139 1142 q 294 1235 228 1235 q 360 1219 335 1235 q 410 1188 386 1203 q 465 1172 433 1172 q 503 1188 489 1172 q 522 1235 518 1203 l 629 1235 q 570 1086 615 1132 q 460 1040 525 1040 z "},"Ə":{"ha":1028,"x_min":38,"x_max":990,"o":"m 513 -17 q 263 40 369 -17 q 99 204 157 97 q 38 463 38 308 q 39 504 38 482 q 44 546 40 526 l 761 546 q 723 678 757 624 q 635 761 689 733 q 578 783 608 776 q 514 790 547 790 q 374 753 435 790 q 290 654 313 717 l 51 654 q 142 828 79 751 q 299 946 206 904 q 510 989 393 989 q 762 926 654 989 q 929 751 869 864 q 990 485 990 639 q 930 222 990 335 q 763 46 869 108 q 513 -17 657 -17 m 507 183 q 628 208 572 183 q 719 281 685 233 q 761 396 754 326 l 261 396 q 297 285 264 332 q 383 211 329 239 q 507 183 439 183 z "},"F":{"ha":719,"x_min":65,"x_max":692,"o":"m 65 0 l 65 972 l 692 972 l 692 783 l 285 783 l 285 597 l 649 597 l 649 408 l 285 408 l 285 0 l 65 0 z "},"G":{"ha":1042,"x_min":38,"x_max":990,"o":"m 496 -17 q 255 45 358 -17 q 94 218 151 107 q 38 478 38 329 q 94 736 38 621 q 260 920 150 851 q 533 989 371 989 q 823 906 708 989 q 972 674 938 822 l 731 674 q 660 758 708 728 q 533 788 611 788 q 393 751 454 788 q 297 644 332 714 q 261 475 261 575 q 296 311 261 378 q 390 211 331 244 q 521 178 449 178 q 683 223 625 178 q 764 340 742 268 l 482 340 l 482 529 l 990 529 l 990 0 l 789 0 l 772 107 q 662 15 729 47 q 496 -17 594 -17 z "},"Ğ":{"ha":1042,"x_min":38,"x_max":990,"o":"m 496 -17 q 255 45 358 -17 q 94 218 151 107 q 38 478 38 329 q 94 736 38 621 q 260 920 150 851 q 533 989 371 989 q 823 906 708 989 q 972 674 938 822 l 731 674 q 660 758 708 728 q 533 788 611 788 q 393 751 454 788 q 297 644 332 714 q 261 475 261 575 q 296 311 261 378 q 390 211 331 244 q 521 178 449 178 q 683 223 625 178 q 764 340 742 268 l 482 340 l 482 529 l 990 529 l 990 0 l 789 0 l 772 107 q 662 15 729 47 q 496 -17 594 -17 m 519 1036 q 353 1095 417 1036 q 290 1264 290 1154 l 290 1289 l 401 1289 q 427 1219 401 1244 q 519 1194 453 1194 q 615 1219 589 1194 q 640 1289 640 1244 l 750 1289 l 750 1263 q 686 1094 750 1153 q 519 1036 622 1036 z "},"Ģ":{"ha":1042,"x_min":38,"x_max":990,"o":"m 496 -17 q 255 45 358 -17 q 94 218 151 107 q 38 478 38 329 q 94 736 38 621 q 260 920 150 851 q 533 989 371 989 q 823 906 708 989 q 972 674 938 822 l 731 674 q 660 758 708 728 q 533 788 611 788 q 393 751 454 788 q 297 644 332 714 q 261 475 261 575 q 296 311 261 378 q 390 211 331 244 q 521 178 449 178 q 683 223 625 178 q 764 340 742 268 l 482 340 l 482 529 l 990 529 l 990 0 l 789 0 l 772 107 q 662 15 729 47 q 496 -17 594 -17 m 435 -414 l 435 -331 q 507 -240 507 -331 l 507 -218 l 421 -218 l 421 -58 l 593 -58 q 614 -139 608 -100 q 619 -211 619 -178 q 574 -359 619 -304 q 435 -414 528 -414 z "},"Ġ":{"ha":1042,"x_min":38,"x_max":990,"o":"m 496 -17 q 255 45 358 -17 q 94 218 151 107 q 38 478 38 329 q 94 736 38 621 q 260 920 150 851 q 533 989 371 989 q 823 906 708 989 q 972 674 938 822 l 731 674 q 660 758 708 728 q 533 788 611 788 q 393 751 454 788 q 297 644 332 714 q 261 475 261 575 q 296 311 261 378 q 390 211 331 244 q 521 178 449 178 q 683 223 625 178 q 764 340 742 268 l 482 340 l 482 529 l 990 529 l 990 0 l 789 0 l 772 107 q 662 15 729 47 q 496 -17 594 -17 m 521 1054 q 430 1092 469 1054 q 390 1186 390 1131 q 430 1281 390 1243 q 521 1318 469 1318 q 617 1281 578 1318 q 656 1186 656 1243 q 617 1092 656 1131 q 521 1054 578 1054 z "},"H":{"ha":958,"x_min":65,"x_max":893,"o":"m 65 0 l 65 972 l 285 972 l 285 608 l 675 608 l 675 972 l 893 972 l 893 0 l 675 0 l 675 419 l 285 419 l 285 0 l 65 0 z "},"Ħ":{"ha":960,"x_min":14,"x_max":946,"o":"m 67 0 l 67 665 l 14 665 l 14 856 l 67 856 l 67 972 l 286 972 l 286 856 l 676 856 l 676 972 l 894 972 l 894 856 l 946 856 l 946 665 l 894 665 l 894 0 l 676 0 l 676 419 l 286 419 l 286 0 l 67 0 m 286 608 l 676 608 l 676 665 l 286 665 l 286 608 z "},"I":{"ha":353,"x_min":67,"x_max":286,"o":"m 67 0 l 67 972 l 286 972 l 286 0 l 67 0 z "},"Ĳ":{"ha":1076,"x_min":67,"x_max":1010,"o":"m 67 0 l 67 972 l 286 972 l 286 0 l 67 0 m 697 -17 q 458 67 550 -17 q 365 310 365 151 l 582 310 q 613 212 585 246 q 692 178 640 178 q 766 209 740 178 q 792 296 792 240 l 792 972 l 1010 972 l 1010 296 q 925 64 1010 144 q 697 -17 840 -17 z "},"Í":{"ha":353,"x_min":11,"x_max":340,"o":"m 67 0 l 67 972 l 286 972 l 286 0 l 67 0 m 11 1026 l 11 1176 l 340 1342 l 340 1168 l 11 1026 z "},"Ĭ":{"ha":353,"x_min":-54,"x_max":406,"o":"m 67 0 l 67 972 l 286 972 l 286 0 l 67 0 m 175 1036 q 9 1095 72 1036 q -54 1264 -54 1154 l -54 1289 l 57 1289 q 83 1219 57 1244 q 175 1194 108 1194 q 270 1219 244 1194 q 296 1289 296 1244 l 406 1289 l 406 1263 q 342 1094 406 1153 q 175 1036 278 1036 z "},"Î":{"ha":353,"x_min":-35,"x_max":388,"o":"m 67 0 l 67 972 l 286 972 l 286 0 l 67 0 m -35 1031 l -35 1182 l 176 1292 l 388 1182 l 388 1031 l 176 1142 l -35 1031 z "},"Ï":{"ha":353,"x_min":-121,"x_max":474,"o":"m 67 0 l 67 972 l 286 972 l 286 0 l 67 0 m 11 1054 q -83 1092 -44 1054 q -121 1186 -121 1131 q -83 1281 -121 1243 q 11 1318 -44 1318 q 106 1281 68 1318 q 143 1186 143 1243 q 106 1092 143 1131 q 11 1054 68 1054 m 342 1054 q 248 1092 286 1054 q 210 1186 210 1131 q 248 1281 210 1243 q 342 1318 286 1318 q 436 1281 399 1318 q 474 1186 474 1243 q 436 1092 474 1131 q 342 1054 399 1054 z "},"İ":{"ha":353,"x_min":46,"x_max":311,"o":"m 67 0 l 67 972 l 286 972 l 286 0 l 67 0 m 176 1054 q 85 1092 125 1054 q 46 1186 46 1131 q 85 1281 46 1243 q 176 1318 125 1318 q 272 1281 233 1318 q 311 1186 311 1243 q 272 1092 311 1131 q 176 1054 233 1054 z "},"Ì":{"ha":353,"x_min":13,"x_max":342,"o":"m 67 0 l 67 972 l 286 972 l 286 0 l 67 0 m 342 1026 l 13 1168 l 13 1342 l 342 1176 l 342 1026 z "},"Ī":{"ha":353,"x_min":-82,"x_max":435,"o":"m 67 0 l 67 972 l 286 972 l 286 0 l 67 0 m -82 1075 l -82 1228 l 435 1228 l 435 1075 l -82 1075 z "},"Į":{"ha":353,"x_min":-36,"x_max":294,"o":"m 67 0 l 67 972 l 286 972 l 286 0 l 67 0 m 163 -299 q 22 -262 81 -299 q -36 -146 -36 -225 q 10 -33 -36 -86 q 181 74 57 19 l 238 99 l 286 0 l 219 -35 q 147 -81 169 -61 q 125 -125 125 -101 q 142 -161 125 -147 q 190 -175 160 -175 q 294 -154 236 -175 l 294 -278 q 233 -292 268 -285 q 163 -299 199 -299 z "},"Ĩ":{"ha":353,"x_min":-76,"x_max":429,"o":"m 67 0 l 67 972 l 286 972 l 286 0 l 67 0 m 260 1040 q 194 1056 221 1040 q 144 1088 168 1072 q 88 1104 121 1104 q 31 1042 42 1104 l -76 1042 q -17 1188 -61 1142 q 94 1235 28 1235 q 160 1219 135 1235 q 210 1188 186 1203 q 265 1172 233 1172 q 303 1188 289 1172 q 322 1235 318 1203 l 429 1235 q 370 1086 415 1132 q 260 1040 325 1040 z "},"J":{"ha":724,"x_min":13,"x_max":657,"o":"m 344 -17 q 105 67 197 -17 q 13 310 13 151 l 229 310 q 260 212 232 246 q 339 178 288 178 q 413 209 388 178 q 439 296 439 240 l 439 972 l 657 972 l 657 296 q 572 64 657 144 q 344 -17 488 -17 z "},"K":{"ha":896,"x_min":65,"x_max":893,"o":"m 854 972 l 514 603 l 893 0 l 639 0 l 369 449 l 285 356 l 285 0 l 65 0 l 65 972 l 285 972 l 285 643 l 585 972 l 854 972 z "},"Ķ":{"ha":896,"x_min":65,"x_max":893,"o":"m 854 972 l 514 603 l 893 0 l 639 0 l 369 449 l 285 356 l 285 0 l 65 0 l 65 972 l 285 972 l 285 643 l 585 972 l 854 972 m 363 -414 l 363 -331 q 435 -240 435 -331 l 435 -218 l 349 -218 l 349 -58 l 521 -58 q 542 -139 536 -100 q 547 -211 547 -178 q 501 -359 547 -304 q 363 -414 456 -414 z "},"L":{"ha":725,"x_min":65,"x_max":682,"o":"m 65 0 l 65 972 l 285 972 l 285 190 l 682 190 l 682 0 l 65 0 z "},"Ĺ":{"ha":725,"x_min":63,"x_max":682,"o":"m 65 0 l 65 972 l 285 972 l 285 190 l 682 190 l 682 0 l 65 0 m 63 1026 l 63 1176 l 392 1342 l 392 1168 l 63 1026 z "},"Ľ":{"ha":725,"x_min":65,"x_max":682,"o":"m 65 0 l 65 972 l 285 972 l 285 190 l 682 190 l 682 0 l 65 0 m 379 758 l 446 972 l 644 972 l 517 758 l 379 758 z "},"Ļ":{"ha":725,"x_min":65,"x_max":682,"o":"m 65 0 l 65 972 l 285 972 l 285 190 l 682 190 l 682 0 l 65 0 m 276 -414 l 276 -331 q 349 -240 349 -331 l 349 -218 l 263 -218 l 263 -58 l 435 -58 q 456 -139 450 -100 q 461 -211 461 -178 q 415 -359 461 -304 q 276 -414 369 -414 z "},"Ŀ":{"ha":725,"x_min":65,"x_max":682,"o":"m 65 0 l 65 972 l 285 972 l 285 190 l 682 190 l 682 0 l 65 0 m 510 354 q 416 393 454 354 q 378 486 378 432 q 416 579 378 540 q 510 618 454 618 q 603 579 564 618 q 642 486 642 540 q 603 393 642 432 q 510 354 564 354 z "},"Ł":{"ha":756,"x_min":4,"x_max":713,"o":"m 97 0 l 97 388 l 4 357 l 4 540 l 97 571 l 97 972 l 315 972 l 315 639 l 442 676 l 442 493 l 315 456 l 315 190 l 713 190 l 713 0 l 97 0 z "},"M":{"ha":1121,"x_min":65,"x_max":1056,"o":"m 65 0 l 65 972 l 326 972 l 564 376 l 794 972 l 1056 972 l 1056 0 l 836 0 l 836 585 l 649 114 l 472 114 l 285 586 l 285 0 l 65 0 z "},"N":{"ha":985,"x_min":65,"x_max":919,"o":"m 65 0 l 65 972 l 285 972 l 700 360 l 700 972 l 919 972 l 919 0 l 700 0 l 285 610 l 285 0 l 65 0 z "},"Ń":{"ha":985,"x_min":65,"x_max":919,"o":"m 65 0 l 65 972 l 285 972 l 700 360 l 700 972 l 919 972 l 919 0 l 700 0 l 285 610 l 285 0 l 65 0 m 328 1026 l 328 1176 l 657 1342 l 657 1168 l 328 1026 z "},"Ň":{"ha":985,"x_min":65,"x_max":919,"o":"m 65 0 l 65 972 l 285 972 l 700 360 l 700 972 l 919 972 l 919 0 l 700 0 l 285 610 l 285 0 l 65 0 m 493 1029 l 282 1138 l 282 1290 l 493 1172 l 704 1290 l 704 1138 l 493 1029 z "},"Ņ":{"ha":985,"x_min":65,"x_max":919,"o":"m 65 0 l 65 972 l 285 972 l 700 360 l 700 972 l 919 972 l 919 0 l 700 0 l 285 610 l 285 0 l 65 0 m 407 -414 l 407 -331 q 479 -240 479 -331 l 479 -218 l 393 -218 l 393 -58 l 565 -58 q 586 -139 581 -100 q 592 -211 592 -178 q 546 -359 592 -304 q 407 -414 500 -414 z "},"Ñ":{"ha":985,"x_min":65,"x_max":919,"o":"m 65 0 l 65 972 l 285 972 l 700 360 l 700 972 l 919 972 l 919 0 l 700 0 l 285 610 l 285 0 l 65 0 m 576 1040 q 511 1056 538 1040 q 461 1088 485 1072 q 404 1104 438 1104 q 347 1042 358 1104 l 240 1042 q 300 1188 256 1142 q 411 1235 344 1235 q 477 1219 451 1235 q 526 1188 503 1203 q 582 1172 550 1172 q 620 1188 606 1172 q 639 1235 635 1203 l 746 1235 q 687 1086 732 1132 q 576 1040 642 1040 z "},"Ŋ":{"ha":985,"x_min":65,"x_max":919,"o":"m 65 0 l 65 972 l 285 972 l 700 360 l 700 972 l 919 972 l 919 -62 q 891 -199 919 -146 q 808 -279 863 -253 q 672 -306 753 -306 l 589 -306 l 589 -124 l 635 -124 q 683 -110 667 -124 q 700 -65 700 -97 l 700 0 l 285 610 l 285 0 l 65 0 z "},"O":{"ha":1092,"x_min":38,"x_max":1054,"o":"m 544 -17 q 353 18 444 -17 q 191 118 263 53 q 78 276 119 183 q 38 486 38 369 q 78 696 38 603 q 191 854 119 789 q 353 954 263 919 q 544 989 444 989 q 736 954 644 989 q 899 854 828 919 q 1013 696 971 789 q 1054 486 1054 603 q 1013 276 1054 369 q 899 118 971 183 q 736 18 828 53 q 544 -17 644 -17 m 544 182 q 678 215 613 182 q 785 316 743 249 q 828 486 828 383 q 785 658 828 590 q 676 758 742 725 q 544 790 611 790 q 413 758 478 790 q 306 658 349 725 q 264 486 264 590 q 306 316 264 383 q 412 215 347 249 q 544 182 476 182 z "},"Ó":{"ha":1092,"x_min":38,"x_max":1054,"o":"m 544 -17 q 353 18 444 -17 q 191 118 263 53 q 78 276 119 183 q 38 486 38 369 q 78 696 38 603 q 191 854 119 789 q 353 954 263 919 q 544 989 444 989 q 736 954 644 989 q 899 854 828 919 q 1013 696 971 789 q 1054 486 1054 603 q 1013 276 1054 369 q 899 118 971 183 q 736 18 828 53 q 544 -17 644 -17 m 544 182 q 678 215 613 182 q 785 316 743 249 q 828 486 828 383 q 785 658 828 590 q 676 758 742 725 q 544 790 611 790 q 413 758 478 790 q 306 658 349 725 q 264 486 264 590 q 306 316 264 383 q 412 215 347 249 q 544 182 476 182 m 381 1026 l 381 1176 l 710 1342 l 710 1168 l 381 1026 z "},"Ŏ":{"ha":1092,"x_min":38,"x_max":1054,"o":"m 544 -17 q 353 18 444 -17 q 191 118 263 53 q 78 276 119 183 q 38 486 38 369 q 78 696 38 603 q 191 854 119 789 q 353 954 263 919 q 544 989 444 989 q 736 954 644 989 q 899 854 828 919 q 1013 696 971 789 q 1054 486 1054 603 q 1013 276 1054 369 q 899 118 971 183 q 736 18 828 53 q 544 -17 644 -17 m 544 182 q 678 215 613 182 q 785 316 743 249 q 828 486 828 383 q 785 658 828 590 q 676 758 742 725 q 544 790 611 790 q 413 758 478 790 q 306 658 349 725 q 264 486 264 590 q 306 316 264 383 q 412 215 347 249 q 544 182 476 182 m 544 1036 q 378 1095 442 1036 q 315 1264 315 1154 l 315 1289 l 426 1289 q 452 1219 426 1244 q 544 1194 478 1194 q 640 1219 614 1194 q 665 1289 665 1244 l 775 1289 l 775 1263 q 711 1094 775 1153 q 544 1036 647 1036 z "},"Ô":{"ha":1092,"x_min":38,"x_max":1054,"o":"m 544 -17 q 353 18 444 -17 q 191 118 263 53 q 78 276 119 183 q 38 486 38 369 q 78 696 38 603 q 191 854 119 789 q 353 954 263 919 q 544 989 444 989 q 736 954 644 989 q 899 854 828 919 q 1013 696 971 789 q 1054 486 1054 603 q 1013 276 1054 369 q 899 118 971 183 q 736 18 828 53 q 544 -17 644 -17 m 544 182 q 678 215 613 182 q 785 316 743 249 q 828 486 828 383 q 785 658 828 590 q 676 758 742 725 q 544 790 611 790 q 413 758 478 790 q 306 658 349 725 q 264 486 264 590 q 306 316 264 383 q 412 215 347 249 q 544 182 476 182 m 335 1031 l 335 1182 l 546 1292 l 757 1182 l 757 1031 l 546 1142 l 335 1031 z "},"Ö":{"ha":1092,"x_min":38,"x_max":1054,"o":"m 544 -17 q 353 18 444 -17 q 191 118 263 53 q 78 276 119 183 q 38 486 38 369 q 78 696 38 603 q 191 854 119 789 q 353 954 263 919 q 544 989 444 989 q 736 954 644 989 q 899 854 828 919 q 1013 696 971 789 q 1054 486 1054 603 q 1013 276 1054 369 q 899 118 971 183 q 736 18 828 53 q 544 -17 644 -17 m 544 182 q 678 215 613 182 q 785 316 743 249 q 828 486 828 383 q 785 658 828 590 q 676 758 742 725 q 544 790 611 790 q 413 758 478 790 q 306 658 349 725 q 264 486 264 590 q 306 316 264 383 q 412 215 347 249 q 544 182 476 182 m 381 1054 q 287 1092 325 1054 q 249 1186 249 1131 q 287 1281 249 1243 q 381 1318 325 1318 q 475 1281 438 1318 q 513 1186 513 1243 q 475 1092 513 1131 q 381 1054 438 1054 m 711 1054 q 617 1092 656 1054 q 579 1186 579 1131 q 617 1281 579 1243 q 711 1318 656 1318 q 806 1281 768 1318 q 843 1186 843 1243 q 806 1092 843 1131 q 711 1054 768 1054 z "},"Ò":{"ha":1092,"x_min":38,"x_max":1054,"o":"m 544 -17 q 353 18 444 -17 q 191 118 263 53 q 78 276 119 183 q 38 486 38 369 q 78 696 38 603 q 191 854 119 789 q 353 954 263 919 q 544 989 444 989 q 736 954 644 989 q 899 854 828 919 q 1013 696 971 789 q 1054 486 1054 603 q 1013 276 1054 369 q 899 118 971 183 q 736 18 828 53 q 544 -17 644 -17 m 544 182 q 678 215 613 182 q 785 316 743 249 q 828 486 828 383 q 785 658 828 590 q 676 758 742 725 q 544 790 611 790 q 413 758 478 790 q 306 658 349 725 q 264 486 264 590 q 306 316 264 383 q 412 215 347 249 q 544 182 476 182 m 711 1026 l 382 1168 l 382 1342 l 711 1176 l 711 1026 z "},"Ő":{"ha":1092,"x_min":38,"x_max":1054,"o":"m 544 -17 q 353 18 444 -17 q 191 118 263 53 q 78 276 119 183 q 38 486 38 369 q 78 696 38 603 q 191 854 119 789 q 353 954 263 919 q 544 989 444 989 q 736 954 644 989 q 899 854 828 919 q 1013 696 971 789 q 1054 486 1054 603 q 1013 276 1054 369 q 899 118 971 183 q 736 18 828 53 q 544 -17 644 -17 m 544 182 q 678 215 613 182 q 785 316 743 249 q 828 486 828 383 q 785 658 828 590 q 676 758 742 725 q 544 790 611 790 q 413 758 478 790 q 306 658 349 725 q 264 486 264 590 q 306 316 264 383 q 412 215 347 249 q 544 182 476 182 m 526 1035 l 647 1311 l 822 1311 l 660 1035 l 526 1035 m 268 1035 l 371 1311 l 544 1311 l 403 1035 l 268 1035 z "},"Ō":{"ha":1092,"x_min":38,"x_max":1054,"o":"m 544 -17 q 353 18 444 -17 q 191 118 263 53 q 78 276 119 183 q 38 486 38 369 q 78 696 38 603 q 191 854 119 789 q 353 954 263 919 q 544 989 444 989 q 736 954 644 989 q 899 854 828 919 q 1013 696 971 789 q 1054 486 1054 603 q 1013 276 1054 369 q 899 118 971 183 q 736 18 828 53 q 544 -17 644 -17 m 544 182 q 678 215 613 182 q 785 316 743 249 q 828 486 828 383 q 785 658 828 590 q 676 758 742 725 q 544 790 611 790 q 413 758 478 790 q 306 658 349 725 q 264 486 264 590 q 306 316 264 383 q 412 215 347 249 q 544 182 476 182 m 288 1075 l 288 1228 l 804 1228 l 804 1075 l 288 1075 z "},"Ø":{"ha":1040,"x_min":13,"x_max":1031,"o":"m 528 -17 q 383 2 450 -17 q 258 54 315 21 l 211 0 l 13 0 l 143 158 q 65 304 92 219 q 38 486 38 389 q 99 748 38 635 q 270 925 160 861 q 528 989 381 989 q 667 972 601 989 q 790 924 733 956 l 831 972 l 1031 972 l 906 825 q 990 674 961 760 q 1019 486 1019 589 q 959 227 1019 340 q 788 49 899 114 q 528 -17 678 -17 m 528 181 q 667 216 607 181 q 763 319 728 251 q 797 486 797 388 q 789 575 797 533 q 761 656 781 617 l 390 213 q 528 181 454 181 m 288 328 l 656 765 q 528 792 599 792 q 389 757 450 792 q 293 654 328 722 q 258 486 258 586 q 265 403 258 443 q 288 328 272 364 z "},"Õ":{"ha":1092,"x_min":38,"x_max":1054,"o":"m 544 -17 q 353 18 444 -17 q 191 118 263 53 q 78 276 119 183 q 38 486 38 369 q 78 696 38 603 q 191 854 119 789 q 353 954 263 919 q 544 989 444 989 q 736 954 644 989 q 899 854 828 919 q 1013 696 971 789 q 1054 486 1054 603 q 1013 276 1054 369 q 899 118 971 183 q 736 18 828 53 q 544 -17 644 -17 m 544 182 q 678 215 613 182 q 785 316 743 249 q 828 486 828 383 q 785 658 828 590 q 676 758 742 725 q 544 790 611 790 q 413 758 478 790 q 306 658 349 725 q 264 486 264 590 q 306 316 264 383 q 412 215 347 249 q 544 182 476 182 m 629 1040 q 564 1056 590 1040 q 514 1088 538 1072 q 457 1104 490 1104 q 400 1042 411 1104 l 293 1042 q 353 1188 308 1142 q 464 1235 397 1235 q 530 1219 504 1235 q 579 1188 556 1203 q 635 1172 603 1172 q 673 1188 658 1172 q 692 1235 688 1203 l 799 1235 q 740 1086 785 1132 q 629 1040 694 1040 z "},"Œ":{"ha":1472,"x_min":38,"x_max":1425,"o":"m 514 -17 q 322 21 410 -17 q 171 126 235 58 q 72 286 107 194 q 38 486 38 378 q 74 690 38 599 q 174 849 110 782 q 326 953 239 917 q 514 989 413 989 q 678 956 596 989 q 808 858 761 922 l 808 972 l 1425 972 l 1425 783 l 1028 783 l 1028 607 l 1360 607 l 1360 417 l 1028 417 l 1028 189 l 1425 189 l 1425 0 l 808 0 l 808 107 q 678 16 761 49 q 514 -17 596 -17 m 535 181 q 656 208 604 181 q 742 279 708 235 q 794 378 776 324 q 811 486 811 432 q 774 647 811 578 q 675 753 738 715 q 535 792 613 792 q 380 747 440 792 q 290 631 319 701 q 261 486 261 561 q 283 359 261 415 q 342 263 304 303 q 429 202 379 224 q 535 181 479 181 z "},"P":{"ha":822,"x_min":65,"x_max":806,"o":"m 65 0 l 65 972 l 451 972 q 632 936 551 972 q 759 832 713 900 q 806 669 806 764 q 760 508 806 576 q 635 401 715 439 q 451 364 556 364 l 285 364 l 285 0 l 65 0 m 285 551 l 446 551 q 553 587 524 551 q 583 669 583 622 q 553 749 583 714 q 446 785 524 785 l 285 785 l 285 551 z "},"Þ":{"ha":822,"x_min":65,"x_max":806,"o":"m 65 0 l 65 972 l 285 972 l 285 794 l 453 794 q 649 753 572 794 q 765 643 726 713 q 806 483 806 571 q 768 335 806 404 q 653 224 731 267 q 453 179 576 179 l 285 179 l 285 0 l 65 0 m 285 353 l 436 353 q 548 388 513 353 q 583 483 583 424 q 548 581 583 544 q 436 617 513 617 l 285 617 l 285 353 z "},"Q":{"ha":1094,"x_min":38,"x_max":1069,"o":"m 929 -18 l 838 72 q 700 6 775 29 q 544 -17 625 -17 q 353 18 444 -17 q 191 118 263 53 q 78 276 119 183 q 38 486 38 369 q 78 696 38 603 q 191 854 119 789 q 353 954 263 919 q 544 989 444 989 q 736 954 644 989 q 899 854 828 919 q 1013 696 971 789 q 1054 486 1054 603 q 1033 340 1054 408 q 976 214 1013 271 l 1069 128 l 929 -18 m 264 488 q 306 317 264 385 q 412 217 347 250 q 544 183 476 183 q 619 192 582 183 q 688 218 656 200 l 535 364 l 674 510 l 811 372 q 824 426 819 397 q 828 488 828 456 q 785 659 828 592 q 676 759 742 726 q 544 792 611 792 q 413 759 478 792 q 306 659 349 726 q 264 488 264 592 z "},"R":{"ha":847,"x_min":65,"x_max":842,"o":"m 65 0 l 65 972 l 436 972 q 613 938 536 972 q 732 838 689 903 q 775 685 775 774 q 722 522 775 588 q 576 429 669 457 l 842 0 l 589 0 l 357 396 l 285 396 l 285 0 l 65 0 m 285 582 l 432 582 q 509 598 483 582 q 544 638 535 614 q 554 685 554 661 q 544 731 554 708 q 509 769 535 754 q 432 785 483 785 l 285 785 l 285 582 z "},"Ŕ":{"ha":847,"x_min":65,"x_max":842,"o":"m 65 0 l 65 972 l 436 972 q 613 938 536 972 q 732 838 689 903 q 775 685 775 774 q 722 522 775 588 q 576 429 669 457 l 842 0 l 589 0 l 357 396 l 285 396 l 285 0 l 65 0 m 285 582 l 432 582 q 509 598 483 582 q 544 638 535 614 q 554 685 554 661 q 544 731 554 708 q 509 769 535 754 q 432 785 483 785 l 285 785 l 285 582 m 260 1026 l 260 1176 l 589 1342 l 589 1168 l 260 1026 z "},"Ř":{"ha":847,"x_min":65,"x_max":842,"o":"m 65 0 l 65 972 l 436 972 q 613 938 536 972 q 732 838 689 903 q 775 685 775 774 q 722 522 775 588 q 576 429 669 457 l 842 0 l 589 0 l 357 396 l 285 396 l 285 0 l 65 0 m 285 582 l 432 582 q 509 598 483 582 q 544 638 535 614 q 554 685 554 661 q 544 731 554 708 q 509 769 535 754 q 432 785 483 785 l 285 785 l 285 582 m 425 1029 l 214 1138 l 214 1290 l 425 1172 l 636 1290 l 636 1138 l 425 1029 z "},"Ŗ":{"ha":847,"x_min":65,"x_max":842,"o":"m 65 0 l 65 972 l 436 972 q 613 938 536 972 q 732 838 689 903 q 775 685 775 774 q 722 522 775 588 q 576 429 669 457 l 842 0 l 589 0 l 357 396 l 285 396 l 285 0 l 65 0 m 285 582 l 432 582 q 509 598 483 582 q 544 638 535 614 q 554 685 554 661 q 544 731 554 708 q 509 769 535 754 q 432 785 483 785 l 285 785 l 285 582 m 346 -414 l 346 -331 q 418 -240 418 -331 l 418 -218 l 332 -218 l 332 -58 l 504 -58 q 525 -139 519 -100 q 531 -211 531 -178 q 485 -359 531 -304 q 346 -414 439 -414 z "},"S":{"ha":800,"x_min":36,"x_max":764,"o":"m 413 -17 q 226 17 310 -17 q 91 120 142 51 q 36 294 40 189 l 267 294 q 306 207 272 246 q 410 168 340 168 q 499 194 469 168 q 529 264 529 221 q 523 300 529 283 q 499 333 517 317 q 444 365 481 349 q 346 401 407 382 q 168 486 232 438 q 78 590 104 535 q 53 704 53 646 q 100 862 54 799 q 222 957 146 925 q 393 989 299 989 q 566 956 488 989 q 693 860 644 924 q 743 701 742 796 l 507 701 q 475 772 506 739 q 385 806 444 806 q 312 781 342 804 q 282 717 282 758 q 313 654 282 681 q 399 606 343 628 q 531 558 456 583 q 631 513 588 539 q 704 453 675 488 q 749 376 733 419 q 764 279 764 333 q 719 124 764 190 q 594 20 674 57 q 413 -17 515 -17 z "},"Ś":{"ha":800,"x_min":36,"x_max":764,"o":"m 413 -17 q 226 17 310 -17 q 91 120 142 51 q 36 294 40 189 l 267 294 q 306 207 272 246 q 410 168 340 168 q 499 194 469 168 q 529 264 529 221 q 523 300 529 283 q 499 333 517 317 q 444 365 481 349 q 346 401 407 382 q 168 486 232 438 q 78 590 104 535 q 53 704 53 646 q 100 862 54 799 q 222 957 146 925 q 393 989 299 989 q 566 956 488 989 q 693 860 644 924 q 743 701 742 796 l 507 701 q 475 772 506 739 q 385 806 444 806 q 312 781 342 804 q 282 717 282 758 q 313 654 282 681 q 399 606 343 628 q 531 558 456 583 q 631 513 588 539 q 704 453 675 488 q 749 376 733 419 q 764 279 764 333 q 719 124 764 190 q 594 20 674 57 q 413 -17 515 -17 m 235 1026 l 235 1176 l 564 1342 l 564 1168 l 235 1026 z "},"Š":{"ha":800,"x_min":36,"x_max":764,"o":"m 413 -17 q 226 17 310 -17 q 91 120 142 51 q 36 294 40 189 l 267 294 q 306 207 272 246 q 410 168 340 168 q 499 194 469 168 q 529 264 529 221 q 523 300 529 283 q 499 333 517 317 q 444 365 481 349 q 346 401 407 382 q 168 486 232 438 q 78 590 104 535 q 53 704 53 646 q 100 862 54 799 q 222 957 146 925 q 393 989 299 989 q 566 956 488 989 q 693 860 644 924 q 743 701 742 796 l 507 701 q 475 772 506 739 q 385 806 444 806 q 312 781 342 804 q 282 717 282 758 q 313 654 282 681 q 399 606 343 628 q 531 558 456 583 q 631 513 588 539 q 704 453 675 488 q 749 376 733 419 q 764 279 764 333 q 719 124 764 190 q 594 20 674 57 q 413 -17 515 -17 m 400 1029 l 189 1138 l 189 1290 l 400 1172 l 611 1290 l 611 1138 l 400 1029 z "},"Ş":{"ha":800,"x_min":36,"x_max":764,"o":"m 413 -17 q 226 17 310 -17 q 91 120 142 51 q 36 294 40 189 l 267 294 q 306 207 272 246 q 410 168 340 168 q 499 194 469 168 q 529 264 529 221 q 523 300 529 283 q 499 333 517 317 q 444 365 481 349 q 346 401 407 382 q 168 486 232 438 q 78 590 104 535 q 53 704 53 646 q 100 862 54 799 q 222 957 146 925 q 393 989 299 989 q 566 956 488 989 q 693 860 644 924 q 743 701 742 796 l 507 701 q 475 772 506 739 q 385 806 444 806 q 312 781 342 804 q 282 717 282 758 q 313 654 282 681 q 399 606 343 628 q 531 558 456 583 q 631 513 588 539 q 704 453 675 488 q 749 376 733 419 q 764 279 764 333 q 719 124 764 190 q 594 20 674 57 q 413 -17 515 -17 m 254 -369 l 254 -247 l 428 -247 q 488 -208 488 -247 q 428 -168 488 -168 l 332 -168 l 332 24 l 465 24 l 465 -57 q 553 -72 511 -56 q 621 -124 594 -89 q 647 -211 647 -158 q 619 -300 647 -265 q 549 -352 592 -335 q 458 -369 506 -369 l 254 -369 z "},"Ș":{"ha":800,"x_min":36,"x_max":764,"o":"m 413 -17 q 226 17 310 -17 q 91 120 142 51 q 36 294 40 189 l 267 294 q 306 207 272 246 q 410 168 340 168 q 499 194 469 168 q 529 264 529 221 q 523 300 529 283 q 499 333 517 317 q 444 365 481 349 q 346 401 407 382 q 168 486 232 438 q 78 590 104 535 q 53 704 53 646 q 100 862 54 799 q 222 957 146 925 q 393 989 299 989 q 566 956 488 989 q 693 860 644 924 q 743 701 742 796 l 507 701 q 475 772 506 739 q 385 806 444 806 q 312 781 342 804 q 282 717 282 758 q 313 654 282 681 q 399 606 343 628 q 531 558 456 583 q 631 513 588 539 q 704 453 675 488 q 749 376 733 419 q 764 279 764 333 q 719 124 764 190 q 594 20 674 57 q 413 -17 515 -17 m 314 -414 l 314 -331 q 386 -240 386 -331 l 386 -218 l 300 -218 l 300 -58 l 472 -58 q 493 -139 488 -100 q 499 -211 499 -178 q 453 -359 499 -304 q 314 -414 407 -414 z "},"ẞ":{"ha":947,"x_min":42,"x_max":936,"o":"m 640 -14 q 424 53 510 -14 q 324 249 339 119 l 526 249 q 560 174 532 203 q 636 144 588 144 q 699 162 674 144 q 725 217 725 179 q 707 267 725 247 q 662 299 689 286 q 606 324 635 313 q 505 364 556 342 q 420 421 454 386 q 386 510 386 456 q 403 572 386 546 q 443 617 419 599 q 467 635 456 626 q 490 653 479 643 q 529 688 510 668 q 549 736 549 708 q 507 812 549 789 q 411 835 465 835 q 325 818 360 835 q 274 767 290 801 q 257 681 257 733 l 257 0 l 42 0 l 42 697 q 92 875 42 804 q 229 981 143 946 q 421 1017 315 1017 q 591 987 513 1017 q 717 900 669 957 q 765 760 765 843 q 749 697 765 724 q 709 649 733 669 q 660 613 685 629 q 626 586 646 603 q 606 546 606 569 q 619 515 606 528 q 663 488 633 501 q 736 458 692 475 q 879 375 822 426 q 936 229 936 324 q 896 96 936 150 q 788 14 856 42 q 640 -14 721 -14 z "},"T":{"ha":806,"x_min":13,"x_max":790,"o":"m 292 0 l 292 783 l 13 783 l 13 972 l 790 972 l 790 783 l 510 783 l 510 0 l 292 0 z "},"Ť":{"ha":806,"x_min":13,"x_max":790,"o":"m 292 0 l 292 783 l 13 783 l 13 972 l 790 972 l 790 783 l 510 783 l 510 0 l 292 0 m 401 1029 l 190 1138 l 190 1290 l 401 1172 l 613 1290 l 613 1138 l 401 1029 z "},"Ţ":{"ha":806,"x_min":13,"x_max":790,"o":"m 292 0 l 292 783 l 13 783 l 13 972 l 790 972 l 790 783 l 510 783 l 510 0 l 292 0 m 256 -369 l 256 -247 l 429 -247 q 489 -208 489 -247 q 429 -168 489 -168 l 333 -168 l 333 24 l 467 24 l 467 -57 q 554 -72 513 -56 q 622 -124 596 -89 q 649 -211 649 -158 q 621 -300 649 -265 q 550 -352 593 -335 q 460 -369 507 -369 l 256 -369 z "},"Ț":{"ha":806,"x_min":13,"x_max":790,"o":"m 292 0 l 292 783 l 13 783 l 13 972 l 790 972 l 790 783 l 510 783 l 510 0 l 292 0 m 315 -414 l 315 -331 q 388 -240 388 -331 l 388 -218 l 301 -218 l 301 -58 l 474 -58 q 494 -139 489 -100 q 500 -211 500 -178 q 454 -359 500 -304 q 315 -414 408 -414 z "},"U":{"ha":922,"x_min":63,"x_max":863,"o":"m 457 -17 q 233 38 321 -17 q 104 182 146 92 q 63 382 63 272 l 63 972 l 281 972 l 281 381 q 326 235 281 286 q 461 185 372 185 q 597 235 549 185 q 644 381 644 286 l 644 972 l 863 972 l 863 382 q 825 192 863 268 q 727 69 788 115 q 595 3 667 24 q 457 -17 524 -17 z "},"Ú":{"ha":922,"x_min":63,"x_max":863,"o":"m 457 -17 q 233 38 321 -17 q 104 182 146 92 q 63 382 63 272 l 63 972 l 281 972 l 281 381 q 326 235 281 286 q 461 185 372 185 q 597 235 549 185 q 644 381 644 286 l 644 972 l 863 972 l 863 382 q 825 192 863 268 q 727 69 788 115 q 595 3 667 24 q 457 -17 524 -17 m 296 1026 l 296 1176 l 625 1342 l 625 1168 l 296 1026 z "},"Ŭ":{"ha":922,"x_min":63,"x_max":863,"o":"m 457 -17 q 233 38 321 -17 q 104 182 146 92 q 63 382 63 272 l 63 972 l 281 972 l 281 381 q 326 235 281 286 q 461 185 372 185 q 597 235 549 185 q 644 381 644 286 l 644 972 l 863 972 l 863 382 q 825 192 863 268 q 727 69 788 115 q 595 3 667 24 q 457 -17 524 -17 m 460 1036 q 294 1095 357 1036 q 231 1264 231 1154 l 231 1289 l 342 1289 q 367 1219 342 1244 q 460 1194 393 1194 q 555 1219 529 1194 q 581 1289 581 1244 l 690 1289 l 690 1263 q 626 1094 690 1153 q 460 1036 563 1036 z "},"Û":{"ha":922,"x_min":63,"x_max":863,"o":"m 457 -17 q 233 38 321 -17 q 104 182 146 92 q 63 382 63 272 l 63 972 l 281 972 l 281 381 q 326 235 281 286 q 461 185 372 185 q 597 235 549 185 q 644 381 644 286 l 644 972 l 863 972 l 863 382 q 825 192 863 268 q 727 69 788 115 q 595 3 667 24 q 457 -17 524 -17 m 250 1031 l 250 1182 l 461 1292 l 672 1182 l 672 1031 l 461 1142 l 250 1031 z "},"Ü":{"ha":922,"x_min":63,"x_max":863,"o":"m 457 -17 q 233 38 321 -17 q 104 182 146 92 q 63 382 63 272 l 63 972 l 281 972 l 281 381 q 326 235 281 286 q 461 185 372 185 q 597 235 549 185 q 644 381 644 286 l 644 972 l 863 972 l 863 382 q 825 192 863 268 q 727 69 788 115 q 595 3 667 24 q 457 -17 524 -17 m 296 1054 q 202 1092 240 1054 q 164 1186 164 1131 q 202 1281 164 1243 q 296 1318 240 1318 q 390 1281 353 1318 q 428 1186 428 1243 q 390 1092 428 1131 q 296 1054 353 1054 m 626 1054 q 533 1092 571 1054 q 494 1186 494 1131 q 533 1281 494 1243 q 626 1318 571 1318 q 721 1281 683 1318 q 758 1186 758 1243 q 721 1092 758 1131 q 626 1054 683 1054 z "},"Ù":{"ha":922,"x_min":63,"x_max":863,"o":"m 457 -17 q 233 38 321 -17 q 104 182 146 92 q 63 382 63 272 l 63 972 l 281 972 l 281 381 q 326 235 281 286 q 461 185 372 185 q 597 235 549 185 q 644 381 644 286 l 644 972 l 863 972 l 863 382 q 825 192 863 268 q 727 69 788 115 q 595 3 667 24 q 457 -17 524 -17 m 626 1026 l 297 1168 l 297 1342 l 626 1176 l 626 1026 z "},"Ű":{"ha":922,"x_min":63,"x_max":863,"o":"m 457 -17 q 233 38 321 -17 q 104 182 146 92 q 63 382 63 272 l 63 972 l 281 972 l 281 381 q 326 235 281 286 q 461 185 372 185 q 597 235 549 185 q 644 381 644 286 l 644 972 l 863 972 l 863 382 q 825 192 863 268 q 727 69 788 115 q 595 3 667 24 q 457 -17 524 -17 m 442 1035 l 563 1311 l 738 1311 l 575 1035 l 442 1035 m 183 1035 l 286 1311 l 460 1311 l 318 1035 l 183 1035 z "},"Ū":{"ha":922,"x_min":63,"x_max":863,"o":"m 457 -17 q 233 38 321 -17 q 104 182 146 92 q 63 382 63 272 l 63 972 l 281 972 l 281 381 q 326 235 281 286 q 461 185 372 185 q 597 235 549 185 q 644 381 644 286 l 644 972 l 863 972 l 863 382 q 825 192 863 268 q 727 69 788 115 q 595 3 667 24 q 457 -17 524 -17 m 203 1075 l 203 1228 l 719 1228 l 719 1075 l 203 1075 z "},"Ų":{"ha":922,"x_min":63,"x_max":863,"o":"m 457 -17 q 233 38 321 -17 q 104 182 146 92 q 63 382 63 272 l 63 972 l 281 972 l 281 381 q 326 235 281 286 q 461 185 372 185 q 597 235 549 185 q 644 381 644 286 l 644 972 l 863 972 l 863 382 q 825 192 863 268 q 727 69 788 115 q 595 3 667 24 q 457 -17 524 -17 m 463 -285 q 322 -248 381 -285 q 264 -132 264 -211 q 310 -19 264 -72 q 481 88 357 33 l 538 113 l 586 14 l 519 -21 q 447 -67 469 -47 q 425 -111 425 -87 q 442 -147 425 -133 q 490 -161 460 -161 q 594 -140 536 -161 l 594 -264 q 533 -278 568 -271 q 463 -285 499 -285 z "},"Ů":{"ha":922,"x_min":63,"x_max":863,"o":"m 457 -17 q 233 38 321 -17 q 104 182 146 92 q 63 382 63 272 l 63 972 l 281 972 l 281 381 q 326 235 281 286 q 461 185 372 185 q 597 235 549 185 q 644 381 644 286 l 644 972 l 863 972 l 863 382 q 825 192 863 268 q 727 69 788 115 q 595 3 667 24 q 457 -17 524 -17 m 458 1033 q 344 1078 393 1033 q 294 1197 294 1122 q 344 1317 294 1274 q 458 1361 393 1361 q 578 1317 529 1361 q 628 1197 628 1274 q 578 1078 628 1122 q 458 1033 529 1033 m 458 1128 q 510 1147 490 1128 q 529 1197 529 1167 q 510 1249 529 1229 q 458 1268 490 1268 q 413 1249 432 1268 q 393 1197 393 1229 q 413 1147 393 1167 q 458 1128 432 1128 z "},"Ũ":{"ha":922,"x_min":63,"x_max":863,"o":"m 457 -17 q 233 38 321 -17 q 104 182 146 92 q 63 382 63 272 l 63 972 l 281 972 l 281 381 q 326 235 281 286 q 461 185 372 185 q 597 235 549 185 q 644 381 644 286 l 644 972 l 863 972 l 863 382 q 825 192 863 268 q 727 69 788 115 q 595 3 667 24 q 457 -17 524 -17 m 544 1040 q 479 1056 506 1040 q 429 1088 453 1072 q 372 1104 406 1104 q 315 1042 326 1104 l 208 1042 q 268 1188 224 1142 q 379 1235 313 1235 q 445 1219 419 1235 q 494 1188 471 1203 q 550 1172 518 1172 q 588 1188 574 1172 q 607 1235 603 1203 l 714 1235 q 655 1086 700 1132 q 544 1040 610 1040 z "},"V":{"ha":953,"x_min":-8,"x_max":963,"o":"m 340 0 l -8 972 l 224 972 l 478 221 l 732 972 l 963 972 l 613 0 l 340 0 z "},"W":{"ha":1385,"x_min":7,"x_max":1379,"o":"m 338 0 l 7 972 l 231 972 l 471 207 l 546 467 l 368 972 l 588 972 l 694 635 l 799 972 l 1019 972 l 840 467 l 914 207 l 1156 972 l 1379 972 l 1049 0 l 785 0 l 694 293 l 600 0 l 338 0 z "},"Ẃ":{"ha":1385,"x_min":7,"x_max":1379,"o":"m 338 0 l 7 972 l 231 972 l 471 207 l 546 467 l 368 972 l 588 972 l 694 635 l 799 972 l 1019 972 l 840 467 l 914 207 l 1156 972 l 1379 972 l 1049 0 l 785 0 l 694 293 l 600 0 l 338 0 m 528 1026 l 528 1176 l 857 1342 l 857 1168 l 528 1026 z "},"Ŵ":{"ha":1385,"x_min":7,"x_max":1379,"o":"m 338 0 l 7 972 l 231 972 l 471 207 l 546 467 l 368 972 l 588 972 l 694 635 l 799 972 l 1019 972 l 840 467 l 914 207 l 1156 972 l 1379 972 l 1049 0 l 785 0 l 694 293 l 600 0 l 338 0 m 482 1031 l 482 1182 l 693 1292 l 904 1182 l 904 1031 l 693 1142 l 482 1031 z "},"Ẅ":{"ha":1385,"x_min":7,"x_max":1379,"o":"m 338 0 l 7 972 l 231 972 l 471 207 l 546 467 l 368 972 l 588 972 l 694 635 l 799 972 l 1019 972 l 840 467 l 914 207 l 1156 972 l 1379 972 l 1049 0 l 785 0 l 694 293 l 600 0 l 338 0 m 528 1054 q 434 1092 472 1054 q 396 1186 396 1131 q 434 1281 396 1243 q 528 1318 472 1318 q 622 1281 585 1318 q 660 1186 660 1243 q 622 1092 660 1131 q 528 1054 585 1054 m 858 1054 q 765 1092 803 1054 q 726 1186 726 1131 q 765 1281 726 1243 q 858 1318 803 1318 q 953 1281 915 1318 q 990 1186 990 1243 q 953 1092 990 1131 q 858 1054 915 1054 z "},"Ẁ":{"ha":1385,"x_min":7,"x_max":1379,"o":"m 338 0 l 7 972 l 231 972 l 471 207 l 546 467 l 368 972 l 588 972 l 694 635 l 799 972 l 1019 972 l 840 467 l 914 207 l 1156 972 l 1379 972 l 1049 0 l 785 0 l 694 293 l 600 0 l 338 0 m 858 1026 l 529 1168 l 529 1342 l 858 1176 l 858 1026 z "},"X":{"ha":922,"x_min":25,"x_max":904,"o":"m 25 0 l 333 533 l 74 972 l 322 972 l 464 733 l 596 972 l 843 972 l 588 533 l 904 0 l 656 0 l 458 333 l 271 0 l 25 0 z "},"Y":{"ha":864,"x_min":-10,"x_max":874,"o":"m 324 0 l 324 404 l -10 972 l 239 972 l 435 626 l 629 972 l 874 972 l 542 404 l 542 0 l 324 0 z "},"Ý":{"ha":864,"x_min":-10,"x_max":874,"o":"m 324 0 l 324 404 l -10 972 l 239 972 l 435 626 l 629 972 l 874 972 l 542 404 l 542 0 l 324 0 m 267 1026 l 267 1176 l 596 1342 l 596 1168 l 267 1026 z "},"Ŷ":{"ha":864,"x_min":-10,"x_max":874,"o":"m 324 0 l 324 404 l -10 972 l 239 972 l 435 626 l 629 972 l 874 972 l 542 404 l 542 0 l 324 0 m 221 1031 l 221 1182 l 432 1292 l 643 1182 l 643 1031 l 432 1142 l 221 1031 z "},"Ÿ":{"ha":864,"x_min":-10,"x_max":874,"o":"m 324 0 l 324 404 l -10 972 l 239 972 l 435 626 l 629 972 l 874 972 l 542 404 l 542 0 l 324 0 m 267 1054 q 173 1092 211 1054 q 135 1186 135 1131 q 173 1281 135 1243 q 267 1318 211 1318 q 361 1281 324 1318 q 399 1186 399 1243 q 361 1092 399 1131 q 267 1054 324 1054 m 597 1054 q 503 1092 542 1054 q 465 1186 465 1131 q 503 1281 465 1243 q 597 1318 542 1318 q 692 1281 654 1318 q 729 1186 729 1243 q 692 1092 729 1131 q 597 1054 654 1054 z "},"Ỳ":{"ha":864,"x_min":-10,"x_max":874,"o":"m 324 0 l 324 404 l -10 972 l 239 972 l 435 626 l 629 972 l 874 972 l 542 404 l 542 0 l 324 0 m 597 1026 l 268 1168 l 268 1342 l 597 1176 l 597 1026 z "},"Ỹ":{"ha":864,"x_min":-10,"x_max":874,"o":"m 324 0 l 324 404 l -10 972 l 239 972 l 435 626 l 629 972 l 874 972 l 542 404 l 542 0 l 324 0 m 515 1040 q 450 1056 476 1040 q 400 1088 424 1072 q 343 1104 376 1104 q 286 1042 297 1104 l 179 1042 q 239 1188 194 1142 q 350 1235 283 1235 q 416 1219 390 1235 q 465 1188 442 1203 q 521 1172 489 1172 q 559 1188 544 1172 q 578 1235 574 1203 l 685 1235 q 626 1086 671 1132 q 515 1040 581 1040 z "},"Z":{"ha":768,"x_min":44,"x_max":724,"o":"m 44 0 l 44 165 l 468 790 l 47 790 l 47 972 l 722 972 l 722 807 l 296 185 l 724 185 l 724 0 l 44 0 z "},"Ź":{"ha":768,"x_min":44,"x_max":724,"o":"m 44 0 l 44 165 l 468 790 l 47 790 l 47 972 l 722 972 l 722 807 l 296 185 l 724 185 l 724 0 l 44 0 m 219 1026 l 219 1176 l 549 1342 l 549 1168 l 219 1026 z "},"Ž":{"ha":768,"x_min":44,"x_max":724,"o":"m 44 0 l 44 165 l 468 790 l 47 790 l 47 972 l 722 972 l 722 807 l 296 185 l 724 185 l 724 0 l 44 0 m 385 1029 l 174 1138 l 174 1290 l 385 1172 l 596 1290 l 596 1138 l 385 1029 z "},"Ż":{"ha":768,"x_min":44,"x_max":724,"o":"m 44 0 l 44 165 l 468 790 l 47 790 l 47 972 l 722 972 l 722 807 l 296 185 l 724 185 l 724 0 l 44 0 m 385 1054 q 294 1092 333 1054 q 254 1186 254 1131 q 294 1281 254 1243 q 385 1318 333 1318 q 481 1281 442 1318 q 519 1186 519 1243 q 481 1092 519 1131 q 385 1054 442 1054 z "},"Ꞌ":{"ha":388,"x_min":76,"x_max":310,"o":"m 100 293 l 76 972 l 310 972 l 285 293 l 100 293 z "},"a":{"ha":761,"x_min":25,"x_max":747,"o":"m 250 -17 q 139 8 190 -17 q 56 78 88 32 q 25 192 25 125 q 65 316 25 268 q 173 386 106 364 q 321 408 240 408 l 476 408 q 464 472 476 444 q 426 516 451 500 q 364 532 401 532 q 293 515 325 532 q 253 458 261 499 l 46 458 q 97 590 51 535 q 215 675 143 644 q 368 706 286 706 q 537 670 464 706 q 650 569 610 635 q 690 410 690 503 l 690 233 q 699 186 690 203 q 747 169 708 169 l 747 0 q 636 8 681 0 q 561 40 592 17 q 506 107 531 63 q 397 15 460 46 q 250 -17 335 -17 m 325 147 q 399 165 365 147 q 454 214 433 182 q 475 286 475 246 l 475 294 l 343 294 q 292 287 315 294 q 254 263 268 279 q 240 219 240 247 q 267 163 240 179 q 325 147 293 147 z "},"á":{"ha":761,"x_min":25,"x_max":747,"o":"m 250 -17 q 139 8 190 -17 q 56 78 88 32 q 25 192 25 125 q 65 316 25 268 q 173 386 106 364 q 321 408 240 408 l 476 408 q 464 472 476 444 q 426 516 451 500 q 364 532 401 532 q 293 515 325 532 q 253 458 261 499 l 46 458 q 97 590 51 535 q 215 675 143 644 q 368 706 286 706 q 537 670 464 706 q 650 569 610 635 q 690 410 690 503 l 690 233 q 699 186 690 203 q 747 169 708 169 l 747 0 q 636 8 681 0 q 561 40 592 17 q 506 107 531 63 q 397 15 460 46 q 250 -17 335 -17 m 325 147 q 399 165 365 147 q 454 214 433 182 q 475 286 475 246 l 475 294 l 343 294 q 292 287 315 294 q 254 263 268 279 q 240 219 240 247 q 267 163 240 179 q 325 147 293 147 m 203 732 l 203 882 l 532 1047 l 532 874 l 203 732 z "},"ă":{"ha":761,"x_min":25,"x_max":747,"o":"m 250 -17 q 139 8 190 -17 q 56 78 88 32 q 25 192 25 125 q 65 316 25 268 q 173 386 106 364 q 321 408 240 408 l 476 408 q 464 472 476 444 q 426 516 451 500 q 364 532 401 532 q 293 515 325 532 q 253 458 261 499 l 46 458 q 97 590 51 535 q 215 675 143 644 q 368 706 286 706 q 537 670 464 706 q 650 569 610 635 q 690 410 690 503 l 690 233 q 699 186 690 203 q 747 169 708 169 l 747 0 q 636 8 681 0 q 561 40 592 17 q 506 107 531 63 q 397 15 460 46 q 250 -17 335 -17 m 325 147 q 399 165 365 147 q 454 214 433 182 q 475 286 475 246 l 475 294 l 343 294 q 292 287 315 294 q 254 263 268 279 q 240 219 240 247 q 267 163 240 179 q 325 147 293 147 m 367 750 q 201 809 264 750 q 138 978 138 868 l 138 1003 l 249 1003 q 274 933 249 958 q 367 908 300 908 q 462 933 436 908 q 488 1003 488 958 l 597 1003 l 597 976 q 533 808 597 867 q 367 750 469 750 z "},"ǎ":{"ha":761,"x_min":25,"x_max":747,"o":"m 250 -17 q 139 8 190 -17 q 56 78 88 32 q 25 192 25 125 q 65 316 25 268 q 173 386 106 364 q 321 408 240 408 l 476 408 q 464 472 476 444 q 426 516 451 500 q 364 532 401 532 q 293 515 325 532 q 253 458 261 499 l 46 458 q 97 590 51 535 q 215 675 143 644 q 368 706 286 706 q 537 670 464 706 q 650 569 610 635 q 690 410 690 503 l 690 233 q 699 186 690 203 q 747 169 708 169 l 747 0 q 636 8 681 0 q 561 40 592 17 q 506 107 531 63 q 397 15 460 46 q 250 -17 335 -17 m 325 147 q 399 165 365 147 q 454 214 433 182 q 475 286 475 246 l 475 294 l 343 294 q 292 287 315 294 q 254 263 268 279 q 240 219 240 247 q 267 163 240 179 q 325 147 293 147 m 368 747 l 157 856 l 157 1008 l 368 890 l 579 1008 l 579 856 l 368 747 z "},"â":{"ha":761,"x_min":25,"x_max":747,"o":"m 250 -17 q 139 8 190 -17 q 56 78 88 32 q 25 192 25 125 q 65 316 25 268 q 173 386 106 364 q 321 408 240 408 l 476 408 q 464 472 476 444 q 426 516 451 500 q 364 532 401 532 q 293 515 325 532 q 253 458 261 499 l 46 458 q 97 590 51 535 q 215 675 143 644 q 368 706 286 706 q 537 670 464 706 q 650 569 610 635 q 690 410 690 503 l 690 233 q 699 186 690 203 q 747 169 708 169 l 747 0 q 636 8 681 0 q 561 40 592 17 q 506 107 531 63 q 397 15 460 46 q 250 -17 335 -17 m 325 147 q 399 165 365 147 q 454 214 433 182 q 475 286 475 246 l 475 294 l 343 294 q 292 287 315 294 q 254 263 268 279 q 240 219 240 247 q 267 163 240 179 q 325 147 293 147 m 157 747 l 157 899 l 368 1008 l 579 899 l 579 747 l 368 858 l 157 747 z "},"ä":{"ha":761,"x_min":25,"x_max":747,"o":"m 250 -17 q 139 8 190 -17 q 56 78 88 32 q 25 192 25 125 q 65 316 25 268 q 173 386 106 364 q 321 408 240 408 l 476 408 q 464 472 476 444 q 426 516 451 500 q 364 532 401 532 q 293 515 325 532 q 253 458 261 499 l 46 458 q 97 590 51 535 q 215 675 143 644 q 368 706 286 706 q 537 670 464 706 q 650 569 610 635 q 690 410 690 503 l 690 233 q 699 186 690 203 q 747 169 708 169 l 747 0 q 636 8 681 0 q 561 40 592 17 q 506 107 531 63 q 397 15 460 46 q 250 -17 335 -17 m 325 147 q 399 165 365 147 q 454 214 433 182 q 475 286 475 246 l 475 294 l 343 294 q 292 287 315 294 q 254 263 268 279 q 240 219 240 247 q 267 163 240 179 q 325 147 293 147 m 203 750 q 109 788 147 750 q 71 882 71 826 q 109 976 71 939 q 203 1014 147 1014 q 297 976 260 1014 q 335 882 335 939 q 297 788 335 826 q 203 750 260 750 m 533 750 q 440 788 478 750 q 401 882 401 826 q 440 976 401 939 q 533 1014 478 1014 q 628 976 590 1014 q 665 882 665 939 q 628 788 665 826 q 533 750 590 750 z "},"à":{"ha":761,"x_min":25,"x_max":747,"o":"m 250 -17 q 139 8 190 -17 q 56 78 88 32 q 25 192 25 125 q 65 316 25 268 q 173 386 106 364 q 321 408 240 408 l 476 408 q 464 472 476 444 q 426 516 451 500 q 364 532 401 532 q 293 515 325 532 q 253 458 261 499 l 46 458 q 97 590 51 535 q 215 675 143 644 q 368 706 286 706 q 537 670 464 706 q 650 569 610 635 q 690 410 690 503 l 690 233 q 699 186 690 203 q 747 169 708 169 l 747 0 q 636 8 681 0 q 561 40 592 17 q 506 107 531 63 q 397 15 460 46 q 250 -17 335 -17 m 325 147 q 399 165 365 147 q 454 214 433 182 q 475 286 475 246 l 475 294 l 343 294 q 292 287 315 294 q 254 263 268 279 q 240 219 240 247 q 267 163 240 179 q 325 147 293 147 m 532 732 l 203 874 l 203 1047 l 532 882 l 532 732 z "},"ā":{"ha":761,"x_min":25,"x_max":747,"o":"m 250 -17 q 139 8 190 -17 q 56 78 88 32 q 25 192 25 125 q 65 316 25 268 q 173 386 106 364 q 321 408 240 408 l 476 408 q 464 472 476 444 q 426 516 451 500 q 364 532 401 532 q 293 515 325 532 q 253 458 261 499 l 46 458 q 97 590 51 535 q 215 675 143 644 q 368 706 286 706 q 537 670 464 706 q 650 569 610 635 q 690 410 690 503 l 690 233 q 699 186 690 203 q 747 169 708 169 l 747 0 q 636 8 681 0 q 561 40 592 17 q 506 107 531 63 q 397 15 460 46 q 250 -17 335 -17 m 325 147 q 399 165 365 147 q 454 214 433 182 q 475 286 475 246 l 475 294 l 343 294 q 292 287 315 294 q 254 263 268 279 q 240 219 240 247 q 267 163 240 179 q 325 147 293 147 m 110 806 l 110 958 l 626 958 l 626 806 l 110 806 z "},"ą":{"ha":761,"x_min":25,"x_max":756,"o":"m 250 -17 q 139 8 190 -17 q 56 78 88 32 q 25 192 25 125 q 65 316 25 268 q 173 386 106 364 q 321 408 240 408 l 476 408 q 464 472 476 444 q 426 516 451 500 q 364 532 401 532 q 293 515 325 532 q 253 458 261 499 l 46 458 q 97 590 51 535 q 215 675 143 644 q 368 706 286 706 q 537 670 464 706 q 650 569 610 635 q 690 410 690 503 l 690 233 q 699 186 690 203 q 747 169 708 169 l 747 0 q 636 8 681 0 q 561 40 592 17 q 506 107 531 63 q 397 15 460 46 q 250 -17 335 -17 m 325 147 q 399 165 365 147 q 454 214 433 182 q 475 286 475 246 l 475 294 l 343 294 q 292 287 315 294 q 254 263 268 279 q 240 219 240 247 q 267 163 240 179 q 325 147 293 147 m 624 -299 q 483 -262 542 -299 q 425 -146 425 -225 q 472 -33 425 -86 q 642 74 518 19 l 699 99 l 747 0 l 681 -35 q 608 -81 631 -61 q 586 -125 586 -101 q 603 -161 586 -147 q 651 -175 621 -175 q 756 -154 697 -175 l 756 -278 q 694 -292 729 -285 q 624 -299 660 -299 z "},"å":{"ha":761,"x_min":25,"x_max":747,"o":"m 250 -17 q 139 8 190 -17 q 56 78 88 32 q 25 192 25 125 q 65 316 25 268 q 173 386 106 364 q 321 408 240 408 l 476 408 q 464 472 476 444 q 426 516 451 500 q 364 532 401 532 q 293 515 325 532 q 253 458 261 499 l 46 458 q 97 590 51 535 q 215 675 143 644 q 368 706 286 706 q 537 670 464 706 q 650 569 610 635 q 690 410 690 503 l 690 233 q 699 186 690 203 q 747 169 708 169 l 747 0 q 636 8 681 0 q 561 40 592 17 q 506 107 531 63 q 397 15 460 46 q 250 -17 335 -17 m 325 147 q 399 165 365 147 q 454 214 433 182 q 475 286 475 246 l 475 294 l 343 294 q 292 287 315 294 q 254 263 268 279 q 240 219 240 247 q 267 163 240 179 q 325 147 293 147 m 365 750 q 251 794 300 750 q 201 914 201 839 q 251 1034 201 990 q 365 1078 300 1078 q 485 1034 436 1078 q 535 914 535 990 q 485 794 535 839 q 365 750 436 750 m 365 844 q 417 864 397 844 q 436 914 436 883 q 417 965 436 946 q 365 985 397 985 q 319 965 339 985 q 300 914 300 946 q 319 864 300 883 q 365 844 339 844 z "},"ã":{"ha":761,"x_min":25,"x_max":747,"o":"m 250 -17 q 139 8 190 -17 q 56 78 88 32 q 25 192 25 125 q 65 316 25 268 q 173 386 106 364 q 321 408 240 408 l 476 408 q 464 472 476 444 q 426 516 451 500 q 364 532 401 532 q 293 515 325 532 q 253 458 261 499 l 46 458 q 97 590 51 535 q 215 675 143 644 q 368 706 286 706 q 537 670 464 706 q 650 569 610 635 q 690 410 690 503 l 690 233 q 699 186 690 203 q 747 169 708 169 l 747 0 q 636 8 681 0 q 561 40 592 17 q 506 107 531 63 q 397 15 460 46 q 250 -17 335 -17 m 325 147 q 399 165 365 147 q 454 214 433 182 q 475 286 475 246 l 475 294 l 343 294 q 292 287 315 294 q 254 263 268 279 q 240 219 240 247 q 267 163 240 179 q 325 147 293 147 m 451 782 q 386 798 413 782 q 336 830 360 814 q 279 846 313 846 q 242 831 256 846 q 222 783 228 815 l 115 783 q 175 930 131 883 q 286 976 219 976 q 352 960 326 976 q 401 929 378 944 q 457 914 425 914 q 495 929 481 914 q 514 976 510 944 l 621 976 q 562 828 607 874 q 451 782 517 782 z "},"æ":{"ha":1199,"x_min":24,"x_max":1179,"o":"m 281 -17 q 145 7 203 -17 q 56 76 88 31 q 24 189 24 122 q 65 313 24 265 q 173 383 106 361 q 321 406 240 406 l 476 406 q 449 497 476 463 q 364 532 421 532 q 293 515 325 532 q 253 458 261 499 l 46 458 q 97 590 51 535 q 215 675 143 644 q 368 706 286 706 q 496 686 438 706 q 597 631 554 667 q 703 686 644 667 q 829 706 761 706 q 1010 663 932 706 q 1134 542 1089 621 q 1179 356 1179 464 q 1178 326 1179 342 q 1175 293 1178 310 l 689 293 q 713 214 693 243 q 763 172 733 185 q 822 158 793 158 q 890 175 863 158 q 933 226 918 192 l 1163 226 q 1101 106 1147 161 q 987 17 1056 50 q 829 -17 918 -17 q 678 12 749 -17 q 560 96 608 40 q 438 10 510 38 q 281 -17 367 -17 m 325 144 q 399 162 365 144 q 454 211 433 179 q 475 283 475 243 l 475 292 l 343 292 q 270 274 300 292 q 240 217 240 257 q 267 160 240 176 q 325 144 293 144 m 689 413 l 958 413 q 921 501 958 469 q 826 533 883 533 q 735 501 771 533 q 689 413 699 468 z "},"ǽ":{"ha":1199,"x_min":24,"x_max":1179,"o":"m 281 -17 q 145 7 203 -17 q 56 76 88 31 q 24 189 24 122 q 65 313 24 265 q 173 383 106 361 q 321 406 240 406 l 476 406 q 449 497 476 463 q 364 532 421 532 q 293 515 325 532 q 253 458 261 499 l 46 458 q 97 590 51 535 q 215 675 143 644 q 368 706 286 706 q 496 686 438 706 q 597 631 554 667 q 703 686 644 667 q 829 706 761 706 q 1010 663 932 706 q 1134 542 1089 621 q 1179 356 1179 464 q 1178 326 1179 342 q 1175 293 1178 310 l 689 293 q 713 214 693 243 q 763 172 733 185 q 822 158 793 158 q 890 175 863 158 q 933 226 918 192 l 1163 226 q 1101 106 1147 161 q 987 17 1056 50 q 829 -17 918 -17 q 678 12 749 -17 q 560 96 608 40 q 438 10 510 38 q 281 -17 367 -17 m 325 144 q 399 162 365 144 q 454 211 433 179 q 475 283 475 243 l 475 292 l 343 292 q 270 274 300 292 q 240 217 240 257 q 267 160 240 176 q 325 144 293 144 m 689 413 l 958 413 q 921 501 958 469 q 826 533 883 533 q 735 501 771 533 q 689 413 699 468 m 435 732 l 435 882 l 764 1047 l 764 874 l 435 732 z "},"b":{"ha":804,"x_min":40,"x_max":782,"o":"m 472 -17 q 349 10 407 -17 q 256 92 290 36 l 256 0 l 40 0 l 40 972 l 256 972 l 256 596 q 348 678 289 650 q 472 706 407 706 q 633 659 564 706 q 742 531 703 613 q 782 346 782 450 q 744 163 782 246 q 638 32 707 81 q 472 -17 568 -17 m 408 171 q 489 193 454 171 q 543 255 524 215 q 563 346 563 294 q 541 441 563 403 q 485 499 519 479 q 408 518 450 518 q 331 497 365 518 q 275 438 296 476 q 254 344 254 399 q 274 255 254 294 q 328 193 293 215 q 408 171 364 171 z "},"c":{"ha":736,"x_min":22,"x_max":713,"o":"m 375 -17 q 192 28 271 -17 q 67 153 113 72 q 22 344 22 235 q 65 531 22 450 q 188 659 108 613 q 375 706 267 706 q 589 642 497 706 q 713 442 681 579 l 483 442 q 441 502 469 482 q 371 522 413 522 q 297 497 325 522 q 255 432 268 472 q 242 344 242 392 q 255 258 242 299 q 297 192 268 217 q 371 167 325 167 q 441 188 413 167 q 483 247 469 208 l 713 247 q 646 104 693 163 q 530 15 599 46 q 375 -17 461 -17 z "},"ć":{"ha":736,"x_min":22,"x_max":713,"o":"m 375 -17 q 192 28 271 -17 q 67 153 113 72 q 22 344 22 235 q 65 531 22 450 q 188 659 108 613 q 375 706 267 706 q 589 642 497 706 q 713 442 681 579 l 483 442 q 441 502 469 482 q 371 522 413 522 q 297 497 325 522 q 255 432 268 472 q 242 344 242 392 q 255 258 242 299 q 297 192 268 217 q 371 167 325 167 q 441 188 413 167 q 483 247 469 208 l 713 247 q 646 104 693 163 q 530 15 599 46 q 375 -17 461 -17 m 204 732 l 204 882 l 533 1047 l 533 874 l 204 732 z "},"č":{"ha":736,"x_min":22,"x_max":713,"o":"m 375 -17 q 192 28 271 -17 q 67 153 113 72 q 22 344 22 235 q 65 531 22 450 q 188 659 108 613 q 375 706 267 706 q 589 642 497 706 q 713 442 681 579 l 483 442 q 441 502 469 482 q 371 522 413 522 q 297 497 325 522 q 255 432 268 472 q 242 344 242 392 q 255 258 242 299 q 297 192 268 217 q 371 167 325 167 q 441 188 413 167 q 483 247 469 208 l 713 247 q 646 104 693 163 q 530 15 599 46 q 375 -17 461 -17 m 369 747 l 158 856 l 158 1008 l 369 890 l 581 1008 l 581 856 l 369 747 z "},"ç":{"ha":736,"x_min":22,"x_max":713,"o":"m 375 -17 q 192 28 271 -17 q 67 153 113 72 q 22 344 22 235 q 65 531 22 450 q 188 659 108 613 q 375 706 267 706 q 589 642 497 706 q 713 442 681 579 l 483 442 q 441 502 469 482 q 371 522 413 522 q 297 497 325 522 q 255 432 268 472 q 242 344 242 392 q 255 258 242 299 q 297 192 268 217 q 371 167 325 167 q 441 188 413 167 q 483 247 469 208 l 713 247 q 646 104 693 163 q 530 15 599 46 q 375 -17 461 -17 m 225 -369 l 225 -247 l 399 -247 q 458 -208 458 -247 q 399 -168 458 -168 l 303 -168 l 303 24 l 436 24 l 436 -57 q 524 -72 482 -56 q 592 -124 565 -89 q 618 -211 618 -158 q 590 -300 618 -265 q 519 -352 563 -335 q 429 -369 476 -369 l 225 -369 z "},"ċ":{"ha":736,"x_min":22,"x_max":713,"o":"m 375 -17 q 192 28 271 -17 q 67 153 113 72 q 22 344 22 235 q 65 531 22 450 q 188 659 108 613 q 375 706 267 706 q 589 642 497 706 q 713 442 681 579 l 483 442 q 441 502 469 482 q 371 522 413 522 q 297 497 325 522 q 255 432 268 472 q 242 344 242 392 q 255 258 242 299 q 297 192 268 217 q 371 167 325 167 q 441 188 413 167 q 483 247 469 208 l 713 247 q 646 104 693 163 q 530 15 599 46 q 375 -17 461 -17 m 367 750 q 276 788 315 750 q 236 882 236 826 q 276 976 236 939 q 367 1014 315 1014 q 463 976 424 1014 q 501 882 501 939 q 463 788 501 826 q 367 750 424 750 z "},"d":{"ha":806,"x_min":22,"x_max":764,"o":"m 332 -17 q 165 33 235 -17 q 59 166 96 83 q 22 346 22 249 q 60 525 22 443 q 167 656 97 607 q 332 706 236 706 q 456 678 397 706 q 549 599 514 651 l 549 972 l 764 972 l 764 0 l 549 0 l 549 94 q 457 10 514 38 q 332 -17 400 -17 m 394 171 q 472 192 438 171 q 528 252 507 213 q 549 344 549 292 q 529 435 549 396 q 475 496 510 474 q 394 518 440 518 q 324 501 360 518 q 265 447 289 485 q 242 346 242 408 q 260 258 242 297 q 313 194 279 218 q 394 171 347 171 z "},"ď":{"ha":806,"x_min":22,"x_max":1078,"o":"m 332 -17 q 165 33 235 -17 q 59 166 96 83 q 22 346 22 249 q 60 525 22 443 q 167 656 97 607 q 332 706 236 706 q 456 678 397 706 q 549 599 514 651 l 549 972 l 764 972 l 764 0 l 549 0 l 549 94 q 457 10 514 38 q 332 -17 400 -17 m 394 171 q 472 192 438 171 q 528 252 507 213 q 549 344 549 292 q 529 435 549 396 q 475 496 510 474 q 394 518 440 518 q 324 501 360 518 q 265 447 289 485 q 242 346 242 408 q 260 258 242 297 q 313 194 279 218 q 394 171 347 171 m 813 758 l 879 972 l 1078 972 l 950 758 l 813 758 z "},"đ":{"ha":804,"x_min":22,"x_max":817,"o":"m 332 -17 q 165 33 235 -17 q 59 166 96 83 q 22 346 22 249 q 60 525 22 443 q 167 656 97 607 q 332 706 236 706 q 456 678 397 706 q 549 599 514 651 l 549 761 l 339 761 l 339 914 l 549 914 l 549 972 l 764 972 l 764 914 l 817 914 l 817 761 l 764 761 l 764 0 l 549 0 l 549 94 q 457 10 514 38 q 332 -17 400 -17 m 242 346 q 260 258 242 297 q 313 194 279 218 q 394 171 347 171 q 472 192 438 171 q 528 252 507 213 q 549 344 549 292 q 529 435 549 396 q 475 496 510 474 q 394 518 440 518 q 324 501 360 518 q 265 447 289 485 q 242 346 242 408 z "},"ð":{"ha":821,"x_min":22,"x_max":799,"o":"m 404 -17 q 208 31 294 -17 q 72 158 121 78 q 35 244 49 199 q 22 340 22 289 q 72 522 22 443 q 201 649 121 601 q 389 694 283 694 q 475 685 436 694 q 557 658 514 675 q 530 722 546 689 q 499 785 514 754 l 332 733 l 332 858 l 422 886 q 381 931 403 910 q 338 972 360 953 l 540 972 q 558 954 549 963 q 578 935 568 946 l 739 986 l 739 860 l 661 836 q 765 621 731 733 q 799 417 799 508 q 746 185 799 282 q 603 36 693 88 q 404 -17 515 -17 m 411 175 q 497 194 460 175 q 555 251 533 214 q 576 342 576 289 q 548 447 576 410 q 481 497 519 483 q 410 511 442 511 q 328 492 365 511 q 270 435 292 472 q 249 347 249 399 q 267 265 249 304 q 323 200 286 225 q 411 175 360 175 z "},"e":{"ha":746,"x_min":22,"x_max":726,"o":"m 376 -17 q 200 24 281 -17 q 71 146 119 65 q 22 344 22 226 q 69 543 22 463 q 197 665 117 624 q 376 706 278 706 q 558 663 479 706 q 681 542 636 621 q 726 356 726 464 q 726 326 726 342 q 722 293 725 310 l 236 293 q 260 214 240 243 q 310 172 281 185 q 369 158 340 158 q 438 175 410 158 q 481 226 465 192 l 710 226 q 649 106 694 161 q 534 17 603 50 q 376 -17 465 -17 m 236 413 l 506 413 q 468 501 506 469 q 374 533 431 533 q 282 501 318 533 q 236 413 246 468 z "},"é":{"ha":746,"x_min":22,"x_max":726,"o":"m 376 -17 q 200 24 281 -17 q 71 146 119 65 q 22 344 22 226 q 69 543 22 463 q 197 665 117 624 q 376 706 278 706 q 558 663 479 706 q 681 542 636 621 q 726 356 726 464 q 726 326 726 342 q 722 293 725 310 l 236 293 q 260 214 240 243 q 310 172 281 185 q 369 158 340 158 q 438 175 410 158 q 481 226 465 192 l 710 226 q 649 106 694 161 q 534 17 603 50 q 376 -17 465 -17 m 236 413 l 506 413 q 468 501 506 469 q 374 533 431 533 q 282 501 318 533 q 236 413 246 468 m 208 732 l 208 882 l 538 1047 l 538 874 l 208 732 z "},"ĕ":{"ha":746,"x_min":22,"x_max":726,"o":"m 376 -17 q 200 24 281 -17 q 71 146 119 65 q 22 344 22 226 q 69 543 22 463 q 197 665 117 624 q 376 706 278 706 q 558 663 479 706 q 681 542 636 621 q 726 356 726 464 q 726 326 726 342 q 722 293 725 310 l 236 293 q 260 214 240 243 q 310 172 281 185 q 369 158 340 158 q 438 175 410 158 q 481 226 465 192 l 710 226 q 649 106 694 161 q 534 17 603 50 q 376 -17 465 -17 m 236 413 l 506 413 q 468 501 506 469 q 374 533 431 533 q 282 501 318 533 q 236 413 246 468 m 372 750 q 206 809 269 750 q 143 978 143 868 l 143 1003 l 254 1003 q 280 933 254 958 q 372 908 306 908 q 467 933 442 908 q 493 1003 493 958 l 603 1003 l 603 976 q 539 808 603 867 q 372 750 475 750 z "},"ě":{"ha":746,"x_min":22,"x_max":726,"o":"m 376 -17 q 200 24 281 -17 q 71 146 119 65 q 22 344 22 226 q 69 543 22 463 q 197 665 117 624 q 376 706 278 706 q 558 663 479 706 q 681 542 636 621 q 726 356 726 464 q 726 326 726 342 q 722 293 725 310 l 236 293 q 260 214 240 243 q 310 172 281 185 q 369 158 340 158 q 438 175 410 158 q 481 226 465 192 l 710 226 q 649 106 694 161 q 534 17 603 50 q 376 -17 465 -17 m 236 413 l 506 413 q 468 501 506 469 q 374 533 431 533 q 282 501 318 533 q 236 413 246 468 m 374 747 l 163 856 l 163 1008 l 374 890 l 585 1008 l 585 856 l 374 747 z "},"ê":{"ha":746,"x_min":22,"x_max":726,"o":"m 376 -17 q 200 24 281 -17 q 71 146 119 65 q 22 344 22 226 q 69 543 22 463 q 197 665 117 624 q 376 706 278 706 q 558 663 479 706 q 681 542 636 621 q 726 356 726 464 q 726 326 726 342 q 722 293 725 310 l 236 293 q 260 214 240 243 q 310 172 281 185 q 369 158 340 158 q 438 175 410 158 q 481 226 465 192 l 710 226 q 649 106 694 161 q 534 17 603 50 q 376 -17 465 -17 m 236 413 l 506 413 q 468 501 506 469 q 374 533 431 533 q 282 501 318 533 q 236 413 246 468 m 163 747 l 163 899 l 374 1008 l 585 899 l 585 747 l 374 858 l 163 747 z "},"ë":{"ha":746,"x_min":22,"x_max":726,"o":"m 376 -17 q 200 24 281 -17 q 71 146 119 65 q 22 344 22 226 q 69 543 22 463 q 197 665 117 624 q 376 706 278 706 q 558 663 479 706 q 681 542 636 621 q 726 356 726 464 q 726 326 726 342 q 722 293 725 310 l 236 293 q 260 214 240 243 q 310 172 281 185 q 369 158 340 158 q 438 175 410 158 q 481 226 465 192 l 710 226 q 649 106 694 161 q 534 17 603 50 q 376 -17 465 -17 m 236 413 l 506 413 q 468 501 506 469 q 374 533 431 533 q 282 501 318 533 q 236 413 246 468 m 208 750 q 115 788 153 750 q 76 882 76 826 q 115 976 76 939 q 208 1014 153 1014 q 303 976 265 1014 q 340 882 340 939 q 303 788 340 826 q 208 750 265 750 m 539 750 q 445 788 483 750 q 407 882 407 826 q 445 976 407 939 q 539 1014 483 1014 q 633 976 596 1014 q 671 882 671 939 q 633 788 671 826 q 539 750 596 750 z "},"ė":{"ha":746,"x_min":22,"x_max":726,"o":"m 376 -17 q 200 24 281 -17 q 71 146 119 65 q 22 344 22 226 q 69 543 22 463 q 197 665 117 624 q 376 706 278 706 q 558 663 479 706 q 681 542 636 621 q 726 356 726 464 q 726 326 726 342 q 722 293 725 310 l 236 293 q 260 214 240 243 q 310 172 281 185 q 369 158 340 158 q 438 175 410 158 q 481 226 465 192 l 710 226 q 649 106 694 161 q 534 17 603 50 q 376 -17 465 -17 m 236 413 l 506 413 q 468 501 506 469 q 374 533 431 533 q 282 501 318 533 q 236 413 246 468 m 371 750 q 280 788 319 750 q 240 882 240 826 q 280 976 240 939 q 371 1014 319 1014 q 467 976 428 1014 q 506 882 506 939 q 467 788 506 826 q 371 750 428 750 z "},"è":{"ha":746,"x_min":22,"x_max":726,"o":"m 376 -17 q 200 24 281 -17 q 71 146 119 65 q 22 344 22 226 q 69 543 22 463 q 197 665 117 624 q 376 706 278 706 q 558 663 479 706 q 681 542 636 621 q 726 356 726 464 q 726 326 726 342 q 722 293 725 310 l 236 293 q 260 214 240 243 q 310 172 281 185 q 369 158 340 158 q 438 175 410 158 q 481 226 465 192 l 710 226 q 649 106 694 161 q 534 17 603 50 q 376 -17 465 -17 m 236 413 l 506 413 q 468 501 506 469 q 374 533 431 533 q 282 501 318 533 q 236 413 246 468 m 538 732 l 208 874 l 208 1047 l 538 882 l 538 732 z "},"ē":{"ha":746,"x_min":22,"x_max":726,"o":"m 376 -17 q 200 24 281 -17 q 71 146 119 65 q 22 344 22 226 q 69 543 22 463 q 197 665 117 624 q 376 706 278 706 q 558 663 479 706 q 681 542 636 621 q 726 356 726 464 q 726 326 726 342 q 722 293 725 310 l 236 293 q 260 214 240 243 q 310 172 281 185 q 369 158 340 158 q 438 175 410 158 q 481 226 465 192 l 710 226 q 649 106 694 161 q 534 17 603 50 q 376 -17 465 -17 m 236 413 l 506 413 q 468 501 506 469 q 374 533 431 533 q 282 501 318 533 q 236 413 246 468 m 115 806 l 115 958 l 632 958 l 632 806 l 115 806 z "},"ę":{"ha":746,"x_min":22,"x_max":726,"o":"m 376 -17 q 200 24 281 -17 q 71 146 119 65 q 22 344 22 226 q 69 543 22 463 q 197 665 117 624 q 376 706 278 706 q 558 663 479 706 q 681 542 636 621 q 726 356 726 464 q 726 326 726 342 q 722 293 725 310 l 236 293 q 260 214 240 243 q 310 172 281 185 q 369 158 340 158 q 438 175 410 158 q 481 226 465 192 l 710 226 q 649 106 694 161 q 534 17 603 50 q 376 -17 465 -17 m 236 413 l 506 413 q 468 501 506 469 q 374 533 431 533 q 282 501 318 533 q 236 413 246 468 m 403 -285 q 263 -248 321 -285 q 204 -132 204 -211 q 251 -19 204 -72 q 421 88 297 33 l 478 113 l 526 14 l 460 -21 q 388 -67 410 -47 q 365 -111 365 -87 q 383 -147 365 -133 q 431 -161 400 -161 q 535 -140 476 -161 l 535 -264 q 474 -278 508 -271 q 403 -285 439 -285 z "},"ẽ":{"ha":746,"x_min":22,"x_max":726,"o":"m 376 -17 q 200 24 281 -17 q 71 146 119 65 q 22 344 22 226 q 69 543 22 463 q 197 665 117 624 q 376 706 278 706 q 558 663 479 706 q 681 542 636 621 q 726 356 726 464 q 726 326 726 342 q 722 293 725 310 l 236 293 q 260 214 240 243 q 310 172 281 185 q 369 158 340 158 q 438 175 410 158 q 481 226 465 192 l 710 226 q 649 106 694 161 q 534 17 603 50 q 376 -17 465 -17 m 236 413 l 506 413 q 468 501 506 469 q 374 533 431 533 q 282 501 318 533 q 236 413 246 468 m 457 782 q 392 798 418 782 q 342 830 365 814 q 285 846 318 846 q 247 831 261 846 q 228 783 233 815 l 121 783 q 181 930 136 883 q 292 976 225 976 q 358 960 332 976 q 407 929 383 944 q 463 914 431 914 q 501 929 486 914 q 519 976 515 944 l 626 976 q 567 828 613 874 q 457 782 522 782 z "},"ə":{"ha":753,"x_min":22,"x_max":726,"o":"m 372 -17 q 186 28 265 -17 q 65 153 107 74 q 22 333 22 232 q 24 365 22 349 q 26 396 25 381 l 513 396 q 474 493 508 456 q 379 531 439 531 q 312 514 340 531 q 268 463 283 497 l 39 463 q 102 587 56 532 q 218 674 149 642 q 372 706 288 706 q 559 660 479 706 q 683 534 639 615 q 726 344 726 453 q 679 146 726 226 q 551 24 632 65 q 372 -17 471 -17 m 375 156 q 464 186 425 156 q 511 276 503 217 l 243 276 q 283 186 243 217 q 375 156 324 156 z "},"f":{"ha":457,"x_min":10,"x_max":418,"o":"m 88 0 l 88 513 l 10 513 l 10 689 l 88 689 l 88 715 q 159 915 88 857 q 347 972 231 972 l 418 972 l 418 786 l 379 786 q 321 770 339 786 q 303 718 303 754 l 303 689 l 418 689 l 418 513 l 303 513 l 303 0 l 88 0 z "},"g":{"ha":714,"x_min":18,"x_max":700,"o":"m 350 -322 q 181 -301 256 -322 q 62 -234 106 -281 q 18 -112 18 -187 q 39 -28 18 -64 q 103 33 60 7 q 49 86 67 54 q 31 160 31 118 q 114 299 31 251 q 68 370 83 331 q 53 456 53 410 q 90 588 53 532 q 192 675 126 644 q 340 706 257 706 q 453 689 403 706 l 700 689 l 700 546 l 613 546 q 624 503 619 526 q 629 456 629 481 q 591 324 629 381 q 488 237 553 268 q 340 206 422 206 q 283 210 310 206 q 231 225 256 215 q 207 189 207 214 q 279 144 207 144 l 421 144 q 565 121 504 144 q 660 49 626 97 q 693 -78 693 0 q 645 -215 693 -161 q 519 -296 597 -269 q 350 -322 440 -322 m 356 -165 q 454 -147 413 -165 q 496 -90 496 -129 q 399 -19 496 -19 l 313 -19 q 240 -37 265 -19 q 215 -90 215 -54 q 235 -135 215 -118 q 286 -158 254 -151 q 356 -165 318 -165 m 340 361 q 415 388 386 361 q 444 456 444 414 q 415 523 444 496 q 340 550 386 550 q 265 523 293 550 q 238 456 238 496 q 265 388 238 414 q 340 361 293 361 z "},"ğ":{"ha":714,"x_min":18,"x_max":700,"o":"m 350 -322 q 181 -301 256 -322 q 62 -234 106 -281 q 18 -112 18 -187 q 39 -28 18 -64 q 103 33 60 7 q 49 86 67 54 q 31 160 31 118 q 114 299 31 251 q 68 370 83 331 q 53 456 53 410 q 90 588 53 532 q 192 675 126 644 q 340 706 257 706 q 453 689 403 706 l 700 689 l 700 546 l 613 546 q 624 503 619 526 q 629 456 629 481 q 591 324 629 381 q 488 237 553 268 q 340 206 422 206 q 283 210 310 206 q 231 225 256 215 q 207 189 207 214 q 279 144 207 144 l 421 144 q 565 121 504 144 q 660 49 626 97 q 693 -78 693 0 q 645 -215 693 -161 q 519 -296 597 -269 q 350 -322 440 -322 m 356 -165 q 454 -147 413 -165 q 496 -90 496 -129 q 399 -19 496 -19 l 313 -19 q 240 -37 265 -19 q 215 -90 215 -54 q 235 -135 215 -118 q 286 -158 254 -151 q 356 -165 318 -165 m 340 361 q 415 388 386 361 q 444 456 444 414 q 415 523 444 496 q 340 550 386 550 q 265 523 293 550 q 238 456 238 496 q 265 388 238 414 q 340 361 293 361 m 338 750 q 172 809 235 750 q 108 978 108 868 l 108 1003 l 219 1003 q 245 933 219 958 q 338 908 271 908 q 433 933 407 908 q 458 1003 458 958 l 568 1003 l 568 976 q 504 808 568 867 q 338 750 440 750 z "},"ģ":{"ha":714,"x_min":18,"x_max":700,"o":"m 350 -322 q 181 -301 256 -322 q 62 -234 106 -281 q 18 -112 18 -187 q 39 -28 18 -64 q 103 33 60 7 q 49 86 67 54 q 31 160 31 118 q 114 299 31 251 q 68 370 83 331 q 53 456 53 410 q 90 588 53 532 q 192 675 126 644 q 340 706 257 706 q 453 689 403 706 l 700 689 l 700 546 l 613 546 q 624 503 619 526 q 629 456 629 481 q 591 324 629 381 q 488 237 553 268 q 340 206 422 206 q 283 210 310 206 q 231 225 256 215 q 207 189 207 214 q 279 144 207 144 l 421 144 q 565 121 504 144 q 660 49 626 97 q 693 -78 693 0 q 645 -215 693 -161 q 519 -296 597 -269 q 350 -322 440 -322 m 356 -165 q 454 -147 413 -165 q 496 -90 496 -129 q 399 -19 496 -19 l 313 -19 q 240 -37 265 -19 q 215 -90 215 -54 q 235 -135 215 -118 q 286 -158 254 -151 q 356 -165 318 -165 m 340 361 q 415 388 386 361 q 444 456 444 414 q 415 523 444 496 q 340 550 386 550 q 265 523 293 550 q 238 456 238 496 q 265 388 238 414 q 340 361 293 361 m 417 1182 l 417 1099 q 344 1008 344 1099 l 344 986 l 431 986 l 431 826 l 258 826 q 238 907 243 868 q 232 979 232 946 q 278 1127 232 1072 q 417 1182 324 1182 z "},"ġ":{"ha":714,"x_min":18,"x_max":700,"o":"m 350 -322 q 181 -301 256 -322 q 62 -234 106 -281 q 18 -112 18 -187 q 39 -28 18 -64 q 103 33 60 7 q 49 86 67 54 q 31 160 31 118 q 114 299 31 251 q 68 370 83 331 q 53 456 53 410 q 90 588 53 532 q 192 675 126 644 q 340 706 257 706 q 453 689 403 706 l 700 689 l 700 546 l 613 546 q 624 503 619 526 q 629 456 629 481 q 591 324 629 381 q 488 237 553 268 q 340 206 422 206 q 283 210 310 206 q 231 225 256 215 q 207 189 207 214 q 279 144 207 144 l 421 144 q 565 121 504 144 q 660 49 626 97 q 693 -78 693 0 q 645 -215 693 -161 q 519 -296 597 -269 q 350 -322 440 -322 m 356 -165 q 454 -147 413 -165 q 496 -90 496 -129 q 399 -19 496 -19 l 313 -19 q 240 -37 265 -19 q 215 -90 215 -54 q 235 -135 215 -118 q 286 -158 254 -151 q 356 -165 318 -165 m 340 361 q 415 388 386 361 q 444 456 444 414 q 415 523 444 496 q 340 550 386 550 q 265 523 293 550 q 238 456 238 496 q 265 388 238 414 q 340 361 293 361 m 336 750 q 245 788 285 750 q 206 882 206 826 q 245 976 206 939 q 336 1014 285 1014 q 432 976 393 1014 q 471 882 471 939 q 432 788 471 826 q 336 750 393 750 z "},"h":{"ha":753,"x_min":40,"x_max":721,"o":"m 40 0 l 40 972 l 254 972 l 254 606 q 343 682 292 658 q 458 706 394 706 q 654 623 588 706 q 721 408 721 540 l 721 0 l 508 0 l 508 382 q 476 487 508 447 q 381 526 444 526 q 286 485 318 526 q 254 382 254 444 l 254 0 l 40 0 z "},"ħ":{"ha":753,"x_min":-12,"x_max":721,"o":"m 40 0 l 40 761 l -12 761 l -12 914 l 40 914 l 40 972 l 254 972 l 254 914 l 465 914 l 465 761 l 254 761 l 254 606 q 343 682 292 658 q 458 706 394 706 q 654 623 588 706 q 721 408 721 540 l 721 0 l 508 0 l 508 382 q 476 487 508 447 q 381 526 444 526 q 286 485 318 526 q 254 382 254 444 l 254 0 l 40 0 z "},"i":{"ha":304,"x_min":21,"x_max":285,"o":"m 153 750 q 60 789 99 750 q 21 882 21 828 q 60 975 21 936 q 153 1014 99 1014 q 247 975 210 1014 q 285 882 285 936 q 247 789 285 828 q 153 750 210 750 m 46 0 l 46 689 l 260 689 l 260 0 l 46 0 z "},"ı":{"ha":297,"x_min":40,"x_max":254,"o":"m 40 0 l 40 689 l 254 689 l 254 0 l 40 0 z "},"í":{"ha":297,"x_min":-17,"x_max":313,"o":"m 40 0 l 40 689 l 254 689 l 254 0 l 40 0 m -17 732 l -17 882 l 313 1047 l 313 874 l -17 732 z "},"ĭ":{"ha":297,"x_min":-82,"x_max":378,"o":"m 40 0 l 40 689 l 254 689 l 254 0 l 40 0 m 147 750 q -19 809 44 750 q -82 978 -82 868 l -82 1003 l 29 1003 q 55 933 29 958 q 147 908 81 908 q 242 933 217 908 q 268 1003 268 958 l 378 1003 l 378 976 q 314 808 378 867 q 147 750 250 750 z "},"î":{"ha":297,"x_min":-62,"x_max":360,"o":"m 40 0 l 40 689 l 254 689 l 254 0 l 40 0 m -62 747 l -62 899 l 149 1008 l 360 899 l 360 747 l 149 858 l -62 747 z "},"ï":{"ha":297,"x_min":-122,"x_max":419,"o":"m 40 0 l 40 689 l 254 689 l 254 0 l 40 0 m 4 750 q -86 788 -50 750 q -122 882 -122 826 q -86 976 -122 939 q 4 1014 -50 1014 q 94 976 58 1014 q 131 882 131 939 q 94 788 131 826 q 4 750 58 750 m 293 750 q 204 788 240 750 q 168 882 168 826 q 204 976 168 939 q 293 1014 240 1014 q 383 976 347 1014 q 419 882 419 939 q 383 788 419 826 q 293 750 347 750 z "},"ì":{"ha":297,"x_min":-17,"x_max":313,"o":"m 40 0 l 40 689 l 254 689 l 254 0 l 40 0 m 313 732 l -17 874 l -17 1047 l 313 882 l 313 732 z "},"ī":{"ha":297,"x_min":-110,"x_max":407,"o":"m 40 0 l 40 689 l 254 689 l 254 0 l 40 0 m -110 806 l -110 958 l 407 958 l 407 806 l -110 806 z "},"į":{"ha":297,"x_min":-68,"x_max":281,"o":"m 40 0 l 40 689 l 254 689 l 254 0 l 40 0 m 146 750 q 55 788 94 750 q 15 882 15 826 q 55 976 15 939 q 146 1014 94 1014 q 242 976 203 1014 q 281 882 281 939 q 242 788 281 826 q 146 750 203 750 m 131 -299 q -10 -262 49 -299 q -68 -146 -68 -225 q -22 -33 -68 -86 q 149 74 25 19 l 206 99 l 254 0 l 188 -35 q 115 -81 138 -61 q 93 -125 93 -101 q 110 -161 93 -147 q 158 -175 128 -175 q 263 -154 204 -175 l 263 -278 q 201 -292 236 -285 q 131 -299 167 -299 z "},"ĩ":{"ha":297,"x_min":-104,"x_max":401,"o":"m 40 0 l 40 689 l 254 689 l 254 0 l 40 0 m 232 782 q 167 798 193 782 q 117 830 140 814 q 60 846 93 846 q 22 831 36 846 q 3 783 8 815 l -104 783 q -44 930 -89 883 q 67 976 0 976 q 133 960 107 976 q 182 929 158 944 q 238 914 206 914 q 276 929 261 914 q 294 976 290 944 l 401 976 q 342 828 388 874 q 232 782 297 782 z "},"ĳ":{"ha":608,"x_min":21,"x_max":590,"o":"m 153 750 q 60 789 99 750 q 21 882 21 828 q 60 975 21 936 q 153 1014 99 1014 q 247 975 210 1014 q 285 882 285 936 q 247 789 285 828 q 153 750 210 750 m 46 0 l 46 689 l 260 689 l 260 0 l 46 0 m 235 -306 l 235 -124 l 286 -124 q 335 -110 318 -124 q 351 -65 351 -97 l 351 689 l 565 689 l 565 -62 q 537 -199 565 -146 q 453 -279 508 -253 q 318 -306 399 -306 l 235 -306 m 458 750 q 365 789 403 750 q 326 882 326 828 q 365 975 326 936 q 458 1014 403 1014 q 551 975 513 1014 q 590 882 590 936 q 551 789 590 828 q 458 750 513 750 z "},"j":{"ha":304,"x_min":-69,"x_max":286,"o":"m -69 -306 l -69 -124 l -18 -124 q 31 -110 14 -124 q 47 -65 47 -97 l 47 689 l 261 689 l 261 -62 q 233 -199 261 -146 q 149 -279 204 -253 q 14 -306 94 -306 l -69 -306 m 154 750 q 60 789 99 750 q 22 882 22 828 q 60 975 22 936 q 154 1014 99 1014 q 247 975 208 1014 q 286 882 286 936 q 247 789 286 828 q 154 750 208 750 z "},"ȷ":{"ha":304,"x_min":-69,"x_max":261,"o":"m -69 -306 l -69 -124 l -18 -124 q 31 -110 14 -124 q 47 -65 47 -97 l 47 689 l 261 689 l 261 -62 q 233 -199 261 -146 q 149 -279 204 -253 q 14 -306 94 -306 l -69 -306 z "},"k":{"ha":721,"x_min":40,"x_max":732,"o":"m 40 0 l 40 972 l 254 972 l 254 414 l 458 689 l 722 689 l 439 347 l 732 0 l 467 0 l 254 293 l 254 0 l 40 0 z "},"ķ":{"ha":721,"x_min":40,"x_max":732,"o":"m 40 0 l 40 972 l 254 972 l 254 414 l 458 689 l 722 689 l 439 347 l 732 0 l 467 0 l 254 293 l 254 0 l 40 0 m 275 -414 l 275 -331 q 347 -240 347 -331 l 347 -218 l 261 -218 l 261 -58 l 433 -58 q 454 -139 449 -100 q 460 -211 460 -178 q 414 -359 460 -304 q 275 -414 368 -414 z "},"l":{"ha":301,"x_min":43,"x_max":257,"o":"m 43 0 l 43 972 l 257 972 l 257 0 l 43 0 z "},"ĺ":{"ha":301,"x_min":-14,"x_max":315,"o":"m 43 0 l 43 972 l 257 972 l 257 0 l 43 0 m -14 1015 l -14 1165 l 315 1331 l 315 1157 l -14 1015 z "},"ľ":{"ha":301,"x_min":43,"x_max":563,"o":"m 43 0 l 43 972 l 257 972 l 257 0 l 43 0 m 297 758 l 364 972 l 563 972 l 435 758 l 297 758 z "},"ļ":{"ha":301,"x_min":43,"x_max":257,"o":"m 43 0 l 43 972 l 257 972 l 257 0 l 43 0 m 65 -414 l 65 -331 q 138 -240 138 -331 l 138 -218 l 51 -218 l 51 -58 l 224 -58 q 244 -139 239 -100 q 250 -211 250 -178 q 204 -359 250 -304 q 65 -414 158 -414 z "},"ŀ":{"ha":499,"x_min":46,"x_max":504,"o":"m 46 0 l 46 972 l 260 972 l 260 0 l 46 0 m 407 410 q 338 436 365 410 q 310 506 310 463 q 338 575 310 546 q 407 604 365 604 q 476 575 447 604 q 504 506 504 546 q 476 436 504 463 q 407 410 447 410 z "},"ł":{"ha":486,"x_min":28,"x_max":431,"o":"m 122 0 l 122 400 l 28 372 l 28 557 l 122 585 l 122 972 l 336 972 l 336 654 l 431 683 l 431 499 l 336 471 l 336 0 l 122 0 z "},"m":{"ha":1218,"x_min":40,"x_max":1186,"o":"m 40 0 l 40 689 l 254 689 l 254 611 q 341 681 290 657 q 451 706 392 706 q 581 674 517 706 q 682 575 644 642 q 774 667 715 628 q 910 706 832 706 q 1056 672 993 706 q 1152 573 1118 639 q 1186 410 1186 507 l 1186 0 l 974 0 l 974 382 q 942 484 974 447 q 847 521 910 521 q 752 483 783 521 q 721 382 721 446 l 721 0 l 507 0 l 507 382 q 476 483 507 444 q 381 521 444 521 q 286 484 318 521 q 254 382 254 447 l 254 0 l 40 0 z "},"n":{"ha":754,"x_min":40,"x_max":721,"o":"m 40 0 l 40 689 l 254 689 l 254 606 q 343 682 292 658 q 458 706 394 706 q 654 623 588 706 q 721 408 721 540 l 721 0 l 508 0 l 508 382 q 476 487 508 447 q 381 526 444 526 q 286 485 318 526 q 254 382 254 444 l 254 0 l 40 0 z "},"ń":{"ha":754,"x_min":40,"x_max":721,"o":"m 40 0 l 40 689 l 254 689 l 254 606 q 343 682 292 658 q 458 706 394 706 q 654 623 588 706 q 721 408 721 540 l 721 0 l 508 0 l 508 382 q 476 487 508 447 q 381 526 444 526 q 286 485 318 526 q 254 382 254 444 l 254 0 l 40 0 m 211 732 l 211 882 l 540 1047 l 540 874 l 211 732 z "},"ň":{"ha":754,"x_min":40,"x_max":721,"o":"m 40 0 l 40 689 l 254 689 l 254 606 q 343 682 292 658 q 458 706 394 706 q 654 623 588 706 q 721 408 721 540 l 721 0 l 508 0 l 508 382 q 476 487 508 447 q 381 526 444 526 q 286 485 318 526 q 254 382 254 444 l 254 0 l 40 0 m 376 747 l 165 856 l 165 1008 l 376 890 l 588 1008 l 588 856 l 376 747 z "},"ņ":{"ha":754,"x_min":40,"x_max":721,"o":"m 40 0 l 40 689 l 254 689 l 254 606 q 343 682 292 658 q 458 706 394 706 q 654 623 588 706 q 721 408 721 540 l 721 0 l 508 0 l 508 382 q 476 487 508 447 q 381 526 444 526 q 286 485 318 526 q 254 382 254 444 l 254 0 l 40 0 m 290 -414 l 290 -331 q 363 -240 363 -331 l 363 -218 l 276 -218 l 276 -58 l 449 -58 q 469 -139 464 -100 q 475 -211 475 -178 q 429 -359 475 -304 q 290 -414 383 -414 z "},"ñ":{"ha":754,"x_min":40,"x_max":721,"o":"m 40 0 l 40 689 l 254 689 l 254 606 q 343 682 292 658 q 458 706 394 706 q 654 623 588 706 q 721 408 721 540 l 721 0 l 508 0 l 508 382 q 476 487 508 447 q 381 526 444 526 q 286 485 318 526 q 254 382 254 444 l 254 0 l 40 0 m 460 782 q 394 798 421 782 q 344 830 368 814 q 288 846 321 846 q 250 831 264 846 q 231 783 236 815 l 124 783 q 183 930 139 883 q 294 976 228 976 q 360 960 335 976 q 410 929 386 944 q 465 914 433 914 q 503 929 489 914 q 522 976 518 944 l 629 976 q 570 828 615 874 q 460 782 525 782 z "},"ŋ":{"ha":753,"x_min":40,"x_max":721,"o":"m 390 -306 l 390 -124 l 443 -124 q 492 -110 475 -124 q 508 -65 508 -97 l 508 382 q 476 487 508 447 q 381 526 444 526 q 286 485 318 526 q 254 382 254 444 l 254 0 l 40 0 l 40 689 l 254 689 l 254 606 q 343 682 292 658 q 458 706 394 706 q 654 623 588 706 q 721 408 721 540 l 721 -62 q 692 -199 721 -146 q 609 -279 664 -253 q 474 -306 554 -306 l 390 -306 z "},"o":{"ha":778,"x_min":22,"x_max":756,"o":"m 386 -17 q 203 26 286 -17 q 72 149 121 68 q 22 344 22 229 q 70 535 22 454 q 201 660 118 615 q 389 706 285 706 q 582 659 500 706 q 710 531 664 613 q 756 344 756 450 q 707 153 756 235 q 575 28 658 72 q 386 -17 492 -17 m 388 169 q 467 192 433 169 q 519 254 500 214 q 538 346 538 294 q 517 441 538 403 q 463 499 497 479 q 388 518 429 518 q 310 497 344 518 q 257 438 276 476 q 238 344 238 399 q 256 253 238 293 q 308 192 275 214 q 388 169 342 169 z "},"ó":{"ha":778,"x_min":22,"x_max":756,"o":"m 386 -17 q 203 26 286 -17 q 72 149 121 68 q 22 344 22 229 q 70 535 22 454 q 201 660 118 615 q 389 706 285 706 q 582 659 500 706 q 710 531 664 613 q 756 344 756 450 q 707 153 756 235 q 575 28 658 72 q 386 -17 492 -17 m 388 169 q 467 192 433 169 q 519 254 500 214 q 538 346 538 294 q 517 441 538 403 q 463 499 497 479 q 388 518 429 518 q 310 497 344 518 q 257 438 276 476 q 238 344 238 399 q 256 253 238 293 q 308 192 275 214 q 388 169 342 169 m 224 732 l 224 882 l 553 1047 l 553 874 l 224 732 z "},"ŏ":{"ha":778,"x_min":22,"x_max":756,"o":"m 386 -17 q 203 26 286 -17 q 72 149 121 68 q 22 344 22 229 q 70 535 22 454 q 201 660 118 615 q 389 706 285 706 q 582 659 500 706 q 710 531 664 613 q 756 344 756 450 q 707 153 756 235 q 575 28 658 72 q 386 -17 492 -17 m 388 169 q 467 192 433 169 q 519 254 500 214 q 538 346 538 294 q 517 441 538 403 q 463 499 497 479 q 388 518 429 518 q 310 497 344 518 q 257 438 276 476 q 238 344 238 399 q 256 253 238 293 q 308 192 275 214 q 388 169 342 169 m 388 750 q 222 809 285 750 q 158 978 158 868 l 158 1003 l 269 1003 q 295 933 269 958 q 388 908 321 908 q 483 933 457 908 q 508 1003 508 958 l 618 1003 l 618 976 q 554 808 618 867 q 388 750 490 750 z "},"ô":{"ha":778,"x_min":22,"x_max":756,"o":"m 386 -17 q 203 26 286 -17 q 72 149 121 68 q 22 344 22 229 q 70 535 22 454 q 201 660 118 615 q 389 706 285 706 q 582 659 500 706 q 710 531 664 613 q 756 344 756 450 q 707 153 756 235 q 575 28 658 72 q 386 -17 492 -17 m 388 169 q 467 192 433 169 q 519 254 500 214 q 538 346 538 294 q 517 441 538 403 q 463 499 497 479 q 388 518 429 518 q 310 497 344 518 q 257 438 276 476 q 238 344 238 399 q 256 253 238 293 q 308 192 275 214 q 388 169 342 169 m 178 747 l 178 899 l 389 1008 l 600 899 l 600 747 l 389 858 l 178 747 z "},"ö":{"ha":778,"x_min":22,"x_max":756,"o":"m 386 -17 q 203 26 286 -17 q 72 149 121 68 q 22 344 22 229 q 70 535 22 454 q 201 660 118 615 q 389 706 285 706 q 582 659 500 706 q 710 531 664 613 q 756 344 756 450 q 707 153 756 235 q 575 28 658 72 q 386 -17 492 -17 m 388 169 q 467 192 433 169 q 519 254 500 214 q 538 346 538 294 q 517 441 538 403 q 463 499 497 479 q 388 518 429 518 q 310 497 344 518 q 257 438 276 476 q 238 344 238 399 q 256 253 238 293 q 308 192 275 214 q 388 169 342 169 m 224 750 q 130 788 168 750 q 92 882 92 826 q 130 976 92 939 q 224 1014 168 1014 q 318 976 281 1014 q 356 882 356 939 q 318 788 356 826 q 224 750 281 750 m 554 750 q 460 788 499 750 q 422 882 422 826 q 460 976 422 939 q 554 1014 499 1014 q 649 976 611 1014 q 686 882 686 939 q 649 788 686 826 q 554 750 611 750 z "},"ò":{"ha":778,"x_min":22,"x_max":756,"o":"m 386 -17 q 203 26 286 -17 q 72 149 121 68 q 22 344 22 229 q 70 535 22 454 q 201 660 118 615 q 389 706 285 706 q 582 659 500 706 q 710 531 664 613 q 756 344 756 450 q 707 153 756 235 q 575 28 658 72 q 386 -17 492 -17 m 388 169 q 467 192 433 169 q 519 254 500 214 q 538 346 538 294 q 517 441 538 403 q 463 499 497 479 q 388 518 429 518 q 310 497 344 518 q 257 438 276 476 q 238 344 238 399 q 256 253 238 293 q 308 192 275 214 q 388 169 342 169 m 553 732 l 224 874 l 224 1047 l 553 882 l 553 732 z "},"ő":{"ha":778,"x_min":22,"x_max":756,"o":"m 386 -17 q 203 26 286 -17 q 72 149 121 68 q 22 344 22 229 q 70 535 22 454 q 201 660 118 615 q 389 706 285 706 q 582 659 500 706 q 710 531 664 613 q 756 344 756 450 q 707 153 756 235 q 575 28 658 72 q 386 -17 492 -17 m 388 169 q 467 192 433 169 q 519 254 500 214 q 538 346 538 294 q 517 441 538 403 q 463 499 497 479 q 388 518 429 518 q 310 497 344 518 q 257 438 276 476 q 238 344 238 399 q 256 253 238 293 q 308 192 275 214 q 388 169 342 169 m 421 751 l 542 1028 l 717 1028 l 554 751 l 421 751 m 163 751 l 265 1028 l 439 1028 l 297 751 l 163 751 z "},"ō":{"ha":778,"x_min":22,"x_max":756,"o":"m 386 -17 q 203 26 286 -17 q 72 149 121 68 q 22 344 22 229 q 70 535 22 454 q 201 660 118 615 q 389 706 285 706 q 582 659 500 706 q 710 531 664 613 q 756 344 756 450 q 707 153 756 235 q 575 28 658 72 q 386 -17 492 -17 m 388 169 q 467 192 433 169 q 519 254 500 214 q 538 346 538 294 q 517 441 538 403 q 463 499 497 479 q 388 518 429 518 q 310 497 344 518 q 257 438 276 476 q 238 344 238 399 q 256 253 238 293 q 308 192 275 214 q 388 169 342 169 m 131 806 l 131 958 l 647 958 l 647 806 l 131 806 z "},"ø":{"ha":786,"x_min":15,"x_max":771,"o":"m 390 -17 q 175 43 269 -17 l 135 0 l 15 0 l 108 100 q 45 207 68 146 q 22 344 22 268 q 72 535 22 454 q 205 660 121 615 q 393 706 289 706 q 512 690 457 706 q 611 644 567 674 l 651 689 l 771 689 l 676 588 q 741 478 718 540 q 764 344 764 417 q 715 153 764 235 q 581 28 665 72 q 390 -17 496 -17 m 392 169 q 472 192 438 169 q 526 254 507 214 q 546 346 546 294 q 542 390 546 369 q 531 428 538 411 l 313 192 q 392 169 349 169 m 254 260 l 474 496 q 392 518 438 518 q 314 497 349 518 q 258 438 279 476 q 238 344 238 399 q 242 299 238 321 q 254 260 246 278 z "},"õ":{"ha":778,"x_min":22,"x_max":756,"o":"m 386 -17 q 203 26 286 -17 q 72 149 121 68 q 22 344 22 229 q 70 535 22 454 q 201 660 118 615 q 389 706 285 706 q 582 659 500 706 q 710 531 664 613 q 756 344 756 450 q 707 153 756 235 q 575 28 658 72 q 386 -17 492 -17 m 388 169 q 467 192 433 169 q 519 254 500 214 q 538 346 538 294 q 517 441 538 403 q 463 499 497 479 q 388 518 429 518 q 310 497 344 518 q 257 438 276 476 q 238 344 238 399 q 256 253 238 293 q 308 192 275 214 q 388 169 342 169 m 472 782 q 407 798 433 782 q 357 830 381 814 q 300 846 333 846 q 263 831 276 846 q 243 783 249 815 l 136 783 q 196 930 151 883 q 307 976 240 976 q 373 960 347 976 q 422 929 399 944 q 478 914 446 914 q 516 929 501 914 q 535 976 531 944 l 642 976 q 583 828 628 874 q 472 782 538 782 z "},"œ":{"ha":1263,"x_min":22,"x_max":1244,"o":"m 385 -17 q 203 26 288 -17 q 69 153 119 68 q 35 242 47 194 q 22 344 22 289 q 67 530 22 444 q 201 661 113 615 q 388 706 286 706 q 527 679 458 706 q 643 600 596 653 q 757 679 692 653 q 894 706 822 706 q 1068 667 988 706 q 1200 540 1149 629 q 1244 357 1244 460 q 1243 326 1244 340 q 1239 296 1242 311 l 753 296 q 789 197 756 235 q 883 158 822 158 q 952 175 924 158 q 996 226 981 192 l 1225 226 q 1156 93 1206 147 q 1036 11 1106 39 q 890 -17 967 -17 q 753 8 818 -17 q 643 89 689 33 q 527 9 594 35 q 385 -17 460 -17 m 385 168 q 455 186 421 168 q 511 243 489 204 q 533 344 533 282 q 515 435 533 396 q 465 498 497 475 q 386 521 432 521 q 308 498 340 521 q 259 435 276 475 q 242 344 242 396 q 258 254 242 294 q 308 191 275 214 q 385 168 340 168 m 754 403 l 1024 403 q 988 497 1024 460 q 890 533 951 533 q 824 517 853 533 q 776 471 794 500 q 754 403 758 442 z "},"p":{"ha":804,"x_min":40,"x_max":782,"o":"m 40 -306 l 40 689 l 256 689 l 256 596 q 348 678 289 650 q 472 706 407 706 q 633 659 564 706 q 742 531 703 613 q 782 346 782 450 q 744 163 782 246 q 638 32 707 81 q 472 -17 568 -17 q 349 10 407 -17 q 256 92 290 36 l 256 -306 l 40 -306 m 408 171 q 489 193 454 171 q 543 255 524 215 q 563 346 563 294 q 541 441 563 403 q 485 499 519 479 q 408 518 450 518 q 331 497 365 518 q 275 438 296 476 q 254 344 254 399 q 274 255 254 294 q 328 193 293 215 q 408 171 364 171 z "},"þ":{"ha":804,"x_min":40,"x_max":782,"o":"m 40 -306 l 40 972 l 256 972 l 256 596 q 348 678 289 650 q 472 706 407 706 q 633 659 564 706 q 742 531 703 613 q 782 346 782 450 q 744 163 782 246 q 638 32 707 81 q 472 -17 568 -17 q 349 10 407 -17 q 256 92 290 36 l 256 -306 l 40 -306 m 408 171 q 489 193 454 171 q 543 255 524 215 q 563 346 563 294 q 541 441 563 403 q 485 499 519 479 q 408 518 450 518 q 331 497 365 518 q 275 438 296 476 q 254 344 254 399 q 274 255 254 294 q 328 193 293 215 q 408 171 364 171 z "},"q":{"ha":806,"x_min":22,"x_max":764,"o":"m 549 -306 l 549 94 q 457 10 514 38 q 332 -17 400 -17 q 165 33 235 -17 q 59 166 96 83 q 22 346 22 249 q 60 525 22 443 q 167 656 97 607 q 332 706 236 706 q 456 678 397 706 q 549 599 514 651 l 549 689 l 764 689 l 764 -306 l 549 -306 m 394 171 q 472 192 438 171 q 528 252 507 213 q 549 344 549 292 q 529 435 549 396 q 475 496 510 474 q 394 518 440 518 q 324 501 360 518 q 265 447 289 485 q 242 346 242 408 q 260 258 242 297 q 313 194 279 218 q 394 171 347 171 z "},"r":{"ha":485,"x_min":40,"x_max":474,"o":"m 40 0 l 40 689 l 254 689 l 254 582 q 346 670 290 635 q 474 706 401 706 l 474 479 l 414 479 q 294 443 333 479 q 254 324 254 407 l 254 0 l 40 0 z "},"ŕ":{"ha":485,"x_min":40,"x_max":474,"o":"m 40 0 l 40 689 l 254 689 l 254 582 q 346 670 290 635 q 474 706 401 706 l 474 479 l 414 479 q 294 443 333 479 q 254 324 254 407 l 254 0 l 40 0 m 78 732 l 78 882 l 407 1047 l 407 874 l 78 732 z "},"ř":{"ha":485,"x_min":32,"x_max":474,"o":"m 40 0 l 40 689 l 254 689 l 254 582 q 346 670 290 635 q 474 706 401 706 l 474 479 l 414 479 q 294 443 333 479 q 254 324 254 407 l 254 0 l 40 0 m 243 747 l 32 856 l 32 1008 l 243 890 l 454 1008 l 454 856 l 243 747 z "},"ŗ":{"ha":485,"x_min":40,"x_max":474,"o":"m 40 0 l 40 689 l 254 689 l 254 582 q 346 670 290 635 q 474 706 401 706 l 474 479 l 414 479 q 294 443 333 479 q 254 324 254 407 l 254 0 l 40 0 m 71 -414 l 71 -331 q 143 -240 143 -331 l 143 -218 l 57 -218 l 57 -58 l 229 -58 q 250 -139 244 -100 q 256 -211 256 -178 q 210 -359 256 -304 q 71 -414 164 -414 z "},"s":{"ha":653,"x_min":22,"x_max":631,"o":"m 346 -17 q 198 10 271 -17 q 76 91 125 38 q 22 224 28 144 l 235 224 q 272 163 240 185 q 343 142 303 142 q 402 155 376 142 q 428 199 428 168 q 404 238 428 224 q 349 261 381 253 q 294 275 318 269 q 172 313 229 292 q 80 374 115 333 q 44 488 44 414 q 83 607 44 558 q 188 681 122 656 q 331 706 253 706 q 533 645 453 706 q 626 467 613 585 l 428 467 q 393 527 421 508 q 324 546 365 546 q 269 534 293 546 q 246 492 246 522 q 269 452 246 467 q 322 431 292 438 q 378 417 353 424 q 501 378 444 400 q 593 315 557 356 q 631 197 629 274 q 591 81 631 129 q 487 8 551 33 q 346 -17 422 -17 z "},"ś":{"ha":653,"x_min":22,"x_max":631,"o":"m 346 -17 q 198 10 271 -17 q 76 91 125 38 q 22 224 28 144 l 235 224 q 272 163 240 185 q 343 142 303 142 q 402 155 376 142 q 428 199 428 168 q 404 238 428 224 q 349 261 381 253 q 294 275 318 269 q 172 313 229 292 q 80 374 115 333 q 44 488 44 414 q 83 607 44 558 q 188 681 122 656 q 331 706 253 706 q 533 645 453 706 q 626 467 613 585 l 428 467 q 393 527 421 508 q 324 546 365 546 q 269 534 293 546 q 246 492 246 522 q 269 452 246 467 q 322 431 292 438 q 378 417 353 424 q 501 378 444 400 q 593 315 557 356 q 631 197 629 274 q 591 81 631 129 q 487 8 551 33 q 346 -17 422 -17 m 161 732 l 161 882 l 490 1047 l 490 874 l 161 732 z "},"š":{"ha":653,"x_min":22,"x_max":631,"o":"m 346 -17 q 198 10 271 -17 q 76 91 125 38 q 22 224 28 144 l 235 224 q 272 163 240 185 q 343 142 303 142 q 402 155 376 142 q 428 199 428 168 q 404 238 428 224 q 349 261 381 253 q 294 275 318 269 q 172 313 229 292 q 80 374 115 333 q 44 488 44 414 q 83 607 44 558 q 188 681 122 656 q 331 706 253 706 q 533 645 453 706 q 626 467 613 585 l 428 467 q 393 527 421 508 q 324 546 365 546 q 269 534 293 546 q 246 492 246 522 q 269 452 246 467 q 322 431 292 438 q 378 417 353 424 q 501 378 444 400 q 593 315 557 356 q 631 197 629 274 q 591 81 631 129 q 487 8 551 33 q 346 -17 422 -17 m 326 747 l 115 856 l 115 1008 l 326 890 l 538 1008 l 538 856 l 326 747 z "},"ş":{"ha":653,"x_min":22,"x_max":631,"o":"m 346 -17 q 198 10 271 -17 q 76 91 125 38 q 22 224 28 144 l 235 224 q 272 163 240 185 q 343 142 303 142 q 402 155 376 142 q 428 199 428 168 q 404 238 428 224 q 349 261 381 253 q 294 275 318 269 q 172 313 229 292 q 80 374 115 333 q 44 488 44 414 q 83 607 44 558 q 188 681 122 656 q 331 706 253 706 q 533 645 453 706 q 626 467 613 585 l 428 467 q 393 527 421 508 q 324 546 365 546 q 269 534 293 546 q 246 492 246 522 q 269 452 246 467 q 322 431 292 438 q 378 417 353 424 q 501 378 444 400 q 593 315 557 356 q 631 197 629 274 q 591 81 631 129 q 487 8 551 33 q 346 -17 422 -17 m 193 -369 l 193 -247 l 367 -247 q 426 -208 426 -247 q 367 -168 426 -168 l 271 -168 l 271 24 l 404 24 l 404 -57 q 492 -72 450 -56 q 560 -124 533 -89 q 586 -211 586 -158 q 558 -300 586 -265 q 488 -352 531 -335 q 397 -369 444 -369 l 193 -369 z "},"ș":{"ha":653,"x_min":22,"x_max":631,"o":"m 346 -17 q 198 10 271 -17 q 76 91 125 38 q 22 224 28 144 l 235 224 q 272 163 240 185 q 343 142 303 142 q 402 155 376 142 q 428 199 428 168 q 404 238 428 224 q 349 261 381 253 q 294 275 318 269 q 172 313 229 292 q 80 374 115 333 q 44 488 44 414 q 83 607 44 558 q 188 681 122 656 q 331 706 253 706 q 533 645 453 706 q 626 467 613 585 l 428 467 q 393 527 421 508 q 324 546 365 546 q 269 534 293 546 q 246 492 246 522 q 269 452 246 467 q 322 431 292 438 q 378 417 353 424 q 501 378 444 400 q 593 315 557 356 q 631 197 629 274 q 591 81 631 129 q 487 8 551 33 q 346 -17 422 -17 m 254 -414 l 254 -331 q 326 -240 326 -331 l 326 -218 l 240 -218 l 240 -58 l 413 -58 q 433 -139 428 -100 q 439 -211 439 -178 q 393 -359 439 -304 q 254 -414 347 -414 z "},"ß":{"ha":947,"x_min":42,"x_max":936,"o":"m 640 -14 q 424 53 510 -14 q 324 249 339 119 l 526 249 q 560 174 532 203 q 636 144 588 144 q 699 162 674 144 q 725 217 725 179 q 707 267 725 247 q 662 299 689 286 q 606 324 635 313 q 505 364 556 342 q 420 421 454 386 q 386 510 386 456 q 403 572 386 546 q 443 617 419 599 q 467 635 456 626 q 490 653 479 643 q 529 688 510 668 q 549 736 549 708 q 507 812 549 789 q 411 835 465 835 q 325 818 360 835 q 274 767 290 801 q 257 681 257 733 l 257 0 l 42 0 l 42 697 q 92 875 42 804 q 229 981 143 946 q 421 1017 315 1017 q 591 987 513 1017 q 717 900 669 957 q 765 760 765 843 q 749 697 765 724 q 709 649 733 669 q 660 613 685 629 q 626 586 646 603 q 606 546 606 569 q 619 515 606 528 q 663 488 633 501 q 736 458 692 475 q 879 375 822 426 q 936 229 936 324 q 896 96 936 150 q 788 14 856 42 q 640 -14 721 -14 z "},"t":{"ha":454,"x_min":1,"x_max":428,"o":"m 319 0 q 135 60 197 0 q 74 243 74 119 l 74 513 l 1 513 l 1 689 l 74 689 l 74 860 l 288 860 l 288 689 l 428 689 l 428 513 l 288 513 l 288 240 q 302 194 288 206 q 351 182 317 182 l 428 182 l 428 0 l 319 0 z "},"ť":{"ha":454,"x_min":1,"x_max":614,"o":"m 319 0 q 135 60 197 0 q 74 243 74 119 l 74 513 l 1 513 l 1 689 l 74 689 l 74 860 l 288 860 l 288 689 l 428 689 l 428 513 l 288 513 l 288 240 q 302 194 288 206 q 351 182 317 182 l 428 182 l 428 0 l 319 0 m 349 758 l 415 972 l 614 972 l 486 758 l 349 758 z "},"ţ":{"ha":454,"x_min":1,"x_max":532,"o":"m 319 0 q 135 60 197 0 q 74 243 74 119 l 74 513 l 1 513 l 1 689 l 74 689 l 74 860 l 288 860 l 288 689 l 428 689 l 428 513 l 288 513 l 288 240 q 302 194 288 206 q 351 182 317 182 l 428 182 l 428 0 l 319 0 m 139 -369 l 139 -247 l 313 -247 q 372 -208 372 -247 q 313 -168 372 -168 l 217 -168 l 217 24 l 350 24 l 350 -57 q 438 -72 396 -56 q 506 -124 479 -89 q 532 -211 532 -158 q 504 -300 532 -265 q 433 -352 476 -335 q 343 -369 390 -369 l 139 -369 z "},"ț":{"ha":454,"x_min":1,"x_max":428,"o":"m 319 0 q 135 60 197 0 q 74 243 74 119 l 74 513 l 1 513 l 1 689 l 74 689 l 74 860 l 288 860 l 288 689 l 428 689 l 428 513 l 288 513 l 288 240 q 302 194 288 206 q 351 182 317 182 l 428 182 l 428 0 l 319 0 m 200 -414 l 200 -331 q 272 -240 272 -331 l 272 -218 l 186 -218 l 186 -58 l 358 -58 q 379 -139 374 -100 q 385 -211 385 -178 q 339 -359 385 -304 q 200 -414 293 -414 z "},"u":{"ha":754,"x_min":32,"x_max":714,"o":"m 296 -17 q 151 22 210 -17 q 62 127 92 60 q 32 281 32 194 l 32 689 l 244 689 l 244 307 q 276 203 244 243 q 372 163 308 163 q 468 203 436 163 q 500 307 500 243 l 500 689 l 714 689 l 714 0 l 500 0 l 500 86 q 411 9 464 35 q 296 -17 358 -17 z "},"ú":{"ha":754,"x_min":32,"x_max":714,"o":"m 296 -17 q 151 22 210 -17 q 62 127 92 60 q 32 281 32 194 l 32 689 l 244 689 l 244 307 q 276 203 244 243 q 372 163 308 163 q 468 203 436 163 q 500 307 500 243 l 500 689 l 714 689 l 714 0 l 500 0 l 500 86 q 411 9 464 35 q 296 -17 358 -17 m 201 732 l 201 882 l 531 1047 l 531 874 l 201 732 z "},"ŭ":{"ha":754,"x_min":32,"x_max":714,"o":"m 296 -17 q 151 22 210 -17 q 62 127 92 60 q 32 281 32 194 l 32 689 l 244 689 l 244 307 q 276 203 244 243 q 372 163 308 163 q 468 203 436 163 q 500 307 500 243 l 500 689 l 714 689 l 714 0 l 500 0 l 500 86 q 411 9 464 35 q 296 -17 358 -17 m 365 750 q 199 809 263 750 q 136 978 136 868 l 136 1003 l 247 1003 q 273 933 247 958 q 365 908 299 908 q 460 933 435 908 q 486 1003 486 958 l 596 1003 l 596 976 q 532 808 596 867 q 365 750 468 750 z "},"û":{"ha":754,"x_min":32,"x_max":714,"o":"m 296 -17 q 151 22 210 -17 q 62 127 92 60 q 32 281 32 194 l 32 689 l 244 689 l 244 307 q 276 203 244 243 q 372 163 308 163 q 468 203 436 163 q 500 307 500 243 l 500 689 l 714 689 l 714 0 l 500 0 l 500 86 q 411 9 464 35 q 296 -17 358 -17 m 156 747 l 156 899 l 367 1008 l 578 899 l 578 747 l 367 858 l 156 747 z "},"ü":{"ha":754,"x_min":32,"x_max":714,"o":"m 296 -17 q 151 22 210 -17 q 62 127 92 60 q 32 281 32 194 l 32 689 l 244 689 l 244 307 q 276 203 244 243 q 372 163 308 163 q 468 203 436 163 q 500 307 500 243 l 500 689 l 714 689 l 714 0 l 500 0 l 500 86 q 411 9 464 35 q 296 -17 358 -17 m 201 750 q 108 788 146 750 q 69 882 69 826 q 108 976 69 939 q 201 1014 146 1014 q 296 976 258 1014 q 333 882 333 939 q 296 788 333 826 q 201 750 258 750 m 532 750 q 438 788 476 750 q 400 882 400 826 q 438 976 400 939 q 532 1014 476 1014 q 626 976 589 1014 q 664 882 664 939 q 626 788 664 826 q 532 750 589 750 z "},"ù":{"ha":754,"x_min":32,"x_max":714,"o":"m 296 -17 q 151 22 210 -17 q 62 127 92 60 q 32 281 32 194 l 32 689 l 244 689 l 244 307 q 276 203 244 243 q 372 163 308 163 q 468 203 436 163 q 500 307 500 243 l 500 689 l 714 689 l 714 0 l 500 0 l 500 86 q 411 9 464 35 q 296 -17 358 -17 m 531 732 l 201 874 l 201 1047 l 531 882 l 531 732 z "},"ű":{"ha":754,"x_min":32,"x_max":714,"o":"m 296 -17 q 151 22 210 -17 q 62 127 92 60 q 32 281 32 194 l 32 689 l 244 689 l 244 307 q 276 203 244 243 q 372 163 308 163 q 468 203 436 163 q 500 307 500 243 l 500 689 l 714 689 l 714 0 l 500 0 l 500 86 q 411 9 464 35 q 296 -17 358 -17 m 399 751 l 519 1028 l 694 1028 l 532 751 l 399 751 m 140 751 l 243 1028 l 417 1028 l 275 751 l 140 751 z "},"ū":{"ha":754,"x_min":32,"x_max":714,"o":"m 296 -17 q 151 22 210 -17 q 62 127 92 60 q 32 281 32 194 l 32 689 l 244 689 l 244 307 q 276 203 244 243 q 372 163 308 163 q 468 203 436 163 q 500 307 500 243 l 500 689 l 714 689 l 714 0 l 500 0 l 500 86 q 411 9 464 35 q 296 -17 358 -17 m 108 806 l 108 958 l 625 958 l 625 806 l 108 806 z "},"ų":{"ha":754,"x_min":32,"x_max":722,"o":"m 296 -17 q 151 22 210 -17 q 62 127 92 60 q 32 281 32 194 l 32 689 l 244 689 l 244 307 q 276 203 244 243 q 372 163 308 163 q 468 203 436 163 q 500 307 500 243 l 500 689 l 714 689 l 714 0 l 500 0 l 500 86 q 411 9 464 35 q 296 -17 358 -17 m 590 -299 q 450 -262 508 -299 q 392 -146 392 -225 q 438 -33 392 -86 q 608 74 485 19 l 665 99 l 714 0 l 647 -35 q 575 -81 597 -61 q 553 -125 553 -101 q 570 -161 553 -147 q 618 -175 588 -175 q 722 -154 664 -175 l 722 -278 q 661 -292 696 -285 q 590 -299 626 -299 z "},"ů":{"ha":754,"x_min":32,"x_max":714,"o":"m 296 -17 q 151 22 210 -17 q 62 127 92 60 q 32 281 32 194 l 32 689 l 244 689 l 244 307 q 276 203 244 243 q 372 163 308 163 q 468 203 436 163 q 500 307 500 243 l 500 689 l 714 689 l 714 0 l 500 0 l 500 86 q 411 9 464 35 q 296 -17 358 -17 m 364 750 q 249 794 299 750 q 200 914 200 839 q 249 1034 200 990 q 364 1078 299 1078 q 484 1034 435 1078 q 533 914 533 990 q 484 794 533 839 q 364 750 435 750 m 364 844 q 415 864 396 844 q 435 914 435 883 q 415 965 435 946 q 364 985 396 985 q 318 965 338 985 q 299 914 299 946 q 318 864 299 883 q 364 844 338 844 z "},"ũ":{"ha":754,"x_min":32,"x_max":714,"o":"m 296 -17 q 151 22 210 -17 q 62 127 92 60 q 32 281 32 194 l 32 689 l 244 689 l 244 307 q 276 203 244 243 q 372 163 308 163 q 468 203 436 163 q 500 307 500 243 l 500 689 l 714 689 l 714 0 l 500 0 l 500 86 q 411 9 464 35 q 296 -17 358 -17 m 450 782 q 385 798 411 782 q 335 830 358 814 q 278 846 311 846 q 240 831 254 846 q 221 783 226 815 l 114 783 q 174 930 129 883 q 285 976 218 976 q 351 960 325 976 q 400 929 376 944 q 456 914 424 914 q 494 929 479 914 q 513 976 508 944 l 619 976 q 560 828 606 874 q 450 782 515 782 z "},"v":{"ha":717,"x_min":-17,"x_max":733,"o":"m 228 0 l -17 689 l 210 689 l 360 197 l 508 689 l 733 689 l 489 0 l 228 0 z "},"w":{"ha":1019,"x_min":-21,"x_max":1040,"o":"m 167 0 l -21 689 l 190 689 l 288 196 l 404 689 l 628 689 l 744 199 l 840 689 l 1040 689 l 853 0 l 619 0 l 511 447 l 399 0 l 167 0 z "},"ẃ":{"ha":1019,"x_min":-21,"x_max":1040,"o":"m 167 0 l -21 689 l 190 689 l 288 196 l 404 689 l 628 689 l 744 199 l 840 689 l 1040 689 l 853 0 l 619 0 l 511 447 l 399 0 l 167 0 m 349 732 l 349 882 l 678 1047 l 678 874 l 349 732 z "},"ŵ":{"ha":1019,"x_min":-21,"x_max":1040,"o":"m 167 0 l -21 689 l 190 689 l 288 196 l 404 689 l 628 689 l 744 199 l 840 689 l 1040 689 l 853 0 l 619 0 l 511 447 l 399 0 l 167 0 m 303 747 l 303 899 l 514 1008 l 725 899 l 725 747 l 514 858 l 303 747 z "},"ẅ":{"ha":1019,"x_min":-21,"x_max":1040,"o":"m 167 0 l -21 689 l 190 689 l 288 196 l 404 689 l 628 689 l 744 199 l 840 689 l 1040 689 l 853 0 l 619 0 l 511 447 l 399 0 l 167 0 m 349 750 q 255 788 293 750 q 217 882 217 826 q 255 976 217 939 q 349 1014 293 1014 q 443 976 406 1014 q 481 882 481 939 q 443 788 481 826 q 349 750 406 750 m 679 750 q 585 788 624 750 q 547 882 547 826 q 585 976 547 939 q 679 1014 624 1014 q 774 976 736 1014 q 811 882 811 939 q 774 788 811 826 q 679 750 736 750 z "},"ẁ":{"ha":1019,"x_min":-21,"x_max":1040,"o":"m 167 0 l -21 689 l 190 689 l 288 196 l 404 689 l 628 689 l 744 199 l 840 689 l 1040 689 l 853 0 l 619 0 l 511 447 l 399 0 l 167 0 m 678 732 l 349 874 l 349 1047 l 678 882 l 678 732 z "},"x":{"ha":679,"x_min":-18,"x_max":697,"o":"m -12 0 l 215 351 l -18 689 l 219 689 l 351 499 l 463 689 l 690 689 l 460 342 l 697 0 l 460 0 l 328 192 l 217 0 l -12 0 z "},"y":{"ha":740,"x_min":-21,"x_max":761,"o":"m 111 -306 l 260 24 l -21 689 l 215 689 l 375 258 l 533 689 l 761 689 l 339 -306 l 111 -306 z "},"ý":{"ha":740,"x_min":-21,"x_max":761,"o":"m 111 -306 l 260 24 l -21 689 l 215 689 l 375 258 l 533 689 l 761 689 l 339 -306 l 111 -306 m 206 732 l 206 882 l 535 1047 l 535 874 l 206 732 z "},"ŷ":{"ha":740,"x_min":-21,"x_max":761,"o":"m 111 -306 l 260 24 l -21 689 l 215 689 l 375 258 l 533 689 l 761 689 l 339 -306 l 111 -306 m 160 747 l 160 899 l 371 1008 l 582 899 l 582 747 l 371 858 l 160 747 z "},"ÿ":{"ha":740,"x_min":-21,"x_max":761,"o":"m 111 -306 l 260 24 l -21 689 l 215 689 l 375 258 l 533 689 l 761 689 l 339 -306 l 111 -306 m 206 750 q 112 788 150 750 q 74 882 74 826 q 112 976 74 939 q 206 1014 150 1014 q 300 976 263 1014 q 338 882 338 939 q 300 788 338 826 q 206 750 263 750 m 536 750 q 442 788 481 750 q 404 882 404 826 q 442 976 404 939 q 536 1014 481 1014 q 631 976 593 1014 q 668 882 668 939 q 631 788 668 826 q 536 750 593 750 z "},"ỳ":{"ha":740,"x_min":-21,"x_max":761,"o":"m 111 -306 l 260 24 l -21 689 l 215 689 l 375 258 l 533 689 l 761 689 l 339 -306 l 111 -306 m 535 732 l 206 874 l 206 1047 l 535 882 l 535 732 z "},"ỹ":{"ha":740,"x_min":-21,"x_max":761,"o":"m 111 -306 l 260 24 l -21 689 l 215 689 l 375 258 l 533 689 l 761 689 l 339 -306 l 111 -306 m 454 782 q 389 798 415 782 q 339 830 363 814 q 282 846 315 846 q 244 831 258 846 q 225 783 231 815 l 118 783 q 178 930 133 883 q 289 976 222 976 q 355 960 329 976 q 404 929 381 944 q 460 914 428 914 q 498 929 483 914 q 517 976 513 944 l 624 976 q 565 828 610 874 q 454 782 519 782 z "},"z":{"ha":568,"x_min":17,"x_max":551,"o":"m 17 0 l 17 168 l 303 515 l 19 515 l 19 689 l 546 689 l 546 521 l 253 174 l 551 174 l 551 0 l 17 0 z "},"ź":{"ha":568,"x_min":17,"x_max":551,"o":"m 17 0 l 17 168 l 303 515 l 19 515 l 19 689 l 546 689 l 546 521 l 253 174 l 551 174 l 551 0 l 17 0 m 119 732 l 119 882 l 449 1047 l 449 874 l 119 732 z "},"ž":{"ha":568,"x_min":17,"x_max":551,"o":"m 17 0 l 17 168 l 303 515 l 19 515 l 19 689 l 546 689 l 546 521 l 253 174 l 551 174 l 551 0 l 17 0 m 285 747 l 74 856 l 74 1008 l 285 890 l 496 1008 l 496 856 l 285 747 z "},"ż":{"ha":568,"x_min":17,"x_max":551,"o":"m 17 0 l 17 168 l 303 515 l 19 515 l 19 689 l 546 689 l 546 521 l 253 174 l 551 174 l 551 0 l 17 0 m 282 750 q 191 788 231 750 q 151 882 151 826 q 191 976 151 939 q 282 1014 231 1014 q 378 976 339 1014 q 417 882 417 939 q 378 788 417 826 q 282 750 339 750 z "},"ꞌ":{"ha":388,"x_min":76,"x_max":310,"o":"m 107 442 l 76 972 l 310 972 l 278 442 l 107 442 z "},"ﬁ":{"ha":753,"x_min":10,"x_max":733,"o":"m 88 0 l 88 510 l 10 510 l 10 689 l 88 689 l 88 715 q 159 915 88 857 q 347 972 231 972 l 418 972 l 418 786 l 379 786 q 321 770 339 786 q 303 718 303 754 l 303 689 l 418 689 l 418 510 l 303 510 l 303 0 l 88 0 m 494 0 l 494 689 l 708 689 l 708 0 l 494 0 m 601 750 q 508 789 547 750 q 469 882 469 828 q 508 975 469 936 q 601 1014 547 1014 q 696 975 658 1014 q 733 882 733 936 q 696 789 733 828 q 601 750 658 750 z "},"ﬂ":{"ha":753,"x_min":10,"x_max":714,"o":"m 88 0 l 88 510 l 10 510 l 10 689 l 88 689 l 88 715 q 159 915 88 857 q 347 972 231 972 l 418 972 l 418 786 l 379 786 q 321 770 339 786 q 303 718 303 754 l 303 689 l 418 689 l 418 510 l 303 510 l 303 0 l 88 0 m 500 0 l 500 972 l 714 972 l 714 0 l 500 0 z "},"ª":{"ha":558,"x_min":33,"x_max":539,"o":"m 185 482 q 117 498 153 482 q 58 545 82 514 q 33 621 33 576 q 60 710 33 676 q 131 760 86 744 q 229 776 176 776 l 335 776 q 317 831 332 803 q 263 858 303 858 q 224 846 240 858 q 200 813 207 833 l 50 813 q 94 906 65 868 q 167 965 124 944 q 269 986 211 986 q 342 976 304 986 q 414 941 381 965 q 468 874 447 917 q 489 768 489 832 l 489 663 q 503 628 489 640 q 539 617 518 617 l 539 492 l 506 492 q 414 508 453 492 q 353 554 375 524 q 280 498 322 514 q 185 482 238 482 m 238 601 q 280 609 257 601 q 319 635 303 617 q 335 688 335 654 l 238 688 q 203 676 219 688 q 188 643 188 664 q 201 611 188 621 q 238 601 215 601 z "},"º":{"ha":569,"x_min":35,"x_max":533,"o":"m 279 485 q 151 517 207 485 q 65 608 96 550 q 35 738 35 665 q 71 878 35 822 q 165 961 107 933 q 285 989 222 989 q 413 956 357 989 q 501 866 468 922 q 533 738 533 810 q 503 612 533 669 q 417 519 474 554 q 279 485 360 485 m 279 613 q 344 632 321 613 q 376 681 367 651 q 386 738 386 710 q 365 821 386 782 q 283 860 343 860 q 222 841 244 860 q 190 794 200 822 q 181 738 181 765 q 204 653 181 693 q 279 613 228 613 z "},"Я":{"ha":847,"x_min":4,"x_max":781,"o":"m 4 0 l 269 429 q 124 522 178 457 q 71 685 71 588 q 114 838 71 774 q 234 938 157 903 q 410 972 311 972 l 781 972 l 781 0 l 563 0 l 563 396 l 489 396 l 258 0 l 4 0 m 415 582 l 563 582 l 563 785 l 415 785 q 338 769 364 785 q 302 731 311 754 q 293 685 293 708 q 302 638 293 661 q 338 598 311 614 q 415 582 364 582 z "},"я":{"ha":847,"x_min":4,"x_max":781,"o":"m 4 0 l 269 429 q 124 522 178 457 q 71 685 71 588 q 114 838 71 774 q 234 938 157 903 q 410 972 311 972 l 781 972 l 781 0 l 563 0 l 563 396 l 489 396 l 258 0 l 4 0 m 415 582 l 563 582 l 563 785 l 415 785 q 338 769 364 785 q 302 731 311 754 q 293 685 293 708 q 302 638 293 661 q 338 598 311 614 q 415 582 364 582 z "},"Δ":{"ha":1003,"x_min":25,"x_max":976,"o":"m 25 0 l 25 167 l 413 972 l 590 972 l 976 167 l 976 0 l 25 0 m 250 167 l 753 167 l 500 725 l 250 167 z "},"Π":{"ha":900,"x_min":33,"x_max":865,"o":"m 132 0 l 132 524 l 33 524 l 33 689 l 865 689 l 865 524 l 765 524 l 765 0 l 547 0 l 547 524 l 350 524 l 350 0 l 132 0 z "},"Ω":{"ha":1093,"x_min":50,"x_max":1044,"o":"m 60 0 l 60 165 l 197 165 q 84 321 118 233 q 50 510 50 408 q 88 706 50 618 q 193 857 125 793 q 351 955 261 921 q 547 989 442 989 q 743 955 653 989 q 901 858 833 921 q 1007 706 969 794 q 1044 510 1044 618 q 1011 321 1044 408 q 896 165 978 233 l 1035 165 l 1035 0 l 660 0 l 660 172 q 738 244 701 201 q 799 346 775 286 q 822 485 822 406 q 803 615 822 558 q 747 710 783 671 q 660 769 710 749 q 547 789 610 789 q 423 763 475 789 q 338 694 371 738 q 289 597 304 651 q 274 485 274 543 q 295 350 274 410 q 353 247 317 290 q 435 172 390 203 l 435 0 l 60 0 z "},"μ":{"ha":889,"x_min":86,"x_max":800,"o":"m 86 -306 l 86 689 l 306 689 l 306 329 q 337 210 306 253 q 436 167 368 167 q 542 212 503 167 q 581 335 581 257 l 581 689 l 800 689 l 800 0 l 611 0 l 592 113 q 501 18 558 53 q 360 -17 444 -17 q 331 -15 344 -17 q 306 -10 317 -14 l 306 -306 l 86 -306 z "},"⓪":{"ha":1081,"x_min":38,"x_max":1043,"o":"m 540 -17 q 345 22 436 -17 q 185 131 254 61 q 76 291 115 200 q 38 486 38 382 q 76 681 38 590 q 185 842 115 772 q 345 950 254 911 q 540 989 436 989 q 735 950 644 989 q 896 842 826 911 q 1004 681 965 772 q 1043 486 1043 590 q 1004 291 1043 382 q 896 131 965 200 q 735 22 826 61 q 540 -17 644 -17 m 540 92 q 700 120 628 92 q 825 201 772 149 q 906 326 878 254 q 935 486 935 399 q 906 646 935 574 q 825 771 878 718 q 700 852 772 824 q 540 881 628 881 q 381 852 453 881 q 257 771 310 824 q 176 646 204 718 q 147 486 147 574 q 176 326 147 399 q 257 201 204 254 q 381 120 310 149 q 540 92 453 92 m 543 229 q 399 300 444 229 q 366 381 376 335 q 356 486 356 428 q 366 591 356 544 q 399 672 376 638 q 543 743 444 743 q 685 674 636 743 q 728 486 728 603 q 685 299 728 369 q 543 229 636 229 m 543 340 q 588 379 574 340 q 599 425 594 399 q 603 486 603 451 q 599 548 603 521 q 588 593 594 575 q 543 631 574 631 q 494 593 510 631 q 481 486 481 557 q 494 379 481 415 q 543 340 511 340 z "},"➀":{"ha":1081,"x_min":38,"x_max":1043,"o":"m 540 -17 q 345 22 436 -17 q 185 131 254 61 q 76 291 115 200 q 38 486 38 382 q 76 681 38 590 q 185 842 115 772 q 345 950 254 911 q 540 989 436 989 q 735 950 644 989 q 896 842 826 911 q 1004 681 965 772 q 1043 486 1043 590 q 1004 291 1043 382 q 896 131 965 200 q 735 22 826 61 q 540 -17 644 -17 m 540 92 q 700 120 628 92 q 825 201 772 149 q 906 326 878 254 q 935 486 935 399 q 906 646 935 574 q 825 771 878 718 q 700 852 772 824 q 540 881 628 881 q 381 852 453 881 q 257 771 310 824 q 176 646 204 718 q 147 486 147 574 q 176 326 147 399 q 257 201 204 254 q 381 120 310 149 q 540 92 453 92 m 386 244 l 386 356 l 499 356 l 499 601 l 393 586 l 393 686 l 550 740 l 615 740 l 615 356 l 725 356 l 725 244 l 386 244 z "},"➁":{"ha":1081,"x_min":38,"x_max":1043,"o":"m 540 -17 q 345 22 436 -17 q 185 131 254 61 q 76 291 115 200 q 38 486 38 382 q 76 681 38 590 q 185 842 115 772 q 345 950 254 911 q 540 989 436 989 q 735 950 644 989 q 896 842 826 911 q 1004 681 965 772 q 1043 486 1043 590 q 1004 291 1043 382 q 896 131 965 200 q 735 22 826 61 q 540 -17 644 -17 m 540 92 q 700 120 628 92 q 825 201 772 149 q 906 326 878 254 q 935 486 935 399 q 906 646 935 574 q 825 771 878 718 q 700 852 772 824 q 540 881 628 881 q 381 852 453 881 q 257 771 310 824 q 176 646 204 718 q 147 486 147 574 q 176 326 147 399 q 257 201 204 254 q 381 120 310 149 q 540 92 453 92 m 363 244 l 363 326 l 500 467 q 538 504 515 482 q 576 550 560 526 q 593 592 593 574 q 581 631 593 618 q 540 644 568 644 q 494 622 507 644 q 482 578 482 600 l 363 578 q 390 682 364 644 q 457 735 415 719 q 544 750 499 750 q 627 734 589 750 q 690 685 665 718 q 714 600 714 653 q 692 518 714 556 q 638 448 669 481 q 575 385 606 415 l 542 356 l 724 356 l 724 244 l 363 244 z "},"➂":{"ha":1081,"x_min":38,"x_max":1043,"o":"m 540 -17 q 345 22 436 -17 q 185 131 254 61 q 76 291 115 200 q 38 486 38 382 q 76 681 38 590 q 185 842 115 772 q 345 950 254 911 q 540 989 436 989 q 735 950 644 989 q 896 842 826 911 q 1004 681 965 772 q 1043 486 1043 590 q 1004 291 1043 382 q 896 131 965 200 q 735 22 826 61 q 540 -17 644 -17 m 540 92 q 700 120 628 92 q 825 201 772 149 q 906 326 878 254 q 935 486 935 399 q 906 646 935 574 q 825 771 878 718 q 700 852 772 824 q 540 881 628 881 q 381 852 453 881 q 257 771 310 824 q 176 646 204 718 q 147 486 147 574 q 176 326 147 399 q 257 201 204 254 q 381 120 310 149 q 540 92 453 92 m 542 219 q 409 263 463 219 q 358 386 356 307 l 475 386 q 494 343 475 358 q 542 328 513 328 q 591 344 574 328 q 608 389 608 360 q 588 434 608 418 q 542 450 568 450 q 521 447 532 450 q 490 431 510 443 l 424 508 l 549 617 l 371 617 l 371 725 l 708 725 l 708 629 l 607 546 q 694 489 664 529 q 725 392 725 449 q 676 267 725 315 q 542 219 626 219 z "},"➃":{"ha":1081,"x_min":38,"x_max":1043,"o":"m 540 -17 q 345 22 436 -17 q 185 131 254 61 q 76 291 115 200 q 38 486 38 382 q 76 681 38 590 q 185 842 115 772 q 345 950 254 911 q 540 989 436 989 q 735 950 644 989 q 896 842 826 911 q 1004 681 965 772 q 1043 486 1043 590 q 1004 291 1043 382 q 896 131 965 200 q 735 22 826 61 q 540 -17 644 -17 m 553 244 l 553 322 l 325 322 l 325 425 l 486 740 l 608 740 l 457 429 l 563 429 l 563 544 l 679 544 l 679 429 l 721 429 l 721 322 l 679 322 l 679 244 l 553 244 m 540 92 q 700 120 628 92 q 825 201 772 149 q 906 326 878 254 q 935 486 935 399 q 906 646 935 574 q 825 771 878 718 q 700 852 772 824 q 540 881 628 881 q 381 852 453 881 q 257 771 310 824 q 176 646 204 718 q 147 486 147 574 q 176 326 147 399 q 257 201 204 254 q 381 120 310 149 q 540 92 453 92 z "},"➄":{"ha":1081,"x_min":38,"x_max":1043,"o":"m 540 -17 q 345 22 436 -17 q 185 131 254 61 q 76 291 115 200 q 38 486 38 382 q 76 681 38 590 q 185 842 115 772 q 345 950 254 911 q 540 989 436 989 q 735 950 644 989 q 896 842 826 911 q 1004 681 965 772 q 1043 486 1043 590 q 1004 291 1043 382 q 896 131 965 200 q 735 22 826 61 q 540 -17 644 -17 m 540 92 q 700 120 628 92 q 825 201 772 149 q 906 326 878 254 q 935 486 935 399 q 906 646 935 574 q 825 771 878 718 q 700 852 772 824 q 540 881 628 881 q 381 852 453 881 q 257 771 310 824 q 176 646 204 718 q 147 486 147 574 q 176 326 147 399 q 257 201 204 254 q 381 120 310 149 q 540 92 453 92 m 543 222 q 415 260 467 222 q 356 383 364 299 l 476 383 q 499 344 481 358 q 543 331 518 331 q 590 351 571 331 q 610 407 610 372 q 592 458 610 439 q 544 478 574 478 q 504 467 521 478 q 474 428 488 457 l 360 428 l 406 728 l 694 728 l 694 619 l 499 619 l 486 558 q 520 573 501 568 q 565 578 539 578 q 652 555 617 578 q 707 494 688 532 q 726 407 726 456 q 676 275 726 328 q 543 222 625 222 z "},"➅":{"ha":1081,"x_min":38,"x_max":1043,"o":"m 540 -17 q 345 22 436 -17 q 185 131 254 61 q 76 291 115 200 q 38 486 38 382 q 76 681 38 590 q 185 842 115 772 q 345 950 254 911 q 540 989 436 989 q 735 950 644 989 q 896 842 826 911 q 1004 681 965 772 q 1043 486 1043 590 q 1004 291 1043 382 q 896 131 965 200 q 735 22 826 61 q 540 -17 644 -17 m 540 92 q 700 120 628 92 q 825 201 772 149 q 906 326 878 254 q 935 486 935 399 q 906 646 935 574 q 825 771 878 718 q 700 852 772 824 q 540 881 628 881 q 381 852 453 881 q 257 771 310 824 q 176 646 204 718 q 147 486 147 574 q 176 326 147 399 q 257 201 204 254 q 381 120 310 149 q 540 92 453 92 m 547 338 q 590 355 572 338 q 607 400 607 372 q 590 446 607 428 q 546 464 574 464 q 502 447 519 464 q 485 401 485 429 q 503 356 485 375 q 547 338 521 338 m 550 229 q 439 263 482 229 q 376 352 396 297 q 356 469 356 407 q 374 597 356 533 q 434 701 392 660 q 547 743 476 743 q 633 724 599 743 q 688 670 668 704 q 713 593 708 636 l 599 593 q 582 627 594 617 q 549 638 569 638 q 510 623 526 638 q 485 585 494 608 q 472 532 476 561 q 515 560 492 551 q 563 568 538 568 q 630 553 593 568 q 693 503 667 539 q 719 401 719 467 q 699 315 719 354 q 640 253 678 276 q 550 229 603 229 z "},"➆":{"ha":1081,"x_min":38,"x_max":1043,"o":"m 540 -17 q 345 22 436 -17 q 185 131 254 61 q 76 291 115 200 q 38 486 38 382 q 76 681 38 590 q 185 842 115 772 q 345 950 254 911 q 540 989 436 989 q 735 950 644 989 q 896 842 826 911 q 1004 681 965 772 q 1043 486 1043 590 q 1004 291 1043 382 q 896 131 965 200 q 735 22 826 61 q 540 -17 644 -17 m 418 232 l 599 621 l 353 621 l 353 728 l 735 728 l 735 640 l 547 232 l 418 232 m 540 92 q 700 120 628 92 q 825 201 772 149 q 906 326 878 254 q 935 486 935 399 q 906 646 935 574 q 825 771 878 718 q 700 852 772 824 q 540 881 628 881 q 381 852 453 881 q 257 771 310 824 q 176 646 204 718 q 147 486 147 574 q 176 326 147 399 q 257 201 204 254 q 381 120 310 149 q 540 92 453 92 z "},"➇":{"ha":1081,"x_min":38,"x_max":1043,"o":"m 540 -17 q 345 22 436 -17 q 185 131 254 61 q 76 291 115 200 q 38 486 38 382 q 76 681 38 590 q 185 842 115 772 q 345 950 254 911 q 540 989 436 989 q 735 950 644 989 q 896 842 826 911 q 1004 681 965 772 q 1043 486 1043 590 q 1004 291 1043 382 q 896 131 965 200 q 735 22 826 61 q 540 -17 644 -17 m 540 336 q 585 349 568 336 q 601 390 601 363 q 587 433 601 418 q 540 447 572 447 q 498 433 513 447 q 483 390 483 418 q 499 349 483 363 q 540 336 515 336 m 540 92 q 700 120 628 92 q 825 201 772 149 q 906 326 878 254 q 935 486 935 399 q 906 646 935 574 q 825 771 878 718 q 700 852 772 824 q 540 881 628 881 q 381 852 453 881 q 257 771 310 824 q 176 646 204 718 q 147 486 147 574 q 176 326 147 399 q 257 201 204 254 q 381 120 310 149 q 540 92 453 92 m 542 229 q 451 248 493 229 q 384 300 410 267 q 358 379 358 333 q 374 453 358 422 q 428 507 389 483 q 387 551 400 528 q 374 610 374 575 q 422 709 374 675 q 542 743 469 743 q 615 732 576 743 q 681 692 653 721 q 708 610 708 663 q 688 540 708 564 q 651 507 667 515 q 710 453 694 483 q 725 379 725 422 q 699 297 725 331 q 632 247 674 264 q 542 229 590 229 m 540 546 q 576 559 564 546 q 589 590 589 572 q 577 626 589 613 q 540 639 565 639 q 493 590 493 639 q 506 559 493 572 q 540 546 518 546 z "},"➈":{"ha":1081,"x_min":38,"x_max":1043,"o":"m 540 -17 q 345 22 436 -17 q 185 131 254 61 q 76 291 115 200 q 38 486 38 382 q 76 681 38 590 q 185 842 115 772 q 345 950 254 911 q 540 989 436 989 q 735 950 644 989 q 896 842 826 911 q 1004 681 965 772 q 1043 486 1043 590 q 1004 291 1043 382 q 896 131 965 200 q 735 22 826 61 q 540 -17 644 -17 m 540 92 q 700 120 628 92 q 825 201 772 149 q 906 326 878 254 q 935 486 935 399 q 906 646 935 574 q 825 771 878 718 q 700 852 772 824 q 540 881 628 881 q 381 852 453 881 q 257 771 310 824 q 176 646 204 718 q 147 486 147 574 q 176 326 147 399 q 257 201 204 254 q 381 120 310 149 q 540 92 453 92 m 536 229 q 451 249 486 229 q 396 302 415 268 q 371 379 376 336 l 485 379 q 501 346 489 357 q 535 335 514 335 q 574 349 558 335 q 599 388 589 364 q 611 440 608 411 q 569 413 592 422 q 521 404 546 404 q 453 419 490 404 q 390 470 417 433 q 364 571 364 507 q 385 657 364 618 q 444 719 406 696 q 533 743 482 743 q 645 709 603 743 q 708 620 688 675 q 728 503 728 565 q 710 376 728 439 q 649 271 692 313 q 536 229 607 229 m 538 508 q 581 526 564 508 q 599 571 599 543 q 581 617 599 599 q 536 635 564 635 q 494 617 511 635 q 476 572 476 600 q 494 526 476 544 q 538 508 511 508 z "},"➊":{"ha":1081,"x_min":38,"x_max":1043,"o":"m 540 -17 q 345 22 436 -17 q 185 131 254 61 q 76 291 115 200 q 38 486 38 382 q 76 681 38 590 q 185 842 115 772 q 345 950 254 911 q 540 989 436 989 q 735 950 644 989 q 896 842 826 911 q 1004 681 965 772 q 1043 486 1043 590 q 1004 291 1043 382 q 896 131 965 200 q 735 22 826 61 q 540 -17 644 -17 m 386 244 l 725 244 l 725 356 l 615 356 l 615 740 l 550 740 l 393 686 l 393 586 l 499 601 l 499 356 l 386 356 l 386 244 z "},"➋":{"ha":1081,"x_min":38,"x_max":1043,"o":"m 540 -17 q 345 22 436 -17 q 185 131 254 61 q 76 291 115 200 q 38 486 38 382 q 76 681 38 590 q 185 842 115 772 q 345 950 254 911 q 540 989 436 989 q 735 950 644 989 q 896 842 826 911 q 1004 681 965 772 q 1043 486 1043 590 q 1004 291 1043 382 q 896 131 965 200 q 735 22 826 61 q 540 -17 644 -17 m 363 244 l 724 244 l 724 356 l 542 356 l 575 385 q 638 448 606 415 q 692 518 669 481 q 714 600 714 556 q 690 685 714 653 q 627 734 665 718 q 544 750 589 750 q 457 735 499 750 q 390 682 415 719 q 363 578 364 644 l 482 578 q 494 622 482 600 q 540 644 507 644 q 581 631 568 644 q 593 592 593 618 q 576 550 593 574 q 538 504 560 526 q 500 467 515 482 l 363 326 l 363 244 z "},"➌":{"ha":1081,"x_min":38,"x_max":1043,"o":"m 540 -17 q 345 22 436 -17 q 185 131 254 61 q 76 291 115 200 q 38 486 38 382 q 76 681 38 590 q 185 842 115 772 q 345 950 254 911 q 540 989 436 989 q 735 950 644 989 q 896 842 826 911 q 1004 681 965 772 q 1043 486 1043 590 q 1004 291 1043 382 q 896 131 965 200 q 735 22 826 61 q 540 -17 644 -17 m 542 219 q 676 267 626 219 q 725 392 725 315 q 694 489 725 449 q 607 546 664 529 l 708 629 l 708 725 l 371 725 l 371 617 l 549 617 l 424 508 l 490 431 q 521 447 510 443 q 542 450 532 450 q 588 434 568 450 q 608 389 608 418 q 591 344 608 360 q 542 328 574 328 q 494 343 513 328 q 475 386 475 358 l 358 386 q 409 263 356 307 q 542 219 463 219 z "},"➍":{"ha":1081,"x_min":38,"x_max":1043,"o":"m 540 -17 q 345 22 436 -17 q 185 131 254 61 q 76 291 115 200 q 38 486 38 382 q 76 681 38 590 q 185 842 115 772 q 345 950 254 911 q 540 989 436 989 q 735 950 644 989 q 896 842 826 911 q 1004 681 965 772 q 1043 486 1043 590 q 1004 291 1043 382 q 896 131 965 200 q 735 22 826 61 q 540 -17 644 -17 m 553 244 l 679 244 l 679 322 l 721 322 l 721 429 l 679 429 l 679 544 l 563 544 l 563 429 l 457 429 l 608 740 l 486 740 l 325 425 l 325 322 l 553 322 l 553 244 z "},"➎":{"ha":1081,"x_min":38,"x_max":1043,"o":"m 540 -17 q 344 22 436 -17 q 184 131 253 61 q 76 291 115 200 q 38 486 38 382 q 76 681 38 590 q 184 842 115 772 q 344 950 253 911 q 540 989 436 989 q 735 950 644 989 q 896 842 826 911 q 1004 681 965 772 q 1043 486 1043 590 q 1004 291 1043 382 q 896 131 965 200 q 735 22 826 61 q 540 -17 644 -17 m 543 222 q 676 275 625 222 q 726 407 726 328 q 707 494 726 456 q 652 555 688 532 q 565 578 617 578 q 520 573 539 578 q 486 558 501 568 l 499 619 l 694 619 l 694 728 l 406 728 l 360 428 l 474 428 q 504 467 488 457 q 544 478 521 478 q 592 458 574 478 q 610 407 610 439 q 590 351 610 372 q 543 331 571 331 q 499 344 518 331 q 476 383 481 358 l 356 383 q 415 260 364 299 q 543 222 467 222 z "},"➏":{"ha":1081,"x_min":38,"x_max":1043,"o":"m 540 -17 q 345 22 436 -17 q 185 131 254 61 q 76 291 115 200 q 38 486 38 382 q 76 681 38 590 q 185 842 115 772 q 345 950 254 911 q 540 989 436 989 q 735 950 644 989 q 896 842 826 911 q 1004 681 965 772 q 1043 486 1043 590 q 1004 291 1043 382 q 896 131 965 200 q 735 22 826 61 q 540 -17 644 -17 m 547 338 q 503 356 521 338 q 485 401 485 375 q 502 447 485 429 q 546 464 519 464 q 590 446 574 464 q 607 400 607 428 q 590 355 607 372 q 547 338 572 338 m 550 229 q 640 253 603 229 q 699 315 678 276 q 719 401 719 354 q 693 503 719 467 q 630 553 667 539 q 563 568 593 568 q 515 560 538 568 q 472 532 492 551 q 485 585 476 561 q 510 623 494 608 q 549 638 526 638 q 582 627 569 638 q 599 593 594 617 l 713 593 q 688 670 708 636 q 633 724 668 704 q 547 743 599 743 q 434 701 476 743 q 374 597 392 660 q 356 469 356 533 q 376 352 356 407 q 439 263 396 297 q 550 229 482 229 z "},"➐":{"ha":1081,"x_min":38,"x_max":1043,"o":"m 540 -17 q 345 22 436 -17 q 185 131 254 61 q 76 291 115 200 q 38 486 38 382 q 76 681 38 590 q 185 842 115 772 q 345 950 254 911 q 540 989 436 989 q 735 950 644 989 q 896 842 826 911 q 1004 681 965 772 q 1043 486 1043 590 q 1004 291 1043 382 q 896 131 965 200 q 735 22 826 61 q 540 -17 644 -17 m 418 232 l 547 232 l 735 640 l 735 728 l 353 728 l 353 621 l 599 621 l 418 232 z "},"➑":{"ha":1081,"x_min":38,"x_max":1043,"o":"m 540 -17 q 345 22 436 -17 q 185 131 254 61 q 76 291 115 200 q 38 486 38 382 q 76 681 38 590 q 185 842 115 772 q 345 950 254 911 q 540 989 436 989 q 735 950 644 989 q 896 842 826 911 q 1004 681 965 772 q 1043 486 1043 590 q 1004 291 1043 382 q 896 131 965 200 q 735 22 826 61 q 540 -17 644 -17 m 542 229 q 632 247 590 229 q 699 297 674 264 q 725 379 725 331 q 710 453 725 422 q 651 507 694 483 q 688 540 667 515 q 708 610 708 564 q 681 692 708 663 q 615 732 653 721 q 542 743 576 743 q 422 709 469 743 q 374 610 374 675 q 387 551 374 575 q 428 507 400 528 q 374 453 389 483 q 358 379 358 422 q 384 300 358 333 q 451 248 410 267 q 542 229 493 229 m 540 336 q 499 349 515 336 q 483 390 483 363 q 498 433 483 418 q 540 447 513 447 q 587 433 572 447 q 601 390 601 418 q 585 349 601 363 q 540 336 568 336 m 540 546 q 506 559 518 546 q 493 590 493 572 q 540 639 493 639 q 577 626 565 639 q 589 590 589 613 q 576 559 589 572 q 540 546 564 546 z "},"➒":{"ha":1081,"x_min":38,"x_max":1043,"o":"m 540 -17 q 345 22 436 -17 q 185 131 254 61 q 76 291 115 200 q 38 486 38 382 q 76 681 38 590 q 185 842 115 772 q 345 950 254 911 q 540 989 436 989 q 735 950 644 989 q 896 842 826 911 q 1004 681 965 772 q 1043 486 1043 590 q 1004 291 1043 382 q 896 131 965 200 q 735 22 826 61 q 540 -17 644 -17 m 536 229 q 649 271 607 229 q 710 376 692 313 q 728 503 728 439 q 708 620 728 565 q 645 709 688 675 q 533 743 603 743 q 444 719 482 743 q 385 657 406 696 q 364 571 364 618 q 390 470 364 507 q 453 419 417 433 q 521 404 490 404 q 569 413 546 404 q 611 440 592 422 q 599 388 608 411 q 574 349 589 364 q 535 335 558 335 q 501 346 514 335 q 485 379 489 357 l 371 379 q 396 302 376 336 q 451 249 415 268 q 536 229 486 229 m 538 508 q 494 526 511 508 q 476 572 476 544 q 494 617 476 600 q 536 635 511 635 q 581 617 564 635 q 599 571 599 599 q 581 526 599 543 q 538 508 564 508 z "},"⁄":{"ha":858,"x_min":-10,"x_max":875,"o":"m -10 0 l 714 972 l 875 972 l 153 0 l -10 0 z "},"½":{"ha":1074,"x_min":44,"x_max":1011,"o":"m 44 482 l 44 589 l 164 589 l 164 840 l 49 813 l 49 910 l 215 972 l 279 972 l 279 589 l 388 589 l 388 482 l 44 482 m 108 0 l 832 972 l 993 972 l 271 0 l 108 0 m 661 0 l 661 83 l 839 268 q 868 301 854 283 q 882 342 882 319 q 870 378 882 365 q 835 392 858 392 q 790 371 801 392 q 779 329 779 350 l 664 329 q 713 453 667 408 q 835 497 758 497 q 950 460 903 497 q 997 342 997 424 q 972 258 997 294 q 906 182 946 222 l 832 107 l 1011 107 l 1011 0 l 661 0 z "},"¼":{"ha":1068,"x_min":44,"x_max":1010,"o":"m 94 0 l 818 972 l 979 972 l 257 0 l 94 0 m 44 482 l 44 589 l 164 589 l 164 840 l 49 813 l 49 910 l 215 972 l 279 972 l 279 589 l 388 589 l 388 482 l 44 482 m 839 0 l 839 85 l 610 85 l 610 174 l 768 490 l 889 490 l 742 193 l 844 193 l 844 313 l 958 313 l 958 193 l 1010 193 l 1010 85 l 958 85 l 958 0 l 839 0 z "},"¾":{"ha":1092,"x_min":53,"x_max":1035,"o":"m 118 0 l 842 972 l 1003 972 l 281 0 l 118 0 m 863 0 l 863 85 l 633 85 l 633 174 l 792 490 l 913 490 l 767 193 l 868 193 l 868 313 l 982 313 l 982 193 l 1035 193 l 1035 85 l 982 85 l 982 0 l 863 0 m 236 475 q 106 518 158 475 q 56 639 53 561 l 171 639 q 189 597 171 611 q 236 582 207 582 q 285 597 268 582 q 301 642 301 613 q 282 686 301 671 q 236 701 263 701 q 215 698 226 701 q 186 682 204 694 l 119 760 l 243 865 l 68 865 l 68 972 l 400 972 l 400 878 l 300 796 q 386 740 356 779 q 417 644 417 701 q 368 522 417 569 q 236 475 319 475 z "},"⅛":{"ha":1065,"x_min":44,"x_max":1008,"o":"m 97 -3 l 819 969 l 981 969 l 258 -3 l 97 -3 m 44 482 l 44 589 l 164 589 l 164 840 l 49 813 l 49 910 l 215 972 l 279 972 l 279 589 l 388 589 l 388 482 l 44 482 m 826 99 q 870 111 854 99 q 886 151 886 124 q 872 192 886 178 q 826 207 858 207 q 785 192 800 207 q 771 151 771 178 q 786 111 771 124 q 826 99 801 99 m 828 -7 q 739 11 781 -7 q 672 63 697 29 q 647 140 647 96 q 663 213 647 182 q 717 265 678 243 q 676 309 689 286 q 663 367 663 332 q 709 464 663 431 q 828 497 756 497 q 899 486 861 497 q 965 447 938 475 q 992 367 992 418 q 971 298 992 322 q 936 265 950 274 q 993 213 978 243 q 1008 140 1008 182 q 983 60 1008 93 q 917 10 958 26 q 828 -7 876 -7 m 826 304 q 862 317 850 304 q 874 347 874 329 q 863 382 874 369 q 826 394 851 394 q 781 347 781 394 q 792 317 781 329 q 826 304 804 304 z "},"⅜":{"ha":1054,"x_min":53,"x_max":1006,"o":"m 92 -3 l 815 969 l 976 969 l 254 -3 l 92 -3 m 236 475 q 106 518 158 475 q 56 639 53 561 l 171 639 q 189 597 171 611 q 236 582 207 582 q 285 597 268 582 q 301 642 301 613 q 282 686 301 671 q 236 701 263 701 q 215 698 226 701 q 186 682 204 694 l 119 760 l 243 865 l 68 865 l 68 972 l 400 972 l 400 878 l 300 796 q 386 740 356 779 q 417 644 417 701 q 368 522 417 569 q 236 475 319 475 m 824 99 q 867 111 851 99 q 883 151 883 124 q 869 192 883 178 q 824 207 856 207 q 783 192 797 207 q 768 151 768 178 q 783 111 768 124 q 824 99 799 99 m 825 -7 q 736 11 778 -7 q 669 63 694 29 q 644 140 644 96 q 660 213 644 182 q 714 265 675 243 q 673 309 686 286 q 660 367 660 332 q 706 464 660 431 q 825 497 753 497 q 897 486 858 497 q 962 447 935 475 q 989 367 989 418 q 968 298 989 322 q 933 265 947 274 q 990 213 975 243 q 1006 140 1006 182 q 981 60 1006 93 q 915 10 956 26 q 825 -7 874 -7 m 824 304 q 859 317 847 304 q 871 347 871 329 q 860 382 871 369 q 824 394 849 394 q 778 347 778 394 q 790 317 778 329 q 824 304 801 304 z "},"⅝":{"ha":1051,"x_min":50,"x_max":1007,"o":"m 88 -3 l 810 969 l 974 969 l 251 -3 l 88 -3 m 235 475 q 108 513 158 475 q 50 633 58 550 l 169 633 q 192 594 174 608 q 235 581 210 581 q 281 601 263 581 q 300 656 300 621 q 283 707 300 688 q 236 726 265 726 q 197 716 213 726 q 167 676 181 706 l 54 676 l 100 972 l 383 972 l 383 865 l 192 865 l 179 806 q 212 819 193 814 q 257 824 231 824 q 374 775 332 824 q 415 656 415 726 q 365 527 415 579 q 235 475 315 475 m 825 99 q 869 111 853 99 q 885 151 885 124 q 871 192 885 178 q 825 207 857 207 q 784 192 799 207 q 769 151 769 178 q 785 111 769 124 q 825 99 800 99 m 826 -7 q 738 11 779 -7 q 671 63 696 29 q 646 140 646 96 q 661 213 646 182 q 715 265 676 243 q 674 309 688 286 q 661 367 661 332 q 708 464 661 431 q 826 497 754 497 q 898 486 860 497 q 963 447 936 475 q 990 367 990 418 q 969 298 990 322 q 935 265 949 274 q 992 213 976 243 q 1007 140 1007 182 q 982 60 1007 93 q 916 10 957 26 q 826 -7 875 -7 m 825 304 q 860 317 849 304 q 872 347 872 329 q 861 382 872 369 q 825 394 850 394 q 779 347 779 394 q 791 317 779 329 q 825 304 803 304 z "},"⅞":{"ha":1031,"x_min":49,"x_max":992,"o":"m 49 -3 l 771 969 l 935 969 l 213 -3 l 49 -3 m 810 99 q 853 111 838 99 q 869 151 869 124 q 856 192 869 178 q 810 207 842 207 q 769 192 783 207 q 754 151 754 178 q 769 111 754 124 q 810 99 785 99 m 117 479 l 297 864 l 64 864 l 64 969 l 431 969 l 431 890 l 242 479 l 117 479 m 811 -7 q 722 11 764 -7 q 656 63 681 29 q 631 140 631 96 q 646 213 631 182 q 700 265 661 243 q 659 309 672 286 q 646 367 646 332 q 692 464 646 431 q 811 497 739 497 q 883 486 844 497 q 948 447 921 475 q 975 367 975 418 q 954 298 975 322 q 919 265 933 274 q 976 213 961 243 q 992 140 992 182 q 967 60 992 93 q 901 10 942 26 q 811 -7 860 -7 m 810 304 q 845 317 833 304 q 857 347 857 329 q 846 382 857 369 q 810 394 835 394 q 764 347 764 394 q 776 317 764 329 q 810 304 788 304 z "},"₀":{"ha":450,"x_min":38,"x_max":413,"o":"m 225 -7 q 114 28 156 -7 q 55 122 72 64 q 38 246 38 179 q 56 370 38 313 q 115 463 74 428 q 225 497 157 497 q 337 463 296 497 q 395 370 378 428 q 413 246 413 313 q 395 122 413 179 q 337 28 378 64 q 225 -7 296 -7 m 225 103 q 265 119 250 103 q 285 159 279 135 q 292 207 290 183 q 293 246 293 231 q 290 300 293 267 q 274 360 288 333 q 225 388 260 388 q 200 382 217 388 q 169 347 183 376 q 156 246 156 318 q 169 144 156 174 q 200 108 183 114 q 225 103 217 103 z "},"₁":{"ha":439,"x_min":54,"x_max":397,"o":"m 54 0 l 54 107 l 174 107 l 174 358 l 58 331 l 58 429 l 225 490 l 289 490 l 289 107 l 397 107 l 397 0 l 54 0 z "},"₂":{"ha":432,"x_min":39,"x_max":389,"o":"m 39 0 l 39 83 q 55 100 39 83 q 94 141 71 117 q 144 192 118 165 q 190 240 169 219 q 217 268 210 261 q 246 301 232 283 q 260 342 260 319 q 248 378 260 365 q 213 392 236 392 q 168 371 179 392 q 157 329 157 350 l 42 329 q 90 453 44 408 q 213 497 136 497 q 328 460 281 497 q 375 342 375 424 q 349 258 375 294 q 283 182 324 222 l 210 107 l 389 107 l 389 0 l 39 0 z "},"₃":{"ha":433,"x_min":33,"x_max":397,"o":"m 217 -7 q 86 36 139 -7 q 36 157 33 79 l 151 157 q 169 115 151 129 q 217 100 188 100 q 265 115 249 100 q 282 160 282 131 q 263 204 282 189 q 217 219 243 219 q 196 216 207 219 q 167 200 185 213 l 100 278 l 224 383 l 49 383 l 49 490 l 381 490 l 381 396 l 281 314 q 367 258 336 297 q 397 163 397 219 q 349 40 397 88 q 217 -7 300 -7 z "},"₄":{"ha":433,"x_min":25,"x_max":414,"o":"m 243 0 l 243 85 l 25 85 l 25 174 l 183 490 l 306 490 l 158 193 l 249 193 l 249 306 l 363 306 l 363 193 l 414 193 l 414 85 l 363 85 l 363 0 l 243 0 z "},"₅":{"ha":433,"x_min":32,"x_max":397,"o":"m 217 -7 q 90 31 140 -7 q 32 151 40 68 l 151 151 q 174 113 156 126 q 217 99 192 99 q 263 119 244 99 q 282 174 282 139 q 265 225 282 206 q 218 244 247 244 q 178 234 194 244 q 149 194 163 224 l 36 194 l 82 490 l 365 490 l 365 383 l 174 383 l 161 324 q 194 337 175 332 q 239 342 213 342 q 356 293 314 342 q 397 174 397 244 q 347 45 397 97 q 217 -7 297 -7 z "},"₆":{"ha":433,"x_min":38,"x_max":396,"o":"m 229 -7 q 119 26 161 -7 q 58 114 78 60 q 38 229 38 168 q 56 353 38 292 q 115 456 74 415 q 226 497 157 497 q 341 456 300 497 q 389 350 382 414 l 276 350 q 260 383 272 374 q 228 393 247 393 q 176 363 193 393 q 153 290 158 333 q 194 317 172 310 q 242 325 217 325 q 308 310 272 325 q 369 261 343 296 q 396 163 396 226 q 375 78 396 117 q 317 16 354 39 q 229 -7 281 -7 m 226 100 q 267 117 250 100 q 285 161 285 133 q 268 206 285 189 q 225 224 251 224 q 182 207 199 224 q 165 163 165 190 q 183 118 165 136 q 226 100 200 100 z "},"₇":{"ha":442,"x_min":38,"x_max":404,"o":"m 90 -3 l 271 382 l 38 382 l 38 488 l 404 488 l 404 408 l 215 -3 l 90 -3 z "},"₈":{"ha":425,"x_min":32,"x_max":393,"o":"m 213 -7 q 124 11 165 -7 q 57 63 82 29 q 32 140 32 96 q 47 213 32 182 q 101 265 63 243 q 60 309 74 286 q 47 367 47 332 q 94 464 47 431 q 213 497 140 497 q 284 486 246 497 q 349 447 322 475 q 376 367 376 418 q 356 298 376 322 q 321 265 335 274 q 378 213 363 243 q 393 140 393 182 q 368 60 393 93 q 302 10 343 26 q 213 -7 261 -7 m 211 99 q 255 111 239 99 q 271 151 271 124 q 257 192 271 178 q 211 207 243 207 q 170 192 185 207 q 156 151 156 178 q 171 111 156 124 q 211 99 186 99 m 211 304 q 247 317 235 304 q 258 347 258 329 q 247 382 258 369 q 211 394 236 394 q 165 347 165 394 q 177 317 165 329 q 211 304 189 304 z "},"₉":{"ha":433,"x_min":38,"x_max":396,"o":"m 207 -7 q 92 35 133 -7 q 44 140 51 76 l 157 140 q 174 108 161 118 q 206 97 186 97 q 258 127 240 97 q 281 200 275 157 q 239 174 261 182 q 192 165 217 165 q 126 180 163 165 q 64 230 90 194 q 38 328 38 265 q 58 413 38 375 q 117 474 79 451 q 204 497 154 497 q 314 464 272 497 q 376 377 356 431 q 396 261 396 324 q 378 137 396 199 q 318 34 360 75 q 207 -7 276 -7 m 208 267 q 251 284 235 267 q 268 328 268 301 q 251 373 268 356 q 207 390 235 390 q 166 374 183 390 q 149 329 149 357 q 165 285 149 303 q 208 267 182 267 z "},"⁰":{"ha":450,"x_min":38,"x_max":413,"o":"m 225 475 q 114 510 156 475 q 55 603 72 546 q 38 728 38 661 q 56 852 38 794 q 115 944 74 910 q 225 979 157 979 q 337 944 296 979 q 395 852 378 910 q 413 728 413 794 q 395 603 413 661 q 337 510 378 546 q 225 475 296 475 m 225 585 q 265 601 250 585 q 285 641 279 617 q 292 689 290 665 q 293 728 293 713 q 290 782 293 749 q 274 842 288 815 q 225 869 260 869 q 200 864 217 869 q 169 829 183 858 q 156 728 156 800 q 169 626 156 656 q 200 590 183 596 q 225 585 217 585 z "},"¹":{"ha":439,"x_min":54,"x_max":397,"o":"m 54 482 l 54 589 l 175 589 l 175 840 l 58 813 l 58 911 l 226 972 l 289 972 l 289 589 l 397 589 l 397 482 l 54 482 z "},"²":{"ha":432,"x_min":39,"x_max":389,"o":"m 39 482 l 39 565 q 55 582 39 565 q 94 623 71 599 q 144 674 118 647 q 190 722 169 701 q 217 750 210 743 q 246 783 232 765 q 260 824 260 801 q 248 860 260 847 q 213 874 236 874 q 168 853 179 874 q 157 811 157 832 l 42 811 q 90 935 44 890 q 213 979 136 979 q 328 942 281 979 q 375 824 375 906 q 349 740 375 776 q 283 664 324 704 l 210 589 l 389 589 l 389 482 l 39 482 z "},"³":{"ha":433,"x_min":33,"x_max":397,"o":"m 217 475 q 86 518 139 475 q 36 639 33 561 l 151 639 q 169 597 151 611 q 217 582 188 582 q 265 597 249 582 q 282 642 282 613 q 263 686 282 671 q 217 701 243 701 q 196 698 207 701 q 167 682 185 694 l 100 760 l 224 865 l 49 865 l 49 972 l 381 972 l 381 878 l 281 796 q 367 740 336 779 q 397 644 397 701 q 349 522 397 569 q 217 475 300 475 z "},"⁴":{"ha":433,"x_min":25,"x_max":414,"o":"m 243 482 l 243 567 l 25 567 l 25 656 l 183 972 l 306 972 l 158 675 l 249 675 l 249 788 l 363 788 l 363 675 l 414 675 l 414 567 l 363 567 l 363 482 l 243 482 z "},"⁵":{"ha":433,"x_min":32,"x_max":397,"o":"m 217 475 q 90 513 140 475 q 32 633 40 550 l 151 633 q 174 594 156 608 q 217 581 192 581 q 263 601 244 581 q 282 656 282 621 q 265 707 282 688 q 218 726 247 726 q 178 716 194 726 q 149 676 163 706 l 36 676 l 82 972 l 365 972 l 365 865 l 174 865 l 161 806 q 194 819 175 814 q 239 824 213 824 q 356 775 314 824 q 397 656 397 726 q 347 527 397 579 q 217 475 297 475 z "},"⁶":{"ha":433,"x_min":38,"x_max":396,"o":"m 229 475 q 119 508 161 475 q 58 596 78 542 q 38 711 38 650 q 56 835 38 774 q 115 938 74 897 q 226 979 157 979 q 341 938 300 979 q 389 832 382 896 l 276 832 q 260 865 272 856 q 228 875 247 875 q 176 845 193 875 q 153 772 158 815 q 194 799 172 792 q 242 807 217 807 q 308 792 272 807 q 369 743 343 778 q 396 644 396 708 q 375 560 396 599 q 317 498 354 521 q 229 475 281 475 m 226 582 q 267 599 250 582 q 285 643 285 615 q 268 688 285 671 q 225 706 251 706 q 182 689 199 706 q 165 644 165 672 q 183 600 165 618 q 226 582 200 582 z "},"⁷":{"ha":442,"x_min":38,"x_max":404,"o":"m 90 479 l 271 864 l 38 864 l 38 969 l 404 969 l 404 890 l 215 479 l 90 479 z "},"⁸":{"ha":425,"x_min":32,"x_max":393,"o":"m 213 475 q 124 493 165 475 q 57 544 82 511 q 32 622 32 578 q 47 694 32 664 q 101 747 63 725 q 60 791 74 768 q 47 849 47 814 q 94 946 47 913 q 213 979 140 979 q 284 968 246 979 q 349 928 322 957 q 376 849 376 900 q 356 780 376 804 q 321 747 335 756 q 378 694 363 725 q 393 622 393 664 q 368 542 393 575 q 302 492 343 508 q 213 475 261 475 m 211 581 q 255 593 239 581 q 271 633 271 606 q 257 674 271 660 q 211 689 243 689 q 170 674 185 689 q 156 633 156 660 q 171 593 156 606 q 211 581 186 581 m 211 786 q 247 799 235 786 q 258 829 258 811 q 247 864 258 851 q 211 876 236 876 q 165 829 165 876 q 177 799 165 811 q 211 786 189 786 z "},"⁹":{"ha":433,"x_min":38,"x_max":396,"o":"m 207 475 q 92 517 133 475 q 44 622 51 558 l 157 622 q 174 590 161 600 q 206 579 186 579 q 258 609 240 579 q 281 682 275 639 q 239 656 261 664 q 192 647 217 647 q 126 662 163 647 q 64 712 90 676 q 38 810 38 747 q 58 895 38 857 q 117 956 79 933 q 204 979 154 979 q 314 946 272 979 q 376 859 356 913 q 396 743 396 806 q 378 619 396 681 q 318 516 360 557 q 207 475 276 475 m 208 749 q 251 766 235 749 q 268 810 268 783 q 251 855 268 838 q 207 872 235 872 q 166 856 183 872 q 149 811 149 839 q 165 767 149 785 q 208 749 182 749 z "}," ":{"ha":292,"x_min":0,"x_max":0,"o":""}," ":{"ha":306,"x_min":0,"x_max":0,"o":""},"\r":{"ha":833,"x_min":0,"x_max":0,"o":""},".":{"ha":319,"x_min":28,"x_max":292,"o":"m 158 -17 q 65 22 103 -17 q 28 115 28 61 q 65 208 28 169 q 158 247 103 247 q 253 208 214 247 q 292 115 292 169 q 253 22 292 61 q 158 -17 214 -17 z "},",":{"ha":368,"x_min":31,"x_max":315,"o":"m 31 -158 l 108 214 l 315 214 l 171 -158 l 31 -158 z "},":":{"ha":363,"x_min":49,"x_max":313,"o":"m 181 451 q 87 490 125 451 q 49 583 49 529 q 87 676 49 638 q 181 715 125 715 q 274 676 235 715 q 313 583 313 638 q 274 490 313 529 q 181 451 235 451 m 181 -17 q 87 22 125 -17 q 49 115 49 61 q 87 208 49 169 q 181 247 125 247 q 274 208 235 247 q 313 115 313 169 q 274 22 313 61 q 181 -17 235 -17 z "},";":{"ha":403,"x_min":35,"x_max":351,"o":"m 35 -158 l 113 214 l 319 214 l 175 -158 l 35 -158 m 219 451 q 126 490 164 451 q 88 583 88 529 q 126 676 88 638 q 219 715 164 715 q 313 676 274 715 q 351 583 351 638 q 313 490 351 529 q 219 451 274 451 z "},"…":{"ha":1017,"x_min":56,"x_max":963,"o":"m 832 -24 q 738 15 776 -24 q 700 108 700 54 q 738 201 700 163 q 832 240 776 240 q 924 201 886 240 q 963 108 963 163 q 924 15 963 54 q 832 -24 886 -24 m 186 -24 q 93 15 131 -24 q 56 108 56 54 q 93 201 56 163 q 186 240 131 240 q 279 201 240 240 q 318 108 318 163 q 279 15 318 54 q 186 -24 240 -24 m 508 -24 q 415 15 453 -24 q 378 108 378 54 q 415 201 378 163 q 508 240 453 240 q 603 201 564 240 q 642 108 642 163 q 603 15 642 54 q 508 -24 564 -24 z "},"!":{"ha":418,"x_min":76,"x_max":340,"o":"m 114 332 l 90 972 l 324 972 l 299 332 l 114 332 m 208 -24 q 115 15 153 -24 q 76 108 76 54 q 115 201 76 163 q 208 240 153 240 q 301 201 263 240 q 340 108 340 163 q 301 15 340 54 q 208 -24 263 -24 z "},"¡":{"ha":456,"x_min":89,"x_max":367,"o":"m 110 -189 l 132 451 l 317 451 l 342 -189 l 110 -189 m 226 528 q 128 569 168 528 q 89 667 89 610 q 128 765 89 724 q 226 806 168 806 q 326 765 285 806 q 367 667 367 724 q 326 569 367 610 q 226 528 285 528 z "},"?":{"ha":742,"x_min":40,"x_max":693,"o":"m 178 324 l 172 556 l 250 556 q 368 567 315 556 q 450 608 421 578 q 481 694 481 638 q 449 779 481 749 q 365 810 418 810 q 278 778 308 810 q 247 693 247 747 l 42 693 q 77 844 40 776 q 188 950 114 911 q 269 979 224 969 q 367 989 314 989 q 535 955 461 989 q 651 856 608 921 q 682 783 671 824 q 693 693 693 742 q 651 540 693 601 q 540 447 610 478 q 465 423 506 431 q 375 413 424 415 l 371 324 l 178 324 m 276 -24 q 183 15 221 -24 q 144 108 144 54 q 183 201 144 163 q 276 240 221 240 q 369 201 329 240 q 408 108 408 163 q 369 15 408 54 q 276 -24 329 -24 z "},"¿":{"ha":742,"x_min":50,"x_max":703,"o":"m 375 -210 q 208 -175 282 -210 q 90 -76 135 -140 q 50 88 50 -7 q 91 240 50 178 q 201 333 132 303 q 278 357 238 349 q 367 367 319 365 l 371 457 l 565 457 l 571 224 l 493 224 q 374 213 426 224 q 292 172 321 203 q 261 85 261 142 q 293 1 261 32 q 378 -29 325 -29 q 465 1 435 -29 q 494 88 494 32 l 701 88 q 666 -62 703 4 q 554 -169 629 -129 q 375 -210 481 -210 m 467 539 q 373 578 413 539 q 333 671 333 617 q 373 764 333 725 q 467 803 413 803 q 560 764 522 803 q 597 671 597 725 q 560 578 597 617 q 467 539 522 539 z "},"·":{"ha":347,"x_min":42,"x_max":306,"o":"m 174 338 q 80 376 118 338 q 42 469 42 414 q 80 562 42 522 q 174 601 118 601 q 267 562 228 601 q 306 469 306 522 q 267 376 306 414 q 174 338 228 338 z "},"•":{"ha":549,"x_min":71,"x_max":475,"o":"m 272 261 q 172 288 218 261 q 99 361 126 315 q 71 463 71 407 q 99 565 71 519 q 172 638 126 611 q 272 665 218 665 q 376 638 331 665 q 449 565 422 611 q 475 463 475 519 q 449 360 475 406 q 376 288 422 314 q 272 261 331 261 z "},"*":{"ha":713,"x_min":99,"x_max":617,"o":"m 293 504 l 293 654 l 161 579 l 99 692 l 228 767 l 99 840 l 161 953 l 293 876 l 293 1028 l 421 1028 l 421 876 l 551 953 l 617 840 l 486 767 l 617 692 l 551 579 l 421 654 l 421 504 l 293 504 z "},"#":{"ha":1238,"x_min":33,"x_max":1186,"o":"m 190 0 l 236 222 l 33 222 l 33 419 l 279 419 l 319 607 l 118 607 l 118 804 l 363 804 l 408 1019 l 613 1019 l 565 804 l 807 804 l 853 1019 l 1058 1019 l 1014 804 l 1186 804 l 1186 607 l 971 607 l 931 419 l 1104 419 l 1104 222 l 888 222 l 842 0 l 635 0 l 683 222 l 443 222 l 396 0 l 190 0 m 483 419 l 724 419 l 765 607 l 525 607 l 483 419 z "},"/":{"ha":613,"x_min":28,"x_max":586,"o":"m 28 -169 l 374 1092 l 586 1092 l 238 -169 l 28 -169 z "},"\\":{"ha":613,"x_min":28,"x_max":586,"o":"m 372 -169 l 28 1092 l 239 1092 l 586 -169 l 372 -169 z "},"-":{"ha":528,"x_min":71,"x_max":456,"o":"m 71 310 l 71 492 l 456 492 l 456 310 l 71 310 z "},"–":{"ha":907,"x_min":71,"x_max":835,"o":"m 71 310 l 71 492 l 835 492 l 835 310 l 71 310 z "},"—":{"ha":1226,"x_min":71,"x_max":1156,"o":"m 71 310 l 71 492 l 1156 492 l 1156 310 l 71 310 z "},"_":{"ha":982,"x_min":71,"x_max":911,"o":"m 71 -264 l 71 -54 l 911 -54 l 911 -264 l 71 -264 z "},"(":{"ha":579,"x_min":61,"x_max":540,"o":"m 324 -201 q 186 -15 243 -119 q 94 208 129 89 q 70 333 79 269 q 61 463 61 396 q 95 717 61 594 q 188 942 129 839 q 324 1126 244 1047 l 540 1126 l 540 1106 q 347 805 418 969 q 275 463 275 640 q 346 121 275 286 q 540 -181 417 -44 l 540 -201 l 324 -201 z "},")":{"ha":579,"x_min":39,"x_max":518,"o":"m 39 -201 l 39 -181 q 233 121 163 -44 q 304 463 304 286 q 233 805 304 640 q 39 1106 163 969 l 39 1126 l 256 1126 q 331 1041 296 1088 q 394 942 365 994 q 485 717 453 839 q 518 463 518 594 q 510 333 518 396 q 486 208 503 269 q 394 -15 453 89 q 256 -201 336 -119 l 39 -201 z "},"{":{"ha":676,"x_min":125,"x_max":583,"o":"m 486 -260 q 301 -197 371 -260 q 231 -14 231 -133 q 238 63 231 24 q 252 145 244 103 q 260 232 260 188 q 229 310 260 276 q 125 346 199 343 l 125 522 q 229 556 199 525 q 260 636 260 586 q 252 725 260 686 q 238 801 244 764 q 231 883 231 839 q 301 1064 231 1001 q 486 1126 371 1126 l 583 1126 l 583 947 l 528 947 q 462 924 483 947 q 440 863 440 901 q 444 804 440 831 q 451 753 447 778 q 460 695 456 725 q 464 626 464 665 q 428 501 464 553 q 315 435 393 450 l 315 432 q 428 366 393 418 q 464 240 464 314 q 460 167 464 200 q 450 106 456 135 q 443 56 446 81 q 440 4 440 32 q 462 -58 440 -35 q 528 -81 483 -81 l 583 -81 l 583 -260 l 486 -260 z "},"}":{"ha":676,"x_min":92,"x_max":550,"o":"m 92 -260 l 92 -81 l 147 -81 q 213 -58 192 -81 q 235 4 235 -35 q 232 56 235 32 q 225 106 229 81 q 215 167 219 135 q 211 240 211 200 q 247 366 211 314 q 360 432 282 418 l 360 435 q 247 501 282 450 q 211 626 211 553 q 215 695 211 665 q 224 753 219 725 q 231 804 228 778 q 235 863 235 831 q 213 924 235 901 q 147 947 192 947 l 92 947 l 92 1126 l 189 1126 q 374 1064 304 1126 q 444 883 444 1001 q 438 801 444 839 q 423 725 431 764 q 415 636 415 686 q 446 556 415 586 q 550 522 476 525 l 550 346 q 446 310 476 343 q 415 232 415 276 q 423 145 415 188 q 438 63 431 103 q 444 -14 444 24 q 374 -197 444 -133 q 189 -260 304 -260 l 92 -260 z "},"[":{"ha":549,"x_min":89,"x_max":479,"o":"m 89 -254 l 89 1126 l 479 1126 l 479 950 l 293 950 l 293 -75 l 479 -75 l 479 -254 l 89 -254 z "},"]":{"ha":549,"x_min":71,"x_max":460,"o":"m 71 -254 l 71 -75 l 256 -75 l 256 950 l 71 950 l 71 1126 l 460 1126 l 460 -254 l 71 -254 z "},"‚":{"ha":385,"x_min":31,"x_max":331,"o":"m 31 -150 l 106 214 l 331 214 l 179 -150 l 31 -150 z "},"„":{"ha":683,"x_min":31,"x_max":629,"o":"m 31 -150 l 106 214 l 331 214 l 179 -150 l 31 -150 m 331 -150 l 406 214 l 629 214 l 478 -150 l 331 -150 z "},"“":{"ha":713,"x_min":50,"x_max":650,"o":"m 351 610 l 504 972 l 650 972 l 575 610 l 351 610 m 50 610 l 203 972 l 349 972 l 275 610 l 50 610 z "},"”":{"ha":713,"x_min":63,"x_max":663,"o":"m 364 611 l 438 974 l 663 974 l 510 611 l 364 611 m 63 611 l 138 974 l 361 974 l 208 611 l 63 611 z "},"‘":{"ha":415,"x_min":50,"x_max":349,"o":"m 50 610 l 203 972 l 349 972 l 275 610 l 50 610 z "},"’":{"ha":414,"x_min":64,"x_max":364,"o":"m 64 610 l 138 972 l 364 972 l 213 610 l 64 610 z "},"«":{"ha":750,"x_min":57,"x_max":681,"o":"m 478 167 l 360 410 l 478 653 l 681 653 l 558 410 l 681 167 l 478 167 m 178 167 l 57 410 l 178 653 l 378 653 l 256 410 l 378 167 l 178 167 z "},"»":{"ha":750,"x_min":69,"x_max":694,"o":"m 372 167 l 494 410 l 372 653 l 575 653 l 694 410 l 575 167 l 372 167 m 69 167 l 192 410 l 69 653 l 272 653 l 392 410 l 272 167 l 69 167 z "},"‹":{"ha":447,"x_min":57,"x_max":378,"o":"m 178 167 l 57 410 l 178 653 l 378 653 l 256 410 l 378 167 l 178 167 z "},"›":{"ha":447,"x_min":69,"x_max":392,"o":"m 69 167 l 192 410 l 69 653 l 272 653 l 392 410 l 272 167 l 69 167 z "},"\"":{"ha":713,"x_min":63,"x_max":663,"o":"m 364 611 l 438 974 l 663 974 l 510 611 l 364 611 m 63 611 l 138 974 l 361 974 l 208 611 l 63 611 z "},"'":{"ha":361,"x_min":42,"x_max":340,"o":"m 42 610 l 115 972 l 340 972 l 189 610 l 42 610 z "},"ƒ":{"ha":465,"x_min":-85,"x_max":482,"o":"m -85 -353 l -64 -168 l -29 -168 q 11 -153 -3 -168 q 29 -107 25 -139 l 101 592 l 25 592 l 43 772 l 122 772 l 125 810 q 227 1016 139 950 q 482 1082 315 1082 l 463 899 q 377 878 407 899 q 343 810 347 858 l 340 772 l 458 772 l 442 592 l 321 592 l 247 -107 q 197 -255 238 -201 q 95 -331 157 -308 q -44 -353 33 -353 l -85 -353 z "},"@":{"ha":1408,"x_min":96,"x_max":1335,"o":"m 717 -294 q 453 -247 569 -294 q 258 -117 338 -200 q 138 74 179 -33 q 96 303 96 182 q 142 545 96 435 q 273 737 189 656 q 472 863 357 818 q 722 908 586 908 q 967 867 856 908 q 1162 749 1079 825 q 1290 569 1244 672 q 1335 342 1335 465 q 1301 156 1335 236 q 1204 31 1267 76 q 1054 -14 1142 -14 q 936 18 985 -14 q 864 108 888 50 q 783 17 833 50 q 660 -17 732 -17 q 510 29 574 -17 q 413 149 447 75 q 379 304 379 222 q 415 463 379 390 q 513 578 450 535 q 658 622 576 622 q 764 599 713 622 q 846 524 815 576 l 846 608 l 1019 608 l 1019 211 q 1033 161 1019 175 q 1074 147 1047 147 q 1138 181 1115 147 q 1168 259 1160 214 q 1176 339 1176 304 q 1116 566 1176 472 q 953 709 1056 660 q 722 758 850 758 q 540 726 625 758 q 391 634 456 694 q 290 490 326 574 q 254 303 254 406 q 283 138 254 218 q 370 -6 313 58 q 515 -106 428 -69 q 717 -143 601 -143 q 851 -128 786 -143 q 974 -83 915 -114 l 1022 -226 q 956 -256 993 -243 q 874 -278 918 -268 q 717 -294 794 -294 m 701 142 q 806 188 767 142 q 844 303 844 235 q 826 384 844 347 q 775 444 807 421 q 701 467 743 467 q 599 424 643 467 q 554 306 554 381 q 594 191 554 240 q 701 142 633 142 z "},"&":{"ha":1011,"x_min":58,"x_max":992,"o":"m 404 -17 q 281 3 342 -17 q 169 60 219 22 q 88 157 118 99 q 58 293 58 215 q 71 392 58 347 q 108 472 83 436 q 165 531 132 507 l 181 542 l 165 565 q 137 636 143 601 q 131 704 131 671 q 173 856 131 792 q 288 954 215 919 q 449 989 360 989 q 610 954 539 989 q 723 854 682 919 q 764 697 764 789 l 546 697 q 538 733 546 711 q 508 772 529 754 q 444 789 486 789 q 389 774 410 789 q 359 740 368 760 q 350 704 350 719 q 381 624 350 664 q 475 521 411 585 l 629 365 l 751 564 l 981 564 l 768 226 l 992 0 l 715 0 l 646 69 l 628 54 q 519 -1 579 14 q 404 -17 460 -17 m 414 172 q 465 181 442 172 q 508 208 488 190 l 314 404 q 284 363 294 386 q 274 313 274 339 q 292 243 274 275 q 343 192 311 211 q 414 172 375 172 z "},"¶":{"ha":942,"x_min":39,"x_max":853,"o":"m 399 -139 l 399 382 l 368 382 q 180 423 251 382 q 74 532 108 464 q 47 602 56 565 q 39 676 39 639 q 74 821 39 754 q 182 931 108 888 q 265 961 218 950 q 368 972 311 972 l 853 972 l 853 -139 l 671 -139 l 671 807 l 581 807 l 581 -139 l 399 -139 z "},"§":{"ha":869,"x_min":58,"x_max":808,"o":"m 429 -322 q 255 -288 333 -322 q 129 -190 176 -254 q 79 -35 82 -126 l 315 -35 q 333 -87 318 -64 q 373 -125 347 -111 q 431 -139 399 -139 q 478 -131 453 -139 q 520 -104 503 -124 q 538 -50 538 -85 q 515 13 538 -8 q 440 49 492 33 q 394 63 417 56 q 336 81 372 69 q 206 138 269 101 q 100 233 142 175 q 58 375 58 292 q 136 569 58 489 q 99 704 99 624 q 141 856 96 792 q 265 954 186 919 q 439 989 343 989 q 608 958 529 989 q 736 863 686 926 q 789 701 786 800 l 553 701 q 544 738 551 713 q 514 784 538 763 q 436 806 490 806 q 360 785 392 808 q 328 717 328 761 q 354 656 328 678 q 428 619 382 635 q 476 603 450 611 q 531 586 501 596 q 602 558 568 572 q 668 524 636 543 q 726 483 700 506 q 769 432 751 460 q 808 292 808 371 q 803 237 808 264 q 789 186 799 210 q 732 97 771 136 q 769 -37 769 43 q 722 -196 768 -132 q 598 -291 675 -260 q 429 -322 521 -322 m 554 214 q 575 275 575 239 q 567 319 575 300 q 543 353 558 339 q 507 375 528 367 q 463 392 486 383 q 418 410 440 401 q 376 427 396 419 q 342 442 357 435 q 328 447 335 444 q 314 453 321 450 q 293 392 293 428 q 301 351 293 371 q 324 314 308 331 q 364 286 340 297 q 416 265 385 276 q 479 241 447 253 q 533 222 511 229 q 554 214 554 214 z "},"©":{"ha":1085,"x_min":54,"x_max":1029,"o":"m 542 -10 q 290 54 399 -10 q 118 232 181 118 q 54 490 54 342 q 117 748 54 635 q 290 925 181 861 q 542 988 399 988 q 797 924 689 988 q 968 749 906 860 q 1029 490 1029 633 q 968 231 1029 343 q 799 54 907 118 q 542 -10 688 -10 m 544 175 q 386 213 456 175 q 278 324 317 251 q 239 490 239 394 q 277 657 239 588 q 386 765 315 726 q 461 796 421 786 q 544 806 501 806 q 733 744 656 806 q 833 579 811 683 l 646 579 q 607 635 633 614 q 539 656 581 656 q 449 614 483 656 q 415 490 415 572 q 449 365 415 408 q 539 322 483 322 q 607 345 582 322 q 646 400 632 368 l 833 400 q 733 237 811 299 q 544 175 656 175 m 542 64 q 762 118 671 64 q 903 267 853 172 q 953 490 953 363 q 902 714 953 618 q 761 863 851 810 q 661 901 715 888 q 542 914 607 914 q 324 861 415 914 q 185 714 233 808 q 135 490 135 619 q 185 266 135 361 q 325 118 235 171 q 542 64 417 64 z "},"®":{"ha":482,"x_min":42,"x_max":440,"o":"m 242 590 q 142 617 188 590 q 69 690 96 644 q 42 789 42 735 q 69 890 42 844 q 142 962 96 935 q 242 989 188 989 q 342 962 297 989 q 413 890 386 935 q 440 789 440 844 q 413 690 440 735 q 342 617 386 644 q 242 590 297 590 m 149 689 q 158 707 150 692 q 178 741 167 722 q 197 774 189 760 q 206 789 206 789 q 165 843 165 803 q 179 884 165 864 q 232 904 193 904 l 307 904 l 307 689 l 268 689 l 268 779 l 243 779 q 236 766 243 779 q 219 735 229 753 q 202 704 210 718 q 194 689 194 690 l 149 689 m 242 622 q 326 645 288 622 q 386 706 364 668 q 408 789 408 743 q 386 873 408 835 q 326 933 364 911 q 242 956 288 956 q 158 933 196 956 q 98 873 121 911 q 75 789 75 835 q 98 706 75 743 q 158 645 121 668 q 242 622 196 622 m 242 813 l 268 813 l 268 872 l 238 872 q 203 843 203 872 q 214 820 203 828 q 242 813 225 813 z "},"™":{"ha":1064,"x_min":38,"x_max":1001,"o":"m 513 486 l 513 972 l 631 972 l 758 697 l 879 972 l 1001 972 l 1001 486 l 883 486 l 883 731 l 801 543 l 714 543 l 633 731 l 633 486 l 513 486 m 181 486 l 181 868 l 38 868 l 38 972 l 443 972 l 443 868 l 297 868 l 297 486 l 181 486 z "},"°":{"ha":515,"x_min":47,"x_max":472,"o":"m 258 575 q 153 600 201 575 q 76 672 106 625 q 47 783 47 719 q 76 894 47 849 q 153 965 106 940 q 257 989 201 989 q 412 933 351 989 q 472 783 472 878 q 410 630 472 685 q 258 575 349 575 m 258 707 q 315 730 294 707 q 335 782 335 753 q 315 835 335 814 q 258 857 294 857 q 206 835 226 857 q 185 782 185 814 q 206 730 185 753 q 258 707 226 707 z "},"|":{"ha":396,"x_min":89,"x_max":307,"o":"m 89 -139 l 89 1000 l 307 1000 l 307 -139 l 89 -139 z "},"¦":{"ha":396,"x_min":89,"x_max":307,"o":"m 89 554 l 89 1000 l 307 1000 l 307 554 l 89 554 m 89 -139 l 89 307 l 307 307 l 307 -139 l 89 -139 z "},"†":{"ha":881,"x_min":68,"x_max":814,"o":"m 329 -369 l 353 622 l 68 606 l 68 772 l 353 754 l 329 1094 l 549 1094 l 526 754 l 814 772 l 814 606 l 526 622 l 549 -369 l 329 -369 z "},"ℓ":{"ha":396,"x_min":89,"x_max":307,"o":"m 89 -139 l 89 1000 l 307 1000 l 307 -139 l 89 -139 z "},"‡":{"ha":882,"x_min":68,"x_max":815,"o":"m 329 -369 l 354 -29 l 68 -47 l 68 119 l 354 104 l 354 622 l 68 606 l 68 772 l 354 754 l 329 1094 l 549 1094 l 529 754 l 815 772 l 815 606 l 529 622 l 529 104 l 815 119 l 815 -47 l 529 -29 l 549 -369 l 329 -369 z "},"℮":{"ha":1042,"x_min":46,"x_max":993,"o":"m 532 -17 q 285 40 394 -17 q 113 201 176 96 q 46 463 46 307 q 101 731 46 611 q 261 921 157 851 q 519 989 368 989 q 724 951 636 989 q 872 847 813 914 q 963 699 932 782 q 993 528 993 617 l 993 440 l 301 440 l 301 196 q 406 134 349 156 q 532 113 463 113 q 719 154 638 113 q 876 272 800 196 l 954 181 q 761 35 865 88 q 532 -17 657 -17 m 301 557 l 736 557 l 736 793 q 643 845 696 829 q 519 861 590 861 q 394 840 447 861 q 301 783 342 819 l 301 557 z "},"¢":{"ha":861,"x_min":69,"x_max":792,"o":"m 336 -144 l 336 -6 q 195 65 256 15 q 101 186 135 115 q 77 262 85 222 q 69 344 69 301 q 103 502 69 431 q 196 624 136 574 q 261 665 225 647 q 336 694 297 683 l 336 833 l 533 833 l 533 697 q 703 605 635 672 q 792 432 771 538 l 560 432 q 513 496 546 472 q 436 519 481 519 q 371 502 404 519 q 315 447 338 485 q 293 344 293 408 q 310 255 293 294 q 358 192 326 215 q 436 169 390 169 q 513 193 481 169 q 560 257 546 217 l 792 257 q 702 85 771 154 q 533 -8 633 15 l 533 -144 l 336 -144 z "},"¤":{"ha":792,"x_min":86,"x_max":707,"o":"m 171 103 l 86 190 l 163 267 q 117 415 117 328 q 127 492 117 456 q 164 561 138 529 l 86 643 l 171 728 l 260 639 q 399 661 318 661 q 533 639 475 661 l 621 728 l 707 643 l 631 564 q 667 494 656 532 q 679 415 679 457 q 668 335 679 372 q 632 265 657 297 l 707 190 l 621 103 l 535 188 q 397 164 471 164 q 257 188 319 164 l 171 103 m 397 293 q 446 304 421 293 q 488 342 471 315 q 506 413 506 368 q 472 505 506 476 q 397 533 439 533 q 322 505 354 533 q 290 413 290 476 q 322 321 290 349 q 397 293 354 293 z "},"$":{"ha":800,"x_min":36,"x_max":764,"o":"m 347 -119 l 347 -12 q 192 34 261 -3 q 81 135 122 71 q 36 294 39 200 l 267 294 q 290 226 271 258 q 347 179 310 194 l 347 400 l 339 403 q 165 488 228 440 q 78 592 103 536 q 53 704 53 647 q 93 852 54 792 q 198 947 132 913 q 347 988 264 981 l 347 1099 l 443 1099 l 443 986 q 593 944 526 979 q 701 848 660 908 q 743 701 742 788 l 507 701 q 490 755 506 729 q 443 794 475 781 l 443 589 l 531 558 q 631 513 588 539 q 704 453 675 488 q 749 376 733 419 q 764 279 764 333 q 723 130 764 194 q 610 28 682 65 q 443 -15 538 -10 l 443 -119 l 347 -119 m 443 171 q 508 203 486 178 q 529 264 529 228 q 524 299 529 283 q 499 332 518 315 q 443 365 481 349 l 443 171 m 347 631 l 347 800 q 300 770 318 792 q 282 717 282 749 q 299 669 282 690 q 347 631 317 649 z "},"€":{"ha":1111,"x_min":28,"x_max":1049,"o":"m 608 -17 q 309 76 428 -17 q 150 325 190 169 l 28 325 l 28 442 l 133 442 q 131 463 132 453 q 131 483 131 474 q 131 506 131 496 q 133 526 132 517 l 28 526 l 28 647 l 151 647 q 310 896 192 803 q 608 989 428 989 q 906 898 789 989 q 1049 640 1022 807 l 808 640 q 742 750 794 711 q 607 789 689 789 q 467 751 522 789 q 381 647 413 714 l 628 647 l 628 526 l 354 526 q 353 506 353 517 q 354 483 354 494 q 353 462 354 472 q 354 442 353 451 l 628 442 l 628 325 l 381 325 q 465 218 408 256 q 607 181 522 181 q 742 216 689 181 q 808 317 794 251 l 1049 317 q 906 72 1022 161 q 608 -17 789 -17 z "},"₽":{"ha":946,"x_min":31,"x_max":907,"o":"m 158 0 l 158 119 l 31 119 l 31 310 l 158 310 l 158 374 l 31 374 l 31 563 l 158 563 l 158 974 l 554 974 q 734 938 654 974 q 860 836 814 903 q 907 675 907 769 q 862 515 907 582 q 737 410 817 447 q 554 374 657 374 l 376 374 l 376 310 l 607 310 l 607 119 l 376 119 l 376 0 l 158 0 m 376 563 l 547 563 q 655 594 625 563 q 685 675 685 626 q 655 751 685 719 q 547 782 625 782 l 376 782 l 376 563 z "},"₨":{"ha":1431,"x_min":65,"x_max":1408,"o":"m 65 0 l 65 972 l 436 972 q 613 938 536 972 q 732 838 689 903 q 775 685 775 774 q 722 522 775 588 q 576 429 669 457 l 842 0 l 589 0 l 357 396 l 285 396 l 285 0 l 65 0 m 285 582 l 432 582 q 509 598 483 582 q 544 638 535 614 q 554 685 554 661 q 544 731 554 708 q 509 769 535 754 q 432 785 483 785 l 285 785 l 285 582 m 1124 -17 q 976 10 1049 -17 q 854 91 903 38 q 800 224 806 144 l 1013 224 q 1049 163 1018 185 q 1121 142 1081 142 q 1180 155 1154 142 q 1206 199 1206 168 q 1182 238 1206 224 q 1127 261 1158 253 q 1072 275 1096 269 q 950 313 1007 292 q 858 374 893 333 q 822 488 822 414 q 861 607 822 558 q 965 681 900 656 q 1108 706 1031 706 q 1310 645 1231 706 q 1404 467 1390 585 l 1206 467 q 1171 527 1199 508 q 1101 546 1143 546 q 1047 534 1071 546 q 1024 492 1024 522 q 1047 452 1024 467 q 1100 431 1069 438 q 1156 417 1131 424 q 1278 378 1222 400 q 1371 315 1335 356 q 1408 197 1407 274 q 1369 81 1408 129 q 1265 8 1329 33 q 1124 -17 1200 -17 z "},"£":{"ha":882,"x_min":51,"x_max":807,"o":"m 96 0 l 96 124 q 155 192 131 156 q 192 275 179 228 q 206 386 206 322 q 207 394 206 388 q 210 403 208 400 l 51 403 l 51 551 l 164 551 q 147 617 154 582 q 140 686 140 651 q 183 853 140 786 q 299 955 225 921 q 468 989 374 989 q 619 963 557 989 q 722 891 682 936 q 780 791 761 846 q 801 679 799 736 l 600 679 q 565 772 599 736 q 472 808 532 808 q 405 792 433 808 q 361 748 376 776 q 346 681 346 719 q 354 624 346 654 q 378 551 363 594 l 632 551 l 632 403 l 415 403 q 413 393 414 401 q 413 385 413 385 q 392 278 413 335 q 321 172 372 221 l 807 172 l 807 0 l 96 0 z "},"¥":{"ha":928,"x_min":19,"x_max":907,"o":"m 356 0 l 356 193 l 78 193 l 78 340 l 356 340 l 356 331 l 301 432 l 78 432 l 78 579 l 225 579 l 19 972 l 268 972 l 464 529 l 663 972 l 907 972 l 704 579 l 851 579 l 851 431 l 628 431 l 574 331 l 574 340 l 851 340 l 851 193 l 574 193 l 574 0 l 356 0 z "},"∕":{"ha":613,"x_min":28,"x_max":586,"o":"m 28 -169 l 374 1092 l 586 1092 l 238 -169 l 28 -169 z "},"+":{"ha":833,"x_min":68,"x_max":765,"o":"m 326 61 l 326 310 l 68 310 l 68 492 l 326 492 l 326 742 l 510 742 l 510 492 l 765 492 l 765 310 l 510 310 l 510 61 l 326 61 z "},"−":{"ha":833,"x_min":115,"x_max":719,"o":"m 115 310 l 115 492 l 719 492 l 719 310 l 115 310 z "},"×":{"ha":833,"x_min":124,"x_max":711,"o":"m 254 108 l 124 235 l 289 401 l 126 565 l 256 694 l 418 529 l 583 696 l 711 567 l 546 401 l 711 236 l 582 110 l 419 275 l 254 108 z "},"÷":{"ha":833,"x_min":81,"x_max":753,"o":"m 81 310 l 81 492 l 753 492 l 753 310 l 81 310 m 417 -17 q 321 23 357 -17 q 285 115 285 63 q 321 210 285 174 q 417 247 357 247 q 513 210 476 247 q 549 115 549 174 q 513 23 549 63 q 417 -17 476 -17 m 417 557 q 321 597 357 557 q 285 689 285 636 q 321 784 285 747 q 417 821 357 821 q 513 784 476 821 q 549 689 549 747 q 513 597 549 636 q 417 557 476 557 z "},"=":{"ha":833,"x_min":111,"x_max":724,"o":"m 111 467 l 111 658 l 724 658 l 724 467 l 111 467 m 111 144 l 111 338 l 724 338 l 724 144 l 111 144 z "},"≠":{"ha":833,"x_min":111,"x_max":724,"o":"m 151 51 l 201 144 l 111 144 l 111 338 l 303 338 l 368 465 l 111 465 l 111 657 l 469 657 l 521 750 l 682 750 l 633 657 l 724 657 l 724 465 l 532 465 l 465 338 l 724 338 l 724 144 l 365 144 l 315 51 l 151 51 z "},">":{"ha":833,"x_min":133,"x_max":700,"o":"m 133 181 l 425 492 l 133 799 l 407 799 l 700 492 l 407 181 l 133 181 z "},"<":{"ha":833,"x_min":133,"x_max":700,"o":"m 424 181 l 133 492 l 424 799 l 700 799 l 406 492 l 700 181 l 424 181 z "},"≥":{"ha":833,"x_min":133,"x_max":700,"o":"m 133 282 l 422 542 l 133 799 l 407 799 l 700 539 l 407 282 l 133 282 m 136 19 l 136 188 l 679 188 l 679 19 l 136 19 z "},"≤":{"ha":833,"x_min":133,"x_max":700,"o":"m 425 282 l 133 539 l 425 799 l 700 799 l 410 542 l 700 282 l 425 282 m 153 19 l 153 188 l 696 188 l 696 19 l 153 19 z "},"±":{"ha":833,"x_min":67,"x_max":768,"o":"m 325 240 l 325 407 l 67 407 l 67 589 l 325 589 l 325 751 l 508 751 l 508 589 l 768 589 l 768 407 l 508 407 l 508 240 l 325 240 m 67 0 l 67 192 l 768 192 l 768 0 l 67 0 z "},"≈":{"ha":833,"x_min":29,"x_max":806,"o":"m 540 433 q 466 447 500 433 q 401 480 432 461 q 341 513 371 499 q 279 526 311 526 q 219 506 240 526 q 190 435 199 485 l 29 435 q 124 653 54 586 q 292 719 194 719 q 367 706 333 719 q 432 674 401 692 q 492 642 463 656 q 554 628 522 628 q 613 650 590 628 q 642 719 636 672 l 806 719 q 711 501 781 568 q 540 433 642 433 m 540 97 q 466 111 500 97 q 401 144 432 125 q 341 176 371 163 q 279 190 311 190 q 219 169 240 190 q 190 99 199 149 l 29 99 q 124 317 54 250 q 292 383 194 383 q 367 369 333 383 q 432 338 401 356 q 492 306 463 319 q 554 292 522 292 q 613 314 590 292 q 642 383 636 336 l 806 383 q 711 165 781 232 q 540 97 642 97 z "},"~":{"ha":833,"x_min":29,"x_max":806,"o":"m 540 297 q 466 311 500 297 q 401 344 432 325 q 341 376 371 363 q 279 390 311 390 q 219 369 240 390 q 190 299 199 347 l 29 299 q 124 515 54 449 q 292 582 194 582 q 367 568 333 582 q 432 536 401 554 q 492 504 463 518 q 554 490 522 490 q 613 513 590 490 q 642 582 636 535 l 806 582 q 711 365 781 432 q 540 297 642 297 z "},"¬":{"ha":833,"x_min":50,"x_max":783,"o":"m 565 258 l 565 444 l 50 444 l 50 611 l 783 611 l 783 258 l 565 258 z "},"^":{"ha":965,"x_min":42,"x_max":922,"o":"m 42 229 l 378 972 l 589 972 l 922 229 l 701 229 l 483 718 l 264 229 l 42 229 z "},"∞":{"ha":1063,"x_min":42,"x_max":1019,"o":"m 282 165 q 110 226 179 165 q 42 394 42 288 q 75 523 42 469 q 165 605 108 576 q 289 633 221 633 q 434 595 375 633 q 536 504 493 557 q 635 597 575 561 q 781 633 696 632 q 951 572 883 633 q 1019 404 1019 511 q 986 273 1019 326 q 897 192 953 219 q 772 165 842 165 q 628 202 688 165 q 524 288 569 239 q 422 201 483 236 q 282 165 361 167 m 301 313 q 375 332 340 313 q 438 389 410 351 q 369 459 401 431 q 297 488 338 488 q 239 464 263 488 q 215 400 215 440 q 240 335 215 357 q 301 313 265 313 m 758 311 q 822 335 799 311 q 846 400 846 358 q 822 464 846 442 q 761 486 799 486 q 683 463 721 486 q 618 397 646 439 q 683 337 650 363 q 758 311 715 311 z "},"∫":{"ha":397,"x_min":-67,"x_max":468,"o":"m -67 -353 l -47 -168 l -24 -168 q 14 -153 1 -168 q 31 -107 26 -139 l 153 1058 q 201 1206 161 1153 q 303 1281 240 1260 q 442 1303 365 1303 l 468 1303 l 449 1117 l 425 1117 q 388 1102 401 1117 q 371 1058 374 1088 l 249 -107 q 199 -255 239 -201 q 98 -331 160 -308 q -43 -353 36 -353 l -67 -353 z "},"Ω":{"ha":1093,"x_min":50,"x_max":1044,"o":"m 60 0 l 60 165 l 197 165 q 84 321 118 233 q 50 510 50 408 q 88 706 50 618 q 193 857 125 793 q 351 955 261 921 q 547 989 442 989 q 743 955 653 989 q 901 858 833 921 q 1007 706 969 794 q 1044 510 1044 618 q 1011 321 1044 408 q 896 165 978 233 l 1035 165 l 1035 0 l 660 0 l 660 172 q 738 244 701 201 q 799 346 775 286 q 822 485 822 406 q 803 615 822 558 q 747 710 783 671 q 660 769 710 749 q 547 789 610 789 q 423 763 475 789 q 338 694 371 738 q 289 597 304 651 q 274 485 274 543 q 295 350 274 410 q 353 247 317 290 q 435 172 390 203 l 435 0 l 60 0 z "},"∆":{"ha":1003,"x_min":25,"x_max":976,"o":"m 25 0 l 25 167 l 413 972 l 590 972 l 976 167 l 976 0 l 25 0 m 250 167 l 753 167 l 500 725 l 250 167 z "},"∏":{"ha":1032,"x_min":33,"x_max":1001,"o":"m 131 0 l 131 807 l 33 807 l 33 972 l 1001 972 l 1001 807 l 901 807 l 901 0 l 683 0 l 683 807 l 349 807 l 349 0 l 131 0 z "},"∑":{"ha":725,"x_min":61,"x_max":685,"o":"m 61 -71 l 64 186 l 396 463 l 64 718 l 67 972 l 685 972 l 685 806 l 239 806 l 603 539 l 603 385 l 249 96 l 682 96 l 682 -71 l 61 -71 z "},"√":{"ha":1151,"x_min":28,"x_max":1231,"o":"m 400 -57 l 199 300 l 89 236 l 28 339 l 328 515 l 510 192 l 1097 1247 l 1231 1247 l 506 -57 l 400 -57 z "},"µ":{"ha":889,"x_min":86,"x_max":800,"o":"m 86 -306 l 86 689 l 306 689 l 306 329 q 337 210 306 253 q 436 167 368 167 q 542 212 503 167 q 581 335 581 257 l 581 689 l 800 689 l 800 0 l 611 0 l 592 113 q 501 18 558 53 q 360 -17 444 -17 q 331 -15 344 -17 q 306 -10 317 -14 l 306 -306 l 86 -306 z "},"∂":{"ha":843,"x_min":50,"x_max":796,"o":"m 364 -10 q 208 28 281 -10 q 92 143 136 65 q 50 339 50 221 q 78 515 50 435 q 158 653 107 594 q 278 745 210 713 q 426 778 346 778 q 515 761 474 778 q 585 703 556 744 q 553 808 578 764 q 485 878 529 853 q 376 904 442 904 q 333 902 358 904 q 282 893 308 900 l 282 1006 q 365 1024 326 1019 q 439 1028 403 1028 q 704 903 613 1028 q 796 564 796 779 q 742 256 796 383 q 590 58 688 128 q 364 -10 490 -10 m 388 176 q 479 212 440 176 q 540 307 518 247 q 560 442 560 368 q 528 558 560 519 q 442 596 496 596 q 351 562 390 596 q 292 471 311 528 q 269 342 269 417 q 303 215 269 254 q 388 176 336 176 z "},"%":{"ha":1303,"x_min":67,"x_max":1231,"o":"m 275 0 l 813 972 l 1024 972 l 486 0 l 275 0 m 308 496 q 186 526 240 496 q 99 611 132 556 q 67 743 67 668 q 99 874 67 819 q 185 960 131 929 q 310 989 239 989 q 430 958 376 989 q 515 875 483 928 q 541 815 532 847 q 550 743 550 782 q 517 610 550 667 q 432 526 485 554 q 308 496 379 496 m 308 636 q 366 663 344 636 q 388 743 388 690 q 365 824 388 796 q 307 851 343 851 q 251 824 272 851 q 229 743 229 796 q 251 663 229 690 q 308 636 272 636 m 989 -17 q 867 13 921 -17 q 779 99 813 43 q 747 231 747 156 q 779 362 747 307 q 865 447 811 417 q 990 476 919 476 q 1110 446 1057 476 q 1196 363 1164 415 q 1222 302 1213 335 q 1231 231 1231 269 q 1198 98 1231 154 q 1113 14 1165 42 q 989 -17 1060 -17 m 989 124 q 1047 151 1025 124 q 1068 231 1068 178 q 1046 311 1068 283 q 988 339 1024 339 q 931 311 953 339 q 910 231 910 283 q 931 151 910 178 q 989 124 953 124 z "},"‰":{"ha":1799,"x_min":56,"x_max":1743,"o":"m 264 0 l 801 972 l 1013 972 l 475 0 l 264 0 m 297 496 q 175 526 229 496 q 88 611 121 556 q 56 743 56 668 q 88 874 56 819 q 174 960 119 929 q 299 989 228 989 q 419 958 365 989 q 504 875 472 928 q 530 815 521 847 q 539 743 539 782 q 506 610 539 667 q 421 526 474 554 q 297 496 368 496 m 297 636 q 355 663 333 636 q 376 743 376 690 q 354 824 376 796 q 296 851 332 851 q 240 824 261 851 q 218 743 218 796 q 240 663 218 690 q 297 636 261 636 m 978 -17 q 856 13 910 -17 q 768 99 801 43 q 736 231 736 156 q 768 362 736 307 q 854 447 800 417 q 979 476 908 476 q 1099 446 1046 476 q 1185 363 1153 415 q 1210 302 1201 335 q 1219 231 1219 269 q 1187 98 1219 154 q 1101 14 1154 42 q 978 -17 1049 -17 m 978 124 q 1035 151 1014 124 q 1057 231 1057 178 q 1035 311 1057 283 q 976 339 1013 339 q 920 311 942 339 q 899 231 899 283 q 920 151 899 178 q 978 124 942 124 m 1501 -17 q 1379 13 1433 -17 q 1292 99 1325 43 q 1260 232 1260 156 q 1292 362 1260 307 q 1378 447 1324 417 q 1503 476 1432 476 q 1623 446 1569 476 q 1708 363 1676 415 q 1734 302 1725 335 q 1743 231 1743 269 q 1710 98 1743 154 q 1625 14 1678 42 q 1501 -17 1572 -17 m 1501 124 q 1559 151 1538 124 q 1581 231 1581 178 q 1558 311 1581 283 q 1501 339 1536 339 q 1444 311 1465 339 q 1422 231 1422 283 q 1444 151 1422 178 q 1501 124 1465 124 z "},"↑":{"ha":707,"x_min":33,"x_max":672,"o":"m 268 1 l 268 682 l 215 624 l 149 557 l 33 671 l 354 989 l 672 671 l 558 557 l 490 624 l 439 682 l 439 1 l 268 1 z "},"→":{"ha":1140,"x_min":89,"x_max":1079,"o":"m 761 165 l 647 282 l 714 347 l 772 401 l 89 401 l 89 572 l 772 572 l 714 625 l 647 692 l 761 807 l 1079 486 l 761 165 z "},"↓":{"ha":707,"x_min":35,"x_max":674,"o":"m 353 -17 l 35 301 l 149 415 l 217 349 l 268 290 l 268 972 l 439 972 l 439 290 l 492 349 l 558 415 l 674 301 l 353 -17 z "},"←":{"ha":1140,"x_min":61,"x_max":1051,"o":"m 379 165 l 61 486 l 379 807 l 493 692 l 426 625 l 368 572 l 1051 572 l 1051 401 l 368 401 l 426 347 l 493 282 l 379 165 z "},"◊":{"ha":782,"x_min":33,"x_max":751,"o":"m 393 129 l 33 489 l 392 849 l 751 489 l 393 129 m 393 344 l 535 489 l 392 633 l 249 489 l 393 344 z "},"̈":{"ha":0,"x_min":0,"x_max":594,"o":"m 132 750 q 38 788 76 750 q 0 882 0 826 q 38 976 0 939 q 132 1014 76 1014 q 226 976 189 1014 q 264 882 264 939 q 226 788 264 826 q 132 750 189 750 m 463 750 q 369 788 407 750 q 331 882 331 826 q 369 976 331 939 q 463 1014 407 1014 q 557 976 519 1014 q 594 882 594 939 q 557 788 594 826 q 463 750 519 750 z "},"̇":{"ha":0,"x_min":0,"x_max":265,"o":"m 131 750 q 40 788 79 750 q 0 882 0 826 q 40 976 0 939 q 131 1014 79 1014 q 226 976 188 1014 q 265 882 265 939 q 226 788 265 826 q 131 750 188 750 z "},"̀":{"ha":0,"x_min":0,"x_max":329,"o":"m 329 732 l 0 874 l 0 1047 l 329 882 l 329 732 z "},"́":{"ha":0,"x_min":0,"x_max":329,"o":"m 0 732 l 0 882 l 329 1047 l 329 874 l 0 732 z "},"̋":{"ha":0,"x_min":0,"x_max":554,"o":"m 258 751 l 379 1028 l 554 1028 l 392 751 l 258 751 m 0 751 l 103 1028 l 276 1028 l 135 751 l 0 751 z "},"̂":{"ha":0,"x_min":0,"x_max":422,"o":"m 0 747 l 0 899 l 211 1008 l 422 899 l 422 747 l 211 858 l 0 747 z "},"̌":{"ha":0,"x_min":0,"x_max":422,"o":"m 211 747 l 0 856 l 0 1008 l 211 890 l 422 1008 l 422 856 l 211 747 z "},"̆":{"ha":0,"x_min":0,"x_max":460,"o":"m 229 750 q 63 809 126 750 q 0 978 0 868 l 0 1003 l 111 1003 q 137 933 111 958 q 229 908 163 908 q 324 933 299 908 q 350 1003 350 958 l 460 1003 l 460 976 q 396 808 460 867 q 229 750 332 750 z "},"̊":{"ha":0,"x_min":0,"x_max":333,"o":"m 164 750 q 49 794 99 750 q 0 914 0 839 q 49 1034 0 990 q 164 1078 99 1078 q 284 1034 235 1078 q 333 914 333 990 q 284 794 333 839 q 164 750 235 750 m 164 844 q 215 864 196 844 q 235 914 235 883 q 215 965 235 946 q 164 985 196 985 q 118 965 138 985 q 99 914 99 946 q 118 864 99 883 q 164 844 138 844 z "},"̃":{"ha":0,"x_min":0,"x_max":506,"o":"m 336 782 q 271 798 297 782 q 221 830 244 814 q 164 846 197 846 q 126 831 140 846 q 107 783 113 815 l 0 783 q 60 930 15 883 q 171 976 104 976 q 237 960 211 976 q 286 929 263 944 q 342 914 310 914 q 380 929 365 914 q 399 976 394 944 l 506 976 q 447 828 492 874 q 336 782 401 782 z "},"̄":{"ha":0,"x_min":0,"x_max":517,"o":"m 0 806 l 0 958 l 517 958 l 517 806 l 0 806 z "},"̒":{"ha":0,"x_min":0,"x_max":199,"o":"m 185 1182 l 185 1099 q 113 1008 113 1099 l 113 986 l 199 986 l 199 826 l 26 826 q 6 907 11 868 q 0 979 0 946 q 46 1127 0 1072 q 185 1182 92 1182 z "},"̦":{"ha":0,"x_min":0,"x_max":199,"o":"m 14 -414 l 14 -331 q 86 -240 86 -331 l 86 -218 l 0 -218 l 0 -58 l 172 -58 q 193 -139 188 -100 q 199 -211 199 -178 q 153 -359 199 -304 q 14 -414 107 -414 z "},"̧":{"ha":0,"x_min":0,"x_max":393,"o":"m 0 -369 l 0 -247 l 174 -247 q 233 -208 233 -247 q 174 -168 233 -168 l 78 -168 l 78 24 l 211 24 l 211 -57 q 299 -72 257 -56 q 367 -124 340 -89 q 393 -211 393 -158 q 365 -300 393 -265 q 294 -352 338 -335 q 204 -369 251 -369 l 0 -369 z "},"̨":{"ha":0,"x_min":0,"x_max":331,"o":"m 199 -299 q 58 -262 117 -299 q 0 -146 0 -225 q 47 -33 0 -86 q 217 74 93 19 l 274 99 l 322 0 l 256 -35 q 183 -81 206 -61 q 161 -125 161 -101 q 178 -161 161 -147 q 226 -175 196 -175 q 331 -154 272 -175 l 331 -278 q 269 -292 304 -285 q 199 -299 235 -299 z "},"¨":{"ha":0,"x_min":-297,"x_max":297,"o":"m -165 750 q -259 788 -221 750 q -297 882 -297 826 q -259 976 -297 939 q -165 1014 -221 1014 q -71 976 -108 1014 q -33 882 -33 939 q -71 788 -33 826 q -165 750 -108 750 m 165 750 q 72 788 110 750 q 33 882 33 826 q 72 976 33 939 q 165 1014 110 1014 q 260 976 222 1014 q 297 882 297 939 q 260 788 297 826 q 165 750 222 750 z "},"˙":{"ha":0,"x_min":-132,"x_max":133,"o":"m -1 750 q -92 788 -53 750 q -132 882 -132 826 q -92 976 -132 939 q -1 1014 -53 1014 q 94 976 56 1014 q 133 882 133 939 q 94 788 133 826 q -1 750 56 750 z "},"`":{"ha":0,"x_min":-164,"x_max":165,"o":"m 165 732 l -164 874 l -164 1047 l 165 882 l 165 732 z "},"´":{"ha":0,"x_min":-164,"x_max":165,"o":"m -164 732 l -164 882 l 165 1047 l 165 874 l -164 732 z "},"˝":{"ha":0,"x_min":-276,"x_max":278,"o":"m -18 751 l 103 1028 l 278 1028 l 115 751 l -18 751 m -276 751 l -174 1028 l 0 1028 l -142 751 l -276 751 z "},"ˆ":{"ha":0,"x_min":-211,"x_max":211,"o":"m -211 747 l -211 899 l 0 1008 l 211 899 l 211 747 l 0 858 l -211 747 z "},"ˇ":{"ha":0,"x_min":-211,"x_max":211,"o":"m 0 747 l -211 856 l -211 1008 l 0 890 l 211 1008 l 211 856 l 0 747 z "},"˘":{"ha":0,"x_min":-229,"x_max":231,"o":"m 0 750 q -166 809 -103 750 q -229 978 -229 868 l -229 1003 l -118 1003 q -92 933 -118 958 q 0 908 -67 908 q 95 933 69 908 q 121 1003 121 958 l 231 1003 l 231 976 q 167 808 231 867 q 0 750 103 750 z "},"˚":{"ha":0,"x_min":-167,"x_max":167,"o":"m -3 750 q -117 794 -68 750 q -167 914 -167 839 q -117 1034 -167 990 q -3 1078 -68 1078 q 117 1034 68 1078 q 167 914 167 990 q 117 794 167 839 q -3 750 68 750 m -3 844 q 49 864 29 844 q 68 914 68 883 q 49 965 68 946 q -3 985 29 985 q -49 965 -29 985 q -68 914 -68 946 q -49 864 -68 883 q -3 844 -29 844 z "},"˜":{"ha":0,"x_min":-251,"x_max":254,"o":"m 85 782 q 19 798 46 782 q -31 830 -7 814 q -87 846 -54 846 q -125 831 -111 846 q -144 783 -139 815 l -251 783 q -192 930 -236 883 q -81 976 -147 976 q -15 960 -40 976 q 35 929 11 944 q 90 914 58 914 q 128 929 114 914 q 147 976 143 944 l 254 976 q 195 828 240 874 q 85 782 150 782 z "},"¯":{"ha":0,"x_min":-258,"x_max":258,"o":"m -258 806 l -258 958 l 258 958 l 258 806 l -258 806 z "},"¸":{"ha":0,"x_min":-196,"x_max":197,"o":"m -196 -369 l -196 -247 l -22 -247 q 38 -208 38 -247 q -22 -168 38 -168 l -118 -168 l -118 24 l 15 24 l 15 -57 q 103 -72 61 -56 q 171 -124 144 -89 q 197 -211 197 -158 q 169 -300 197 -265 q 99 -352 142 -335 q 8 -369 56 -369 l -196 -369 z "},"˛":{"ha":0,"x_min":-165,"x_max":165,"o":"m 33 -299 q -107 -262 -49 -299 q -165 -146 -165 -225 q -119 -33 -165 -86 q 51 74 -72 19 l 108 99 l 157 0 l 90 -35 q 18 -81 40 -61 q -4 -125 -4 -101 q 13 -161 -4 -147 q 61 -175 31 -175 q 165 -154 107 -175 l 165 -278 q 104 -292 139 -285 q 33 -299 69 -299 z "},"ʺ":{"ha":543,"x_min":56,"x_max":488,"o":"m 324 747 l 306 1049 l 488 1049 l 471 747 l 324 747 m 71 747 l 56 1049 l 238 1049 l 219 747 l 71 747 z "},"ʹ":{"ha":292,"x_min":56,"x_max":239,"o":"m 72 747 l 56 1049 l 239 1049 l 219 747 l 72 747 z "}}}
